<svg width="24" height="24" viewBox="0 0 24 24" fill="none" xmlns="http://www.w3.org/2000/svg">
<path d="M12.1154 0.889579C16.1634 2.83591 20.237 4.33167 21.7669 4.87334C21.8717 4.91042 21.9152 4.99024 21.9158 5.05919C21.9288 6.47194 21.807 10.0083 20.4972 13.6938C19.1908 17.3699 16.7261 21.1373 12.0793 23.1536C12.0316 23.1743 11.9684 23.1743 11.9207 23.1536C7.27386 21.1373 4.80917 17.3699 3.50276 13.6938C2.193 10.0083 2.07116 6.47194 2.08418 5.05919C2.08482 4.99024 2.12834 4.91042 2.23308 4.87334C3.76297 4.33167 7.83664 2.83591 11.8846 0.889579C11.9575 0.85453 12.0425 0.85453 12.1154 0.889579Z" stroke="white" stroke-opacity="0.94902" stroke-width="1.5"/>
</svg>
