<svg width="678" height="108" viewBox="0 0 678 108" fill="none" xmlns="http://www.w3.org/2000/svg">
<path d="M-2.5034e-06 10.9367L15.093 0L59 31.443L28.814 53.3165L16.4651 45.1139L-2.5034e-06 10.9367Z" fill="#9B51E0"/>
<path d="M118 97.0633L104.279 108L63.1163 77.924L59 51.9494V31.443L104.279 64.2532L118 97.0633Z" fill="#9B51E0"/>
<path d="M118 10.9367L102.907 0L59 31.443L89.186 53.3165L101.535 45.1139L118 10.9367Z" fill="#BB6BD9"/>
<path d="M-3.8147e-06 97.0633L13.7209 108L54.8837 77.924L59 51.9494V31.443L13.7209 64.2532L-3.8147e-06 97.0633Z" fill="#BB6BD9"/>
<path d="M221.217 83.1643V74.3064H201.496C188.125 74.3064 182.526 67.2869 182.526 54C182.526 40.7967 188.292 33.61 201.579 33.61H221.217V24.8357H197.819C180.521 24.8357 173 37.2033 173 54C173 70.7131 180.604 83.1643 197.819 83.1643H221.217Z" fill="url(#paint0_linear_558_371)" fill-opacity="0.9"/>
<path d="M234.504 83.1643V24.8357H257.903C269.769 24.8357 277.624 30.4345 277.624 42.8022C277.624 49.7382 273.947 56.6741 267.763 59.8496L266.593 60.4345L279.964 83.1643H270.103L258.905 61.688H243.529V83.1643H234.504ZM243.529 54.5014H256.733C263.418 54.5014 269.351 50.9916 269.351 43.0529C269.351 34.7799 262.916 32.5237 256.649 32.5237H243.529V54.5014Z" fill="url(#paint1_linear_558_371)" fill-opacity="0.9"/>
<path d="M282.59 54C282.59 35.7827 294.539 24 312.339 24C330.64 24 342.339 35.1142 342.339 54C342.339 72.3844 330.222 84 312.339 84C294.623 84 282.59 72.1337 282.59 54ZM312.339 75.4763C325.292 75.4763 333.397 67.2869 333.397 54C333.397 40.7967 325.292 32.4401 312.339 32.4401C299.303 32.4401 291.698 41.0474 291.698 54C291.698 66.9526 299.386 75.4763 312.339 75.4763Z" fill="url(#paint2_linear_558_371)" fill-opacity="0.9"/>
<path d="M346.558 65.6992H355.833C356.418 73.7214 363.02 77.0641 370.123 77.0641C374.886 77.0641 383.577 75.2256 383.577 67.6212C383.577 60.6017 376.725 58.5125 371.209 56.8412C369.12 56.1727 366.864 55.6713 364.608 54.9192C355.416 52.3287 347.477 49.0696 347.477 39.0418C347.477 28.3454 359.343 24 369.12 24C381.739 24 391.934 29.1811 392.602 42.2173H383.494C382.909 34.4457 376.056 30.8524 369.204 30.8524C363.939 30.8524 356.084 32.6072 356.084 39.2089C356.084 45.6435 363.438 47.8162 368.535 49.3203C370.624 49.9053 372.964 50.4902 375.221 51.2423C384.496 54 392.602 57.5933 392.602 67.6212C392.602 79.1532 380.987 84 370.374 84C357.421 84 347.143 79.1532 346.558 65.6992Z" fill="url(#paint3_linear_558_371)" fill-opacity="0.9"/>
<path d="M399.112 65.6992H408.388C408.973 73.7214 415.575 77.0641 422.678 77.0641C427.441 77.0641 436.132 75.2256 436.132 67.6212C436.132 60.6017 429.28 58.5125 423.764 56.8412C421.675 56.1727 419.419 55.6713 417.163 54.9192C407.97 52.3287 400.032 49.0696 400.032 39.0418C400.032 28.3454 411.898 24 421.675 24C434.294 24 444.489 29.1811 445.157 42.2173H436.048C435.463 34.4457 428.611 30.8524 421.759 30.8524C416.494 30.8524 408.639 32.6072 408.639 39.2089C408.639 45.6435 415.993 47.8162 421.09 49.3203C423.179 49.9053 425.519 50.4902 427.775 51.2423C437.051 54 445.157 57.5933 445.157 67.6212C445.157 79.1532 433.541 84 422.929 84C409.976 84 399.697 79.1532 399.112 65.6992Z" fill="url(#paint4_linear_558_371)" fill-opacity="0.9"/>
<path d="M454.843 83.1643V24.8357H478.241C490.107 24.8357 497.963 30.4345 497.963 42.8022C497.963 49.7382 494.286 56.6741 488.102 59.8496L486.932 60.4345L500.302 83.1643H490.442L479.244 61.688H463.868V83.1643H454.843ZM463.868 54.5014H477.071C483.756 54.5014 489.69 50.9916 489.69 43.0529C489.69 34.7799 483.255 32.5237 476.988 32.5237H463.868V54.5014Z" fill="url(#paint5_linear_558_371)" fill-opacity="0.9"/>
<path d="M502.928 54C502.928 35.7827 514.878 24 532.677 24C550.978 24 562.678 35.1142 562.678 54C562.678 72.3844 550.56 84 532.677 84C514.962 84 502.928 72.1337 502.928 54ZM532.677 75.4763C545.63 75.4763 553.736 67.2869 553.736 54C553.736 40.7967 545.63 32.4401 532.677 32.4401C519.641 32.4401 512.037 41.0474 512.037 54C512.037 66.9526 519.725 75.4763 532.677 75.4763Z" fill="url(#paint6_linear_558_371)" fill-opacity="0.9"/>
<path d="M565.229 83.1643L585.786 24.8357H598.655L621.051 83.1643H610.605L606.761 72.3008H578.683L575.006 83.1643H565.229ZM581.273 64.8635H604.087L592.471 33.3593H591.97L581.273 64.8635Z" fill="url(#paint7_linear_558_371)" fill-opacity="0.9"/>
<path d="M634.445 83.1643L630.984 74.3064H648.618C661.989 74.3064 667.587 67.2869 667.587 54C667.587 40.7967 661.821 33.61 648.534 33.61H615.839L612.372 24.8357H652.295C669.593 24.8357 677.114 37.2033 677.114 54C677.114 70.7131 669.509 83.1643 652.295 83.1643H634.445Z" fill="url(#paint8_linear_558_371)" fill-opacity="0.9"/>
<defs>
<linearGradient id="paint0_linear_558_371" x1="173" y1="54" x2="677.114" y2="54" gradientUnits="userSpaceOnUse">
<stop stop-color="#BB6BD9"/>
<stop offset="1" stop-color="#F2994A"/>
</linearGradient>
<linearGradient id="paint1_linear_558_371" x1="173" y1="54" x2="677.114" y2="54" gradientUnits="userSpaceOnUse">
<stop stop-color="#BB6BD9"/>
<stop offset="1" stop-color="#F2994A"/>
</linearGradient>
<linearGradient id="paint2_linear_558_371" x1="173" y1="54" x2="677.114" y2="54" gradientUnits="userSpaceOnUse">
<stop stop-color="#BB6BD9"/>
<stop offset="1" stop-color="#F2994A"/>
</linearGradient>
<linearGradient id="paint3_linear_558_371" x1="173" y1="54" x2="677.114" y2="54" gradientUnits="userSpaceOnUse">
<stop stop-color="#BB6BD9"/>
<stop offset="1" stop-color="#F2994A"/>
</linearGradient>
<linearGradient id="paint4_linear_558_371" x1="173" y1="54" x2="677.114" y2="54" gradientUnits="userSpaceOnUse">
<stop stop-color="#BB6BD9"/>
<stop offset="1" stop-color="#F2994A"/>
</linearGradient>
<linearGradient id="paint5_linear_558_371" x1="173" y1="54" x2="677.114" y2="54" gradientUnits="userSpaceOnUse">
<stop stop-color="#BB6BD9"/>
<stop offset="1" stop-color="#F2994A"/>
</linearGradient>
<linearGradient id="paint6_linear_558_371" x1="173" y1="54" x2="677.114" y2="54" gradientUnits="userSpaceOnUse">
<stop stop-color="#BB6BD9"/>
<stop offset="1" stop-color="#F2994A"/>
</linearGradient>
<linearGradient id="paint7_linear_558_371" x1="173" y1="54" x2="677.114" y2="54" gradientUnits="userSpaceOnUse">
<stop stop-color="#BB6BD9"/>
<stop offset="1" stop-color="#F2994A"/>
</linearGradient>
<linearGradient id="paint8_linear_558_371" x1="173" y1="54" x2="677.114" y2="54" gradientUnits="userSpaceOnUse">
<stop stop-color="#BB6BD9"/>
<stop offset="1" stop-color="#F2994A"/>
</linearGradient>
</defs>
</svg>
