<svg width="955" height="108" viewBox="0 0 955 108" fill="none" xmlns="http://www.w3.org/2000/svg">
<g clip-path="url(#clip0_140_485)">
<path d="M0 10.9367L15.093 0L59 31.443L28.814 53.3165L16.4651 45.1139L0 10.9367Z" fill="#EEEEEE" fill-opacity="0.95"/>
<path d="M118 97.0633L104.279 108L63.1163 77.9241L59 51.9494V31.4431L104.279 64.2532L118 97.0633Z" fill="#EEEEEE" fill-opacity="0.95"/>
<path d="M118 10.9367L102.907 0L59 31.443L89.186 53.3165L101.535 45.1139L118 10.9367Z" fill="white" fill-opacity="0.95"/>
<path d="M0 97.0633L13.7209 108L54.8837 77.9241L59 51.9494V31.4431L13.7209 64.2532L0 97.0633Z" fill="white" fill-opacity="0.95"/>
</g>
<g clip-path="url(#clip1_140_485)">
<path d="M255.856 98.624V85.056H225.648C205.168 85.056 196.592 74.304 196.592 53.952C196.592 33.728 205.424 22.72 225.776 22.72H255.856V9.28003H220.016C193.52 9.28003 182 28.224 182 53.952C182 79.552 193.648 98.624 220.016 98.624H255.856Z" fill="white" fill-opacity="0.94902"/>
<path d="M276.208 98.624V9.28003H312.048C330.224 9.28003 342.256 17.856 342.256 36.8C342.256 47.424 336.624 58.048 327.152 62.912L325.36 63.808L345.84 98.624H330.736L313.584 65.728H290.032V98.624H276.208ZM290.032 54.72H310.256C320.496 54.72 329.584 49.344 329.584 37.184C329.584 24.512 319.728 21.056 310.128 21.056H290.032V54.72Z" fill="white" fill-opacity="0.94902"/>
<path d="M349.862 53.952C349.862 26.048 368.166 8 395.43 8C423.462 8 441.382 25.024 441.382 53.952C441.382 82.112 422.822 99.904 395.43 99.904C368.294 99.904 349.862 81.728 349.862 53.952ZM395.43 86.848C415.27 86.848 427.686 74.304 427.686 53.952C427.686 33.728 415.27 20.928 395.43 20.928C375.462 20.928 363.814 34.112 363.814 53.952C363.814 73.792 375.59 86.848 395.43 86.848Z" fill="white" fill-opacity="0.94902"/>
<path d="M447.844 71.872H462.052C462.948 84.16 473.06 89.28 483.94 89.28C491.236 89.28 504.548 86.464 504.548 74.816C504.548 64.064 494.052 60.864 485.604 58.304C482.404 57.28 478.948 56.512 475.492 55.36C461.412 51.392 449.252 46.4 449.252 31.04C449.252 14.656 467.428 8 482.404 8C501.732 8 517.348 15.936 518.372 35.904H504.42C503.524 24 493.028 18.496 482.532 18.496C474.468 18.496 462.436 21.184 462.436 31.296C462.436 41.152 473.7 44.48 481.508 46.784C484.708 47.68 488.292 48.576 491.748 49.728C505.956 53.952 518.372 59.456 518.372 74.816C518.372 92.48 500.58 99.904 484.324 99.904C464.484 99.904 448.74 92.48 447.844 71.872Z" fill="white" fill-opacity="0.94902"/>
<path d="M528.344 71.872H542.552C543.448 84.16 553.56 89.28 564.44 89.28C571.736 89.28 585.048 86.464 585.048 74.816C585.048 64.064 574.552 60.864 566.104 58.304C562.904 57.28 559.448 56.512 555.992 55.36C541.912 51.392 529.752 46.4 529.752 31.04C529.752 14.656 547.928 8 562.904 8C582.232 8 597.848 15.936 598.872 35.904H584.92C584.024 24 573.528 18.496 563.032 18.496C554.968 18.496 542.936 21.184 542.936 31.296C542.936 41.152 554.2 44.48 562.008 46.784C565.208 47.68 568.792 48.576 572.248 49.728C586.456 53.952 598.872 59.456 598.872 74.816C598.872 92.48 581.08 99.904 564.824 99.904C544.984 99.904 529.24 92.48 528.344 71.872Z" fill="white" fill-opacity="0.94902"/>
<path d="M613.708 98.624V9.28003H649.548C667.724 9.28003 679.756 17.856 679.756 36.8C679.756 47.424 674.124 58.048 664.652 62.912L662.86 63.808L683.34 98.624H668.236L651.084 65.728H627.532V98.624H613.708ZM627.532 54.72H647.756C657.996 54.72 667.084 49.344 667.084 37.184C667.084 24.512 657.228 21.056 647.628 21.056H627.532V54.72Z" fill="white" fill-opacity="0.94902"/>
<path d="M687.362 53.952C687.362 26.048 705.666 8 732.93 8C760.962 8 778.882 25.024 778.882 53.952C778.882 82.112 760.322 99.904 732.93 99.904C705.794 99.904 687.362 81.728 687.362 53.952ZM732.93 86.848C752.77 86.848 765.186 74.304 765.186 53.952C765.186 33.728 752.77 20.928 732.93 20.928C712.962 20.928 701.314 34.112 701.314 53.952C701.314 73.792 713.09 86.848 732.93 86.848Z" fill="white" fill-opacity="0.94902"/>
<path d="M782.79 98.624L814.278 9.28003H833.99L868.294 98.624H852.294L846.406 81.984H803.398L797.766 98.624H782.79ZM807.366 70.592H842.31L824.518 22.336H823.75L807.366 70.592Z" fill="white" fill-opacity="0.94902"/>
<path d="M888.81 98.624L883.51 85.056H910.52C931 85.056 939.576 74.304 939.576 53.952C939.576 33.728 930.744 22.72 910.392 22.72H860.312L855 9.28003H916.152C942.648 9.28003 954.168 28.224 954.168 53.952C954.168 79.552 942.52 98.624 916.152 98.624H888.81Z" fill="white" fill-opacity="0.94902"/>
</g>
<defs>
<clipPath id="clip0_140_485">
<rect width="118" height="108" fill="white"/>
</clipPath>
<clipPath id="clip1_140_485">
<rect width="773" height="92" fill="white" transform="translate(182 8)"/>
</clipPath>
</defs>
</svg>
