<svg width="773" height="92" viewBox="0 0 773 92" fill="none" xmlns="http://www.w3.org/2000/svg">
<path d="M73.856 90.624V77.056H43.648C23.168 77.056 14.592 66.304 14.592 45.952C14.592 25.728 23.424 14.72 43.776 14.72H73.856V1.28H38.016C11.52 1.28 0 20.224 0 45.952C0 71.552 11.648 90.624 38.016 90.624H73.856Z" fill="url(#paint0_linear_131_23)"/>
<path d="M94.208 90.624V1.28H130.048C148.224 1.28 160.256 9.856 160.256 28.8C160.256 39.424 154.624 50.048 145.152 54.912L143.36 55.808L163.84 90.624H148.736L131.584 57.728H108.032V90.624H94.208ZM108.032 46.72H128.256C138.496 46.72 147.584 41.344 147.584 29.184C147.584 16.512 137.728 13.056 128.128 13.056H108.032V46.72Z" fill="url(#paint1_linear_131_23)"/>
<path d="M167.862 45.952C167.862 18.048 186.166 0 213.43 0C241.462 0 259.382 17.024 259.382 45.952C259.382 74.112 240.822 91.904 213.43 91.904C186.294 91.904 167.862 73.728 167.862 45.952ZM213.43 78.848C233.27 78.848 245.686 66.304 245.686 45.952C245.686 25.728 233.27 12.928 213.43 12.928C193.462 12.928 181.814 26.112 181.814 45.952C181.814 65.792 193.59 78.848 213.43 78.848Z" fill="url(#paint2_linear_131_23)"/>
<path d="M265.844 63.872H280.052C280.948 76.16 291.06 81.28 301.94 81.28C309.236 81.28 322.548 78.464 322.548 66.816C322.548 56.064 312.052 52.864 303.604 50.304C300.404 49.28 296.948 48.512 293.492 47.36C279.412 43.392 267.252 38.4 267.252 23.04C267.252 6.656 285.428 0 300.404 0C319.732 0 335.348 7.936 336.372 27.904H322.42C321.524 16 311.028 10.496 300.532 10.496C292.468 10.496 280.436 13.184 280.436 23.296C280.436 33.152 291.7 36.48 299.508 38.784C302.708 39.68 306.292 40.576 309.748 41.728C323.956 45.952 336.372 51.456 336.372 66.816C336.372 84.48 318.58 91.904 302.324 91.904C282.484 91.904 266.74 84.48 265.844 63.872Z" fill="url(#paint3_linear_131_23)"/>
<path d="M346.344 63.872H360.552C361.448 76.16 371.56 81.28 382.44 81.28C389.736 81.28 403.048 78.464 403.048 66.816C403.048 56.064 392.552 52.864 384.104 50.304C380.904 49.28 377.448 48.512 373.992 47.36C359.912 43.392 347.752 38.4 347.752 23.04C347.752 6.656 365.928 0 380.904 0C400.232 0 415.848 7.936 416.872 27.904H402.92C402.024 16 391.528 10.496 381.032 10.496C372.968 10.496 360.936 13.184 360.936 23.296C360.936 33.152 372.2 36.48 380.008 38.784C383.208 39.68 386.792 40.576 390.248 41.728C404.456 45.952 416.872 51.456 416.872 66.816C416.872 84.48 399.08 91.904 382.824 91.904C362.984 91.904 347.24 84.48 346.344 63.872Z" fill="url(#paint4_linear_131_23)"/>
<path d="M431.708 90.624V1.28H467.548C485.724 1.28 497.756 9.856 497.756 28.8C497.756 39.424 492.124 50.048 482.652 54.912L480.86 55.808L501.34 90.624H486.236L469.084 57.728H445.532V90.624H431.708ZM445.532 46.72H465.756C475.996 46.72 485.084 41.344 485.084 29.184C485.084 16.512 475.228 13.056 465.628 13.056H445.532V46.72Z" fill="url(#paint5_linear_131_23)"/>
<path d="M505.362 45.952C505.362 18.048 523.666 0 550.93 0C578.962 0 596.882 17.024 596.882 45.952C596.882 74.112 578.322 91.904 550.93 91.904C523.794 91.904 505.362 73.728 505.362 45.952ZM550.93 78.848C570.77 78.848 583.186 66.304 583.186 45.952C583.186 25.728 570.77 12.928 550.93 12.928C530.962 12.928 519.314 26.112 519.314 45.952C519.314 65.792 531.09 78.848 550.93 78.848Z" fill="url(#paint6_linear_131_23)"/>
<path d="M600.79 90.624L632.278 1.28H651.99L686.294 90.624H670.294L664.406 73.984H621.398L615.766 90.624H600.79ZM625.366 62.592H660.31L642.518 14.336H641.75L625.366 62.592Z" fill="url(#paint7_linear_131_23)"/>
<path d="M706.81 90.624L701.51 77.056H728.52C749 77.056 757.576 66.304 757.576 45.952C757.576 25.728 748.744 14.72 728.392 14.72H678.312L673 1.28H734.152C760.648 1.28 772.168 20.224 772.168 45.952C772.168 71.552 760.52 90.624 734.152 90.624H706.81Z" fill="url(#paint8_linear_131_23)"/>
<defs>
<linearGradient id="paint0_linear_131_23" x1="-1.15062e-05" y1="91.904" x2="178.346" y2="-282.708" gradientUnits="userSpaceOnUse">
<stop stop-color="#FBA601"/>
<stop offset="0.495" stop-color="#F77C6F"/>
<stop offset="1" stop-color="#9B51E0"/>
</linearGradient>
<linearGradient id="paint1_linear_131_23" x1="-1.15062e-05" y1="91.904" x2="178.346" y2="-282.708" gradientUnits="userSpaceOnUse">
<stop stop-color="#FBA601"/>
<stop offset="0.495" stop-color="#F77C6F"/>
<stop offset="1" stop-color="#9B51E0"/>
</linearGradient>
<linearGradient id="paint2_linear_131_23" x1="-1.15062e-05" y1="91.904" x2="178.346" y2="-282.708" gradientUnits="userSpaceOnUse">
<stop stop-color="#FBA601"/>
<stop offset="0.495" stop-color="#F77C6F"/>
<stop offset="1" stop-color="#9B51E0"/>
</linearGradient>
<linearGradient id="paint3_linear_131_23" x1="-1.15062e-05" y1="91.904" x2="178.346" y2="-282.708" gradientUnits="userSpaceOnUse">
<stop stop-color="#FBA601"/>
<stop offset="0.495" stop-color="#F77C6F"/>
<stop offset="1" stop-color="#9B51E0"/>
</linearGradient>
<linearGradient id="paint4_linear_131_23" x1="-1.15062e-05" y1="91.904" x2="178.346" y2="-282.708" gradientUnits="userSpaceOnUse">
<stop stop-color="#FBA601"/>
<stop offset="0.495" stop-color="#F77C6F"/>
<stop offset="1" stop-color="#9B51E0"/>
</linearGradient>
<linearGradient id="paint5_linear_131_23" x1="-1.15062e-05" y1="91.904" x2="178.346" y2="-282.708" gradientUnits="userSpaceOnUse">
<stop stop-color="#FBA601"/>
<stop offset="0.495" stop-color="#F77C6F"/>
<stop offset="1" stop-color="#9B51E0"/>
</linearGradient>
<linearGradient id="paint6_linear_131_23" x1="-1.15062e-05" y1="91.904" x2="178.346" y2="-282.708" gradientUnits="userSpaceOnUse">
<stop stop-color="#FBA601"/>
<stop offset="0.495" stop-color="#F77C6F"/>
<stop offset="1" stop-color="#9B51E0"/>
</linearGradient>
<linearGradient id="paint7_linear_131_23" x1="-1.15062e-05" y1="91.904" x2="178.346" y2="-282.708" gradientUnits="userSpaceOnUse">
<stop stop-color="#FBA601"/>
<stop offset="0.495" stop-color="#F77C6F"/>
<stop offset="1" stop-color="#9B51E0"/>
</linearGradient>
<linearGradient id="paint8_linear_131_23" x1="-1.15062e-05" y1="91.904" x2="178.346" y2="-282.708" gradientUnits="userSpaceOnUse">
<stop stop-color="#FBA601"/>
<stop offset="0.495" stop-color="#F77C6F"/>
<stop offset="1" stop-color="#9B51E0"/>
</linearGradient>
</defs>
</svg>
