<svg width="24" height="24" viewBox="0 0 24 24" fill="none" xmlns="http://www.w3.org/2000/svg">
<g clip-path="url(#clip0_55_3136)">
<path fill-rule="evenodd" clip-rule="evenodd" d="M8.16442 0H15.8008C18.2107 0 20.1644 1.95367 20.1644 4.36364C20.1644 6.00656 19.2565 7.43743 17.915 8.18182C19.2565 8.92621 20.1644 10.3571 20.1644 12C20.1644 14.4099 18.2107 16.3636 15.8008 16.3636C14.4975 16.3636 13.3276 15.7922 12.5281 14.8863V19.6364C12.5281 22.0463 10.5743 24 8.16442 24C5.75445 24 3.80078 22.0463 3.80078 19.6364C3.80078 17.9935 4.70873 16.5626 6.05024 15.8182C4.70873 15.0737 3.80078 13.6429 3.80078 12C3.80078 10.3571 4.70873 8.92621 6.05024 8.18182C4.70873 7.43743 3.80078 6.00656 3.80078 4.36364C3.80078 1.95367 5.75445 0 8.16442 0ZM19.0735 4.36364C19.0735 6.17111 17.6083 7.63636 15.8008 7.63636H12.5281V1.09091H15.8008C17.6083 1.09091 19.0735 2.55616 19.0735 4.36364ZM11.4371 8.72727V15.2727H8.16442C6.35695 15.2727 4.89169 13.8075 4.89169 12C4.89169 10.1925 6.35695 8.72727 8.16442 8.72727H11.4371ZM15.8008 8.72727C13.9933 8.72727 12.5281 10.1925 12.5281 12C12.5281 13.8075 13.9933 15.2727 15.8008 15.2727C17.6083 15.2727 19.0735 13.8075 19.0735 12C19.0735 10.1925 17.6083 8.72727 15.8008 8.72727ZM11.4371 16.3636H8.16442C6.35695 16.3636 4.89169 17.8288 4.89169 19.6364C4.89169 21.4439 6.35695 22.9091 8.16442 22.9091C9.97195 22.9091 11.4371 21.4439 11.4371 19.6364V16.3636ZM11.4371 7.63636H8.16442C6.35695 7.63636 4.89169 6.17111 4.89169 4.36364C4.89169 2.55616 6.35695 1.09091 8.16442 1.09091H11.4371V7.63636Z" fill="black" fill-opacity="0.85098"/>
</g>
<defs>
<clipPath id="clip0_55_3136">
<rect width="24" height="24" fill="white" transform="translate(-0.00927734)"/>
</clipPath>
</defs>
</svg>
