<svg width="24" height="24" viewBox="0 0 24 24" fill="none" xmlns="http://www.w3.org/2000/svg">
<g clip-path="url(#clip0_56_3145)">
<path d="M13.9998 11.9819C13.9998 10.9061 13.1003 10.0339 11.9906 10.0339C10.8811 10.0339 9.98145 10.9061 9.98145 11.9819C9.98145 13.0579 10.8811 13.93 11.9906 13.93C13.1003 13.93 13.9998 13.0579 13.9998 11.9819Z" fill="white" fill-opacity="0.94902"/>
<path fill-rule="evenodd" clip-rule="evenodd" d="M18.951 8.11296C19.4036 6.32982 19.9725 3.02318 17.967 1.90212C15.971 0.785955 13.3734 2.92474 12.0018 4.20854C10.6342 2.93753 7.96376 0.807891 5.96003 1.93251C3.96473 3.05242 4.58003 6.30424 5.04264 8.09856C3.18137 8.61112 -0.00927734 9.71511 -0.00927734 11.9707C-0.00927734 14.2199 3.17805 15.421 5.02831 15.9331C4.56399 17.7374 3.97949 20.9427 5.97734 22.0602C7.98856 23.1846 10.6507 21.1056 12.035 19.8078C13.4154 21.0991 15.988 23.1917 17.9845 22.0711C19.9872 20.947 19.4656 17.6847 19.003 15.88C20.7966 15.3668 23.9907 14.1918 23.9907 11.9707C23.9907 9.73679 20.783 8.62384 18.951 8.11296ZM18.7237 14.9236C18.4199 13.9913 18.0099 12.9998 17.5084 11.9757C17.9871 10.9757 18.3812 9.99703 18.6765 9.07071C20.0194 9.44823 22.9655 10.311 22.9655 11.9707C22.9655 13.646 20.1384 14.517 18.7237 14.9236ZM17.4707 21.2108C15.9811 22.0468 13.7684 20.0457 12.749 19.0947C13.4253 18.3775 14.1011 17.5438 14.7607 16.6179C15.921 16.5182 17.0171 16.355 18.0112 16.1322C18.3368 17.4087 18.9669 20.371 17.4707 21.2108ZM6.48962 21.1989C4.99987 20.366 5.68079 17.5057 6.02238 16.1766C7.00539 16.3875 8.0936 16.5392 9.25664 16.6306C9.92056 17.5366 10.616 18.3693 11.3168 19.0986C10.451 19.9106 7.98632 22.0356 6.48962 21.1989ZM1.01591 11.9707C1.01591 10.2892 3.94438 9.43263 5.31795 9.05607C5.61833 10.0032 6.01228 10.9935 6.48771 11.995C6.00612 13.0113 5.60654 14.0173 5.3034 14.9756C3.99367 14.6121 1.01591 13.6533 1.01591 11.9707ZM6.47368 2.79283C7.96952 1.95332 10.2905 3.99786 11.2834 4.9181C10.5862 5.64403 9.8972 6.47047 9.23896 7.37119C8.11024 7.47263 7.02972 7.63552 6.03639 7.85376C5.66372 6.40656 4.97946 3.63143 6.47368 2.79283ZM15.4942 8.45168C16.2599 8.54536 16.9936 8.67 17.6825 8.82248C17.4757 9.46519 17.2179 10.1373 16.9143 10.8262C16.4742 10.0166 16.0018 9.22327 15.4942 8.45168ZM12.0022 5.62848C12.475 6.12517 12.9486 6.67983 13.4146 7.28159C12.4695 7.23823 11.523 7.23807 10.5779 7.28095C11.0442 6.68478 11.5219 6.13094 12.0022 5.62848ZM7.07592 10.8255C6.77735 10.139 6.52191 9.46392 6.3133 8.812C6.99807 8.66344 7.72832 8.54199 8.48912 8.44983C7.98 9.21975 7.5084 10.0128 7.07592 10.8255ZM8.51096 15.5626C7.72504 15.4775 6.98373 15.3622 6.29917 15.2178C6.51107 14.5544 6.77215 13.8648 7.07709 13.1634C7.51552 13.9846 7.99432 14.7854 8.51096 15.5626ZM12.0306 18.3832C11.5446 17.8748 11.0599 17.3125 10.5866 16.7077C11.537 16.7438 12.4892 16.7439 13.4395 16.7028C12.9722 17.3186 12.5002 17.8818 12.0306 18.3832ZM16.9241 13.1278C17.2449 13.8367 17.5153 14.5226 17.7301 15.1747C17.0342 15.3287 16.2829 15.4527 15.4913 15.5448C16.0027 14.7586 16.4826 13.9529 16.9241 13.1278ZM14.1886 15.6653C12.7348 15.766 11.272 15.7649 9.81776 15.6735C8.99144 14.5032 8.25584 13.2724 7.62088 11.9946C8.2528 10.7195 8.98304 9.49112 9.80544 8.32264C11.2607 8.216 12.725 8.21568 14.1802 8.32328C14.9956 9.49168 15.7247 10.7169 16.3713 11.9805C15.7324 13.255 14.9983 14.4858 14.1886 15.6653ZM17.455 2.76328C18.9512 3.60003 18.2852 6.5718 17.9583 7.86407C16.9626 7.64127 15.8814 7.47551 14.7494 7.37247C14.0898 6.46203 13.4066 5.63414 12.7206 4.91759C13.7263 3.97752 15.9732 1.93471 17.455 2.76328Z" fill="white" fill-opacity="0.94902"/>
</g>
<defs>
<clipPath id="clip0_56_3145">
<rect width="24" height="24" fill="white" transform="translate(-0.00927734)"/>
</clipPath>
</defs>
</svg>
