<svg width="24" height="24" viewBox="0 0 24 24" fill="none" xmlns="http://www.w3.org/2000/svg">
<path d="M19.281 0.427652H20.5945L23.7306 7.63664H21.9385L21.3174 6.10931H18.5173L17.9166 7.63664H16.1652L19.281 0.427652ZM19.8919 2.52518L19.0163 4.76526H20.7778L19.8919 2.52518Z" fill="black" fill-opacity="0.85098"/>
<path fill-rule="evenodd" clip-rule="evenodd" d="M13.3392 9.67906C13.1049 9.67906 12.9149 9.48911 12.9149 9.2548L13.7634 0.424975C13.7634 -0.00862974 13.1897 -0.16297 12.9722 0.212103L5.15788 13.6838C4.99382 13.9666 5.19789 14.3209 5.52487 14.3209H10.6622C10.8965 14.3209 11.0865 14.5109 11.0865 14.7452L10.238 23.575C10.238 24.0086 10.8116 24.163 11.0292 23.7879L18.8435 10.3162C19.0076 10.0334 18.8035 9.67906 18.4765 9.67906H13.3392Z" fill="black" fill-opacity="0.85098"/>
</svg>
