<svg width="24" height="24" viewBox="0 0 24 24" fill="none" xmlns="http://www.w3.org/2000/svg">
<path fill-rule="evenodd" clip-rule="evenodd" d="M13.9861 17.2318L6.5609 9.80654L4.31188 13.6838C4.14782 13.9666 4.35189 14.3209 4.67887 14.3209H9.81622C10.0505 14.3209 10.2405 14.5109 10.2405 14.7452L9.39196 23.575C9.39196 24.0086 9.96564 24.163 10.1832 23.7879L13.9861 17.2318Z" fill="black" fill-opacity="0.85098"/>
<path d="M12.0689 9.2548L12.9174 0.424975C12.9174 -0.00862974 12.3437 -0.16297 12.1262 0.212103L8.323 6.76872L2.10001 0.545047L0.900024 1.74503L21.8997 22.7447L23.0997 21.5447L15.7482 14.1939L17.9975 10.3162C18.1616 10.0334 17.9575 9.67906 17.6305 9.67906H12.4932C12.2589 9.67906 12.0689 9.48911 12.0689 9.2548Z" fill="black" fill-opacity="0.85098"/>
</svg>
