<svg width="44" height="44" viewBox="0 0 44 44" fill="none" xmlns="http://www.w3.org/2000/svg">
<path d="M39 22C39 31.3888 31.3888 39 22 39C12.6112 39 5 31.3888 5 22C5 12.6112 12.6112 5 22 5C31.3888 5 39 12.6112 39 22Z" fill="white" fill-opacity="0.94902"/>
<path fill-rule="evenodd" clip-rule="evenodd" d="M22 44C34.1503 44 44 34.1503 44 22C44 9.84974 34.1503 0 22 0C9.84974 0 0 9.84974 0 22C0 34.1503 9.84974 44 22 44ZM22 43C33.5 43 43 33.5 43 22C43 10.5 33.5 1 22 1C10.5 1 1 10.5 1 22C1 33.5 10.5 43 22 43ZM39 22C39 31.3888 31.3888 39 22 39C12.6112 39 5 31.3888 5 22C5 12.6112 12.6112 5 22 5C31.3888 5 39 12.6112 39 22Z" fill="white" fill-opacity="0.94902"/>
</svg>
