<svg width="24" height="24" viewBox="0 0 24 24" fill="none" xmlns="http://www.w3.org/2000/svg">
<path d="M3.35714 12C3.35714 16.3624 5.96324 19.3215 10.216 20.0223C10.6345 20.0913 10.9235 19.665 10.7108 19.3157C10.4357 18.8637 10.9824 18.3641 11.4473 18.6427L14.8703 20.6936C15.3602 20.9871 15.3587 21.666 14.8675 21.9575L11.5729 23.9131C11.0646 24.2148 10.4684 23.6728 10.7636 23.1774C10.9727 22.8262 10.7242 22.3853 10.3044 22.3236C5.03434 21.5493 1 17.2221 1 12C1 8.28271 2.57143 5.35731 5.71429 3.79165C5.94363 3.65373 6.26801 3.65778 6.5 3.79165C7.00874 4.0852 6.96483 4.18469 6.5 4.53786C4.53571 6.03029 3.35714 8.87145 3.35714 12Z" fill="white" fill-opacity="0.94902"/>
<path d="M20.6429 12C20.6429 7.63755 18.0368 4.67847 13.784 3.97769C13.3655 3.90871 13.0765 4.33504 13.2892 4.68432C13.5643 5.13627 13.0176 5.63587 12.5527 5.35731L9.1297 3.3064C8.63984 3.01289 8.64134 2.33404 9.1325 2.0425L12.4271 0.0868984C12.9354 -0.214799 13.5316 0.327184 13.2364 0.822632C13.0273 1.17376 13.2758 1.61466 13.6956 1.67635C18.9657 2.45073 23 6.77791 23 12C23 15.7173 21.4286 18.6427 18.2857 20.2084C18.0564 20.3463 17.732 20.3422 17.5 20.2084C16.9913 19.9148 17.0128 19.787 17.5 19.4621C19.4643 17.9697 20.6429 15.1285 20.6429 12Z" fill="white" fill-opacity="0.94902"/>
</svg>
