<svg width="24" height="24" viewBox="0 0 24 24" fill="none" xmlns="http://www.w3.org/2000/svg">
<g clip-path="url(#clip0_48_2997)">
<path fill-rule="evenodd" clip-rule="evenodd" d="M6.46155 0.923077C6.46155 0.413538 6.87509 0 7.38462 0H16.6154C17.1249 0 17.5385 0.413538 17.5385 0.923077V1.84615H6.46155V0.923077ZM6.46215 4.70012V2.76923H17.5391V4.70012C17.5391 5.24658 17.3776 5.78202 17.0739 6.23618L16.3131 7.3774C15.9088 7.98387 15.6929 8.69625 15.6929 9.42548V22.1538C15.6929 23.1738 14.8668 24 13.8468 24H10.1545C9.13446 24 8.3083 23.1738 8.3083 22.1538V9.42548C8.3083 8.69625 8.09242 7.98294 7.68811 7.3774L6.92729 6.23618C6.6236 5.7811 6.46215 5.24658 6.46215 4.70012ZM12.0006 9.23077C13.0206 9.23077 13.8468 10.0569 13.8468 11.0769V12.9231C13.8468 13.9431 13.0206 14.7692 12.0006 14.7692C10.9806 14.7692 10.1545 13.9431 10.1545 12.9231V11.0769C10.1545 10.0569 10.9806 9.23077 12.0006 9.23077ZM11.0775 12.9231C11.0775 12.4133 11.4908 12 12.0006 12C12.5104 12 12.9237 12.4133 12.9237 12.9231C12.9237 13.4329 12.5104 13.8462 12.0006 13.8462C11.4908 13.8462 11.0775 13.4329 11.0775 12.9231Z" fill="black" fill-opacity="0.85098"/>
</g>
<defs>
<clipPath id="clip0_48_2997">
<rect width="24" height="24" fill="white"/>
</clipPath>
</defs>
</svg>
