<svg width="1049" height="204" viewBox="0 0 1049 204" fill="none" xmlns="http://www.w3.org/2000/svg">
<rect width="1049" height="204" rx="16" fill="url(#paint0_linear_672_655)"/>
<path d="M48 58.9367L63.093 48L107 79.443L76.814 101.316L64.4651 93.1139L48 58.9367Z" fill="#9B51E0"/>
<path d="M166 145.063L152.279 156L111.116 125.924L107 99.9494V79.443L152.279 112.253L166 145.063Z" fill="#9B51E0"/>
<path d="M166 58.9367L150.907 48L107 79.443L137.186 101.316L149.535 93.1139L166 58.9367Z" fill="#BB6BD9"/>
<path d="M48 145.063L61.7209 156L102.884 125.924L107 99.9494V79.443L61.7209 112.253L48 145.063Z" fill="#BB6BD9"/>
<path d="M257.466 131.164V122.306H237.744C224.374 122.306 218.775 115.287 218.775 102C218.775 88.7967 224.541 81.61 237.828 81.61H257.466V72.8357H234.067C216.769 72.8357 209.249 85.2033 209.249 102C209.249 118.713 216.853 131.164 234.067 131.164H257.466Z" fill="url(#paint1_linear_672_655)" fill-opacity="0.9"/>
<path d="M318.838 102C318.838 83.7827 330.788 72 348.587 72C366.888 72 378.587 83.1142 378.587 102C378.587 120.384 366.47 132 348.587 132C330.872 132 318.838 120.134 318.838 102ZM348.587 123.476C361.54 123.476 369.646 115.287 369.646 102C369.646 88.7967 361.54 80.4401 348.587 80.4401C335.551 80.4401 327.947 89.0474 327.947 102C327.947 114.953 335.635 123.476 348.587 123.476Z" fill="url(#paint2_linear_672_655)" fill-opacity="0.9"/>
<path d="M382.806 113.699H392.082C392.667 121.721 399.269 125.064 406.372 125.064C411.135 125.064 419.826 123.226 419.826 115.621C419.826 108.602 412.973 106.513 407.458 104.841C405.369 104.173 403.113 103.671 400.856 102.919C391.664 100.329 383.725 97.0696 383.725 87.0418C383.725 76.3454 395.592 72 405.369 72C417.987 72 428.182 77.1811 428.851 90.2173H419.742C419.157 82.4457 412.305 78.8524 405.452 78.8524C400.188 78.8524 392.333 80.6072 392.333 87.2089C392.333 93.6435 399.686 95.8162 404.784 97.3203C406.873 97.9053 409.213 98.4902 411.469 99.2423C420.745 102 428.851 105.593 428.851 115.621C428.851 127.153 417.235 132 406.622 132C393.67 132 383.391 127.153 382.806 113.699Z" fill="url(#paint3_linear_672_655)" fill-opacity="0.9"/>
<path d="M435.361 113.699H444.637C445.222 121.721 451.823 125.064 458.926 125.064C463.69 125.064 472.381 123.226 472.381 115.621C472.381 108.602 465.528 106.513 460.013 104.841C457.924 104.173 455.667 103.671 453.411 102.919C444.219 100.329 436.28 97.0696 436.28 87.0418C436.28 76.3454 448.147 72 457.924 72C470.542 72 480.737 77.1811 481.406 90.2173H472.297C471.712 82.4457 464.86 78.8524 458.007 78.8524C452.743 78.8524 444.887 80.6072 444.887 87.2089C444.887 93.6435 452.241 95.8162 457.339 97.3203C459.428 97.9053 461.768 98.4902 464.024 99.2423C473.3 102 481.406 105.593 481.406 115.621C481.406 127.153 469.79 132 459.177 132C446.225 132 435.946 127.153 435.361 113.699Z" fill="url(#paint4_linear_672_655)" fill-opacity="0.9"/>
<path d="M491.091 131.164V72.8357H514.49C526.356 72.8357 534.211 78.4345 534.211 90.8022C534.211 97.7382 530.534 104.674 524.35 107.85L523.181 108.435L536.551 131.164H526.69L515.492 109.688H500.116V131.164H491.091ZM500.116 102.501H513.32C520.005 102.501 525.938 98.9916 525.938 91.0529C525.938 82.7799 519.504 80.5237 513.236 80.5237H500.116V102.501Z" fill="url(#paint5_linear_672_655)" fill-opacity="0.9"/>
<path d="M539.177 102C539.177 83.7827 551.127 72 568.926 72C587.227 72 598.926 83.1142 598.926 102C598.926 120.384 586.809 132 568.926 132C551.21 132 539.177 120.134 539.177 102ZM568.926 123.476C581.879 123.476 589.985 115.287 589.985 102C589.985 88.7967 581.879 80.4401 568.926 80.4401C555.89 80.4401 548.285 89.0474 548.285 102C548.285 114.953 555.973 123.476 568.926 123.476Z" fill="url(#paint6_linear_672_655)" fill-opacity="0.9"/>
<path d="M601.477 131.164L622.035 72.8357H634.904L657.299 131.164H646.853L643.009 120.301H614.931L611.255 131.164H601.477ZM617.522 112.864H640.335L628.72 81.3593H628.218L617.522 112.864Z" fill="url(#paint7_linear_672_655)" fill-opacity="0.9"/>
<path d="M670.693 131.164L667.233 122.306H678.338C691.709 122.306 697.307 115.287 697.307 102C697.307 88.7967 691.541 81.61 678.255 81.61H652.088L648.62 72.8357H682.015C699.313 72.8357 706.834 85.2033 706.834 102C706.834 118.713 699.229 131.164 682.015 131.164H670.693Z" fill="url(#paint8_linear_672_655)" fill-opacity="0.9"/>
<path d="M711.519 113.699H720.795C721.38 121.721 727.981 125.064 735.084 125.064C739.847 125.064 748.538 123.226 748.538 115.621C748.538 108.602 741.686 106.513 736.171 104.841C734.081 104.173 731.825 103.671 729.569 102.919C720.377 100.329 712.438 97.0696 712.438 87.0418C712.438 76.3454 724.304 72 734.081 72C746.7 72 756.895 77.1811 757.563 90.2173H748.455C747.87 82.4457 741.017 78.8524 734.165 78.8524C728.9 78.8524 721.045 80.6072 721.045 87.2089C721.045 93.6435 728.399 95.8162 733.496 97.3203C735.586 97.9053 737.925 98.4902 740.182 99.2423C749.458 102 757.563 105.593 757.563 115.621C757.563 127.153 745.948 132 735.335 132C722.382 132 712.104 127.153 711.519 113.699Z" fill="url(#paint9_linear_672_655)" fill-opacity="0.9"/>
<path d="M270.753 72.8357H294.151C306.017 72.8357 313.873 78.4345 313.873 90.8022C313.873 97.7382 310.196 104.674 304.012 107.85L302.842 108.435L316.212 131.164H306.352L295.154 109.688H279.778V131.164H270.753V102.501H279.778H292.981C299.666 102.501 305.6 98.9916 305.6 91.0529C305.6 82.7799 299.165 80.5237 292.898 80.5237H279.778H270.753V72.8357Z" fill="url(#paint10_linear_672_655)" fill-opacity="0.9"/>
<path d="M801.28 70.68V134.68H798.656V70.68H801.28ZM832.25 95.5H850.5V77.25H851V95.5H856.75V77.25H857.25V95.5H863V77.25H863.5V95.5H869.25V77.25H869.75V95.5H875.5V77.25H876V95.5H881.75V77.25H882.25V127.125H832.25V126.75H850.5V121H832.25V120.5H850.5V114.75H832.25V114.25H850.5V108.5H832.25V108H850.5V102.25H832.25V101.75H850.5V96H832.25V95.5ZM857.25 101.75H863V96H857.25V101.75ZM857.25 108H863V102.25H857.25V108ZM857.25 114.25H863V108.5H857.25V114.25ZM857.25 120.5H863V114.75H857.25V120.5ZM863.5 101.75H869.25V96H863.5V101.75ZM863.5 108H869.25V102.25H863.5V108ZM863.5 114.25H869.25V108.5H863.5V114.25ZM863.5 120.5H869.25V114.75H863.5V120.5ZM869.75 101.75H875.5V96H869.75V101.75ZM869.75 108H875.5V102.25H869.75V108ZM869.75 114.25H875.5V108.5H869.75V114.25ZM869.75 120.5H875.5V114.75H869.75V120.5ZM876 101.75H881.75V96H876V101.75ZM876 108H881.75V102.25H876V108ZM876 114.25H881.75V108.5H876V114.25ZM876 120.5H881.75V114.75H876V120.5ZM888.5 95.5H906.75V77.25H907.25V95.5H913V77.25H913.5V95.5H919.25V77.25H919.75V95.5H925.5V77.25H926V95.5H931.75V77.25H932.25V95.5H938V77.25H938.5V127.125H888.5V126.75H906.75V121H888.5V120.5H906.75V114.75H888.5V114.25H906.75V108.5H888.5V108H906.75V102.25H888.5V101.75H906.75V96H888.5V95.5ZM907.25 101.75H913V96H907.25V101.75ZM913.5 108H919.25V102.25H913.5V108ZM913.5 120.5H919.25V114.75H913.5V120.5ZM913.5 126.75H919.25V121H913.5V126.75ZM919.75 108H925.5V102.25H919.75V108ZM919.75 120.5H925.5V114.75H919.75V120.5ZM919.75 126.75H925.5V121H919.75V126.75ZM926 108H931.75V102.25H926V108ZM926 120.5H931.75V114.75H926V120.5ZM926 126.75H931.75V121H926V126.75ZM932.25 101.75H938V96H932.25V101.75ZM944.75 95.5H963V77.25H963.5V95.5H969.25V77.25H969.75V95.5H975.5V77.25H976V95.5H981.75V77.25H982.25V95.5H988V77.25H988.5V95.5H994.25V77.25H994.75V127.125H944.75V126.75H963V121H944.75V120.5H963V114.75H944.75V114.25H963V108.5H944.75V108H963V102.25H944.75V101.75H963V96H944.75V95.5ZM969.75 108H975.5V102.25H969.75V108ZM969.75 120.5H975.5V114.75H969.75V120.5ZM976 108H981.75V102.25H976V108ZM976 120.5H981.75V114.75H976V120.5ZM982.25 108H988V102.25H982.25V108ZM982.25 120.5H988V114.75H982.25V120.5ZM988.5 101.75H994.25V96H988.5V101.75ZM988.5 114.25H994.25V108.5H988.5V114.25ZM988.5 126.75H994.25V121H988.5V126.75Z" fill="url(#paint11_linear_672_655)"/>
<defs>
<linearGradient id="paint0_linear_672_655" x1="0" y1="204" x2="1006.94" y2="-127.694" gradientUnits="userSpaceOnUse">
<stop stop-color="#090213"/>
<stop offset="1" stop-color="#221306"/>
</linearGradient>
<linearGradient id="paint1_linear_672_655" x1="209.249" y1="102" x2="757.563" y2="102" gradientUnits="userSpaceOnUse">
<stop stop-color="#BB6BD9"/>
<stop offset="1" stop-color="#F2994A"/>
</linearGradient>
<linearGradient id="paint2_linear_672_655" x1="209.249" y1="102" x2="757.563" y2="102" gradientUnits="userSpaceOnUse">
<stop stop-color="#BB6BD9"/>
<stop offset="1" stop-color="#F2994A"/>
</linearGradient>
<linearGradient id="paint3_linear_672_655" x1="209.249" y1="102" x2="757.563" y2="102" gradientUnits="userSpaceOnUse">
<stop stop-color="#BB6BD9"/>
<stop offset="1" stop-color="#F2994A"/>
</linearGradient>
<linearGradient id="paint4_linear_672_655" x1="209.249" y1="102" x2="757.563" y2="102" gradientUnits="userSpaceOnUse">
<stop stop-color="#BB6BD9"/>
<stop offset="1" stop-color="#F2994A"/>
</linearGradient>
<linearGradient id="paint5_linear_672_655" x1="209.249" y1="102" x2="757.563" y2="102" gradientUnits="userSpaceOnUse">
<stop stop-color="#BB6BD9"/>
<stop offset="1" stop-color="#F2994A"/>
</linearGradient>
<linearGradient id="paint6_linear_672_655" x1="209.249" y1="102" x2="757.563" y2="102" gradientUnits="userSpaceOnUse">
<stop stop-color="#BB6BD9"/>
<stop offset="1" stop-color="#F2994A"/>
</linearGradient>
<linearGradient id="paint7_linear_672_655" x1="209.249" y1="102" x2="757.563" y2="102" gradientUnits="userSpaceOnUse">
<stop stop-color="#BB6BD9"/>
<stop offset="1" stop-color="#F2994A"/>
</linearGradient>
<linearGradient id="paint8_linear_672_655" x1="209.249" y1="102" x2="757.563" y2="102" gradientUnits="userSpaceOnUse">
<stop stop-color="#BB6BD9"/>
<stop offset="1" stop-color="#F2994A"/>
</linearGradient>
<linearGradient id="paint9_linear_672_655" x1="209.249" y1="102" x2="757.563" y2="102" gradientUnits="userSpaceOnUse">
<stop stop-color="#BB6BD9"/>
<stop offset="1" stop-color="#F2994A"/>
</linearGradient>
<linearGradient id="paint10_linear_672_655" x1="209.249" y1="102" x2="757.563" y2="102" gradientUnits="userSpaceOnUse">
<stop stop-color="#BB6BD9"/>
<stop offset="1" stop-color="#F2994A"/>
</linearGradient>
<linearGradient id="paint11_linear_672_655" x1="768" y1="127" x2="1002.82" y2="82.6146" gradientUnits="userSpaceOnUse">
<stop stop-color="#DC8B47"/>
<stop offset="1" stop-color="#FDCB4C"/>
</linearGradient>
</defs>
</svg>
