<svg width="24" height="24" viewBox="0 0 24 24" fill="none" xmlns="http://www.w3.org/2000/svg">
<path d="M1.7832 0C1.56262 0 1.39827 0.17975 1.41784 0.399445L3.27743 21.2578C3.297 21.4775 3.48686 21.7055 3.69949 21.7646L11.5906 23.9556C11.8032 24.0146 12.151 24.0146 12.3636 23.9557L20.2787 21.7611C20.4913 21.7021 20.6814 21.4741 20.7009 21.2545L22.5636 0.399445C22.5833 0.17975 22.4188 0 22.1982 0H1.7832ZM18.6034 4.7838C18.5858 4.97975 18.5554 5.31992 18.5358 5.53962L18.4868 6.08689C18.4671 6.3065 18.439 6.6206 18.4242 6.78479C18.4094 6.94906 18.3954 7.08341 18.3928 7.08341C18.3903 7.08341 18.2078 7.08341 17.9872 7.08341H12.3918C12.1712 7.08341 11.9889 7.08341 11.9865 7.08341C11.984 7.08341 11.8016 7.08341 11.581 7.08341H8.63408C8.41351 7.08341 8.24916 7.26317 8.26873 7.48286L8.44062 9.40429C8.46019 9.6239 8.65678 9.80373 8.87736 9.80373H11.5811C11.8017 9.80373 11.9841 9.80373 11.9865 9.80373C11.9889 9.80373 12.1713 9.80373 12.3918 9.80373H17.0391C17.2597 9.80373 17.6011 9.80373 17.7977 9.80373C17.9941 9.80373 18.1404 9.96407 18.1226 10.16C18.1047 10.356 18.0741 10.6962 18.0546 10.9158L17.5018 17.1103C17.4821 17.33 17.4572 17.6106 17.4464 17.734C17.4354 17.8573 17.2526 18.0064 17.0401 18.0654L12.3772 19.3583C12.1647 19.4171 11.9881 19.4659 11.9848 19.4666C11.9815 19.4673 11.8049 19.4196 11.5923 19.3607L6.92449 18.0654C6.71193 18.0065 6.522 17.7784 6.50243 17.5587L6.20196 14.1863C6.18239 13.9666 6.3469 13.7869 6.56748 13.7869H6.99347C7.21405 13.7869 7.57499 13.7869 7.79557 13.7869H8.43083C8.65141 13.7869 8.84784 13.9666 8.86757 14.1863L8.9854 15.5065C9.00497 15.7262 9.19515 15.9529 9.40819 16.0105L11.5916 16.6001C11.8045 16.6576 11.9795 16.7047 11.9804 16.7047C11.9814 16.7047 12.1563 16.6575 12.3693 16.6L14.5566 16.0089C14.7695 15.9514 14.9598 15.7246 14.9796 15.505L15.2167 12.86C15.2365 12.6403 15.0721 12.4605 14.8516 12.4605H12.3918C12.1713 12.4605 11.9889 12.4605 11.9865 12.4605C11.9841 12.4605 11.8017 12.4605 11.5811 12.4605H6.44853C6.22795 12.4605 6.03151 12.2807 6.01194 12.0611L5.42994 5.53954C5.41037 5.31984 5.37997 4.97975 5.3624 4.78372C5.345 4.58776 5.51111 4.42743 5.73169 4.42743H11.5811C11.8017 4.42743 11.9841 4.42743 11.9865 4.42743C11.9889 4.42743 12.1713 4.42743 12.3918 4.42743H18.2342C18.4547 4.42743 18.6209 4.58776 18.6034 4.7838Z" fill="#FF5353"/>
</svg>
