<svg width="24" height="24" viewBox="0 0 24 24" fill="none" xmlns="http://www.w3.org/2000/svg">
<path d="M19.7143 6C19.7143 6.94677 18.9468 7.71429 18 7.71429C17.0532 7.71429 16.2857 6.94677 16.2857 6C16.2857 5.05323 17.0532 4.28571 18 4.28571C18.9468 4.28571 19.7143 5.05323 19.7143 6Z" fill="#27AE5D"/>
<path fill-rule="evenodd" clip-rule="evenodd" d="M19.7143 0C22.0812 0 24 1.91878 24 4.28571V19.7143C24 22.0812 22.0812 24 19.7143 24H4.28571C1.91878 24 0 22.0812 0 19.7143V4.28571C0 1.91878 1.91878 0 4.28571 0H19.7143ZM18 1.71429H6C2.57143 1.71429 1.71429 2.57143 1.71429 6V13.7143L7.71429 8.57143L13.7143 15.4286L17.1429 12L22.2857 17.1429V6C22.2857 2.57143 21.4286 1.71429 18 1.71429ZM19.7143 6C19.7143 6.94677 18.9468 7.71429 18 7.71429C17.0532 7.71429 16.2857 6.94677 16.2857 6C16.2857 5.05323 17.0532 4.28571 18 4.28571C18.9468 4.28571 19.7143 5.05323 19.7143 6Z" fill="#27AE5D"/>
</svg>
