<svg width="24" height="24" viewBox="0 0 24 24" fill="none" xmlns="http://www.w3.org/2000/svg">
<path d="M14.0092 11.9819C14.0092 10.9061 13.1097 10.0339 12 10.0339C10.8905 10.0339 9.99084 10.9061 9.99084 11.9819C9.99084 13.0579 10.8905 13.93 12 13.93C13.1097 13.93 14.0092 13.0579 14.0092 11.9819Z" fill="#53C1DE"/>
<path fill-rule="evenodd" clip-rule="evenodd" d="M18.9603 8.11296C19.4129 6.32982 19.9818 3.02318 17.9763 1.90212C15.9802 0.785955 13.3827 2.92474 12.0111 4.20854C10.6435 2.93753 7.97304 0.807891 5.9693 1.93251C3.97401 3.05242 4.58931 6.30424 5.05192 8.09856C3.19065 8.61112 0 9.71511 0 11.9707C0 14.2199 3.18733 15.421 5.03758 15.9331C4.57326 17.7374 3.98877 20.9427 5.98662 22.0602C7.99784 23.1846 10.66 21.1056 12.0443 19.8078C13.4247 21.0991 15.9973 23.1917 17.9938 22.0711C19.9965 20.947 19.4749 17.6847 19.0122 15.88C20.8058 15.3668 24 14.1918 24 11.9707C24 9.73679 20.7922 8.62384 18.9603 8.11296ZM18.733 14.9236C18.4292 13.9913 18.0192 12.9998 17.5177 11.9757C17.9964 10.9757 18.3905 9.99703 18.6858 9.07071C20.0287 9.44823 22.9748 10.311 22.9748 11.9707C22.9748 13.646 20.1477 14.517 18.733 14.9236ZM17.48 21.2108C15.9904 22.0468 13.7777 20.0457 12.7582 19.0947C13.4346 18.3775 14.1104 17.5438 14.77 16.6179C15.9303 16.5182 17.0264 16.355 18.0205 16.1322C18.3461 17.4087 18.9762 20.371 17.48 21.2108ZM6.4989 21.1989C5.00914 20.366 5.69006 17.5057 6.03166 16.1766C7.01467 16.3875 8.10288 16.5392 9.26592 16.6306C9.92984 17.5366 10.6253 18.3693 11.3261 19.0986C10.4602 19.9106 7.9956 22.0356 6.4989 21.1989ZM1.02519 11.9707C1.02519 10.2892 3.95366 9.43263 5.32723 9.05607C5.62761 10.0032 6.02156 10.9935 6.49698 11.995C6.0154 13.0113 5.61582 14.0173 5.31268 14.9756C4.00295 14.6121 1.02519 13.6533 1.02519 11.9707ZM6.48296 2.79283C7.9788 1.95332 10.2998 3.99786 11.2927 4.9181C10.5955 5.64403 9.90648 6.47047 9.24824 7.37119C8.11952 7.47263 7.039 7.63552 6.04567 7.85376C5.673 6.40656 4.98874 3.63143 6.48296 2.79283ZM15.5034 8.45168C16.2692 8.54536 17.0029 8.67 17.6918 8.82248C17.485 9.46519 17.2272 10.1373 16.9236 10.8262C16.4835 10.0166 16.0111 9.22327 15.5034 8.45168ZM12.0114 5.62848C12.4843 6.12517 12.9579 6.67983 13.4238 7.28159C12.4788 7.23823 11.5322 7.23807 10.5872 7.28095C11.0535 6.68478 11.5312 6.13094 12.0114 5.62848ZM7.0852 10.8255C6.78663 10.139 6.53118 9.46392 6.32258 8.812C7.00734 8.66344 7.7376 8.54199 8.4984 8.44983C7.98928 9.21975 7.51768 10.0128 7.0852 10.8255ZM8.52024 15.5626C7.73432 15.4775 6.99301 15.3622 6.30845 15.2178C6.52035 14.5544 6.78142 13.8648 7.08637 13.1634C7.5248 13.9846 8.0036 14.7854 8.52024 15.5626ZM12.0398 18.3832C11.5539 17.8748 11.0692 17.3125 10.5958 16.7077C11.5462 16.7438 12.4985 16.7439 13.4488 16.7028C12.9814 17.3186 12.5095 17.8818 12.0398 18.3832ZM16.9334 13.1278C17.2542 13.8367 17.5246 14.5226 17.7394 15.1747C17.0434 15.3287 16.2922 15.4527 15.5006 15.5448C16.012 14.7586 16.4919 13.9529 16.9334 13.1278ZM14.1978 15.6653C12.7441 15.766 11.2813 15.7649 9.82704 15.6735C9.00072 14.5032 8.26512 13.2724 7.63016 11.9946C8.26208 10.7195 8.99232 9.49112 9.81472 8.32264C11.27 8.216 12.7342 8.21568 14.1895 8.32328C15.0049 9.49168 15.734 10.7169 16.3806 11.9805C15.7417 13.255 15.0076 14.4858 14.1978 15.6653ZM17.4642 2.76328C18.9605 3.60003 18.2945 6.5718 17.9676 7.86407C16.9719 7.64127 15.8906 7.47551 14.7586 7.37247C14.0991 6.46203 13.4158 5.63414 12.7299 4.91759C13.7356 3.97752 15.9825 1.93471 17.4642 2.76328Z" fill="#53C1DE"/>
</svg>
