<svg width="24" height="24" viewBox="0 0 24 24" fill="none" xmlns="http://www.w3.org/2000/svg">
<path d="M11.9994 0C9.62602 0 7.30593 0.703787 5.33254 2.02236C3.35916 3.34094 1.8211 5.21507 0.912841 7.4078C0.00458655 9.60047 -0.233049 12.0133 0.22997 14.3411C0.69299 16.6688 1.83588 18.807 3.51411 20.4853C5.19234 22.1635 7.33053 23.3064 9.6583 23.7695C11.9861 24.2324 14.3989 23.9948 16.5915 23.0865C18.7843 22.1783 20.6584 20.6402 21.977 18.6668C23.2956 16.6934 23.9994 14.3733 23.9994 12C23.9994 10.4241 23.6889 8.86369 23.0859 7.4078C22.4829 5.95189 21.599 4.62902 20.4847 3.51471C19.3704 2.40042 18.0475 1.5165 16.5915 0.913439C15.1357 0.310392 13.5752 0 11.9994 0ZM10.1154 23.844V21.444C10.103 21.0386 9.97426 20.6455 9.74446 20.3114C9.5146 19.9773 9.19347 19.7165 8.81938 19.56C7.45354 18.9849 6.26914 18.0505 5.39224 16.8558C4.51536 15.6612 3.97877 14.2511 3.83961 12.7757C3.70045 11.3003 3.96392 9.81479 4.60197 8.47723C5.24002 7.13968 6.22879 6.00016 7.46305 5.17993C8.69729 4.3597 10.1309 3.88946 11.6111 3.81926C13.0914 3.74905 14.5631 4.08151 15.8694 4.78125C17.1757 5.48098 18.2678 6.52181 19.0296 7.79297C19.7914 9.06413 20.1943 10.518 20.1954 12C20.1954 17.316 16.0674 22.332 10.1154 23.844Z" fill="white" fill-opacity="0.94902"/>
</svg>
