<svg width="48" height="24" viewBox="0 0 48 24" fill="none" xmlns="http://www.w3.org/2000/svg">
<g clip-path="url(#clip0_43_2887)">
<path d="M28.763 20.4401C26.8371 20.5281 27.0331 19.5222 28.159 17.9722C30.7989 14.4364 35.7987 9.50057 35.9707 6.00871C36.2727 1.44289 31.6849 -0.0430538 26.9691 0.000944424C23.6792 0.0449427 20.2813 0.984906 17.9674 1.81287C9.98175 4.63076 4.95995 9.15258 1.80007 14.1524C-1.5538 19.1082 -0.449842 23.846 6.62588 24C12.0577 23.782 15.5855 22.2761 19.2654 20.3961C19.2854 20.3961 9.09378 23.302 5.34993 21.1621L5.33393 21.1581C4.94795 20.9381 4.52596 20.6301 4.41997 19.7922C4.39597 18.0222 7.33985 16.1883 8.98579 15.5983V12.5325C10.2322 13.0176 11.5582 13.2658 12.8956 13.2644C15.4364 13.2677 17.8962 12.3715 19.8394 10.7345C19.9134 10.9945 19.9514 11.2905 19.9274 11.6285H20.6693C20.7653 10.8405 20.3253 10.2165 20.3253 10.2165C19.6594 9.15858 18.4954 9.17658 18.4954 9.17658C18.4954 9.17658 19.1254 9.45057 19.5534 10.1085C18.2797 11.1773 16.7574 11.9082 15.127 12.2339C13.4965 12.5597 11.8103 12.4698 10.2237 11.9725L12.6436 9.57257L11.9717 7.82464C16.8415 6.1207 20.9313 4.81076 27.5951 3.6548L26.1031 2.40685L26.8811 1.92687C30.9009 3.06282 33.5308 3.89679 33.3868 6.02871C33.3019 6.45081 33.1662 6.8611 32.9828 7.25066C31.8149 9.56657 28.331 13.4304 26.9251 15.0464C25.9951 16.1163 25.0852 17.1663 24.4352 18.1702C23.7652 19.1762 23.3552 20.1122 23.3332 21.0101C23.4192 28.0178 44.0004 17.7302 47.9803 15.0044C42.0945 17.5363 35.7547 19.9822 28.763 20.4401Z" fill="white" fill-opacity="0.94902"/>
</g>
<defs>
<clipPath id="clip0_43_2887">
<rect width="48" height="24" fill="white" transform="translate(-0.00915527)"/>
</clipPath>
</defs>
</svg>
