<svg width="24" height="24" viewBox="0 0 24 24" fill="none" xmlns="http://www.w3.org/2000/svg">
<path fill-rule="evenodd" clip-rule="evenodd" d="M20.5114 19.4326C20.3895 19.4326 20.2676 19.4607 20.155 19.517C20.0237 19.5733 19.8924 19.6295 19.7705 19.6764L19.5923 19.7515L19.3578 19.8453C16.7787 20.8863 14.0777 21.5053 11.5735 21.5522C11.4798 21.5522 11.386 21.5522 11.3016 21.5522C7.36253 21.5522 4.15502 19.7233 0.910006 17.932C0.797462 17.8757 0.684918 17.8382 0.572374 17.8382C0.422316 17.8382 0.281635 17.8945 0.169091 17.9977C0.0565475 18.1008 -0.00910277 18.2509 0.000275896 18.4009C0.000275896 18.5979 0.103441 18.7761 0.2535 18.898C3.29219 21.5428 6.63099 23.9906 11.114 24C11.1984 24 11.2922 24 11.3766 24C14.2277 23.9343 17.454 22.9683 19.9581 21.4021L19.9768 21.3927C20.3051 21.1958 20.6333 20.9707 20.9428 20.7268C21.1304 20.5862 21.2711 20.3611 21.2711 20.1266C21.2336 19.714 20.8866 19.4326 20.5114 19.4326Z" fill="white" fill-opacity="0.94902"/>
<path fill-rule="evenodd" clip-rule="evenodd" d="M23.9815 17.9789C23.9722 17.7257 23.9159 17.5381 23.8127 17.3787L23.8033 17.3599L23.794 17.3411C23.6908 17.2286 23.5876 17.1817 23.4751 17.1348C23.1468 17.0129 22.6685 16.9379 22.0964 16.9379C21.6838 16.9379 21.2242 16.9754 20.7646 17.0785V17.0504L20.3051 17.2005H20.2957L20.0331 17.2849V17.2943C19.7236 17.4256 19.4516 17.5756 19.189 17.7632C19.0296 17.8851 18.8983 18.0445 18.8889 18.2884C18.8889 18.4197 18.9546 18.5698 19.0671 18.6635C19.1797 18.7573 19.311 18.7855 19.4235 18.7855C19.4516 18.7855 19.4798 18.7855 19.4985 18.7761H19.5173H19.536C19.7611 18.7292 20.0894 18.7011 20.4739 18.6448C20.8022 18.6073 21.1586 18.5791 21.4587 18.5791C21.6744 18.5791 21.8713 18.5885 22.0026 18.626C22.0683 18.6354 22.1152 18.6542 22.1433 18.6729C22.1527 18.6729 22.1621 18.6823 22.1621 18.6823C22.1714 18.7011 22.1714 18.7479 22.1714 18.8136C22.1714 19.0668 22.0683 19.5358 21.9182 19.9953C21.7775 20.4549 21.5993 20.9144 21.4868 21.2239C21.4587 21.2989 21.4399 21.374 21.4399 21.4584C21.4399 21.5803 21.4868 21.7304 21.59 21.8335C21.6931 21.9367 21.8338 21.9742 21.9464 21.9742H21.9557C22.1246 21.9742 22.2746 21.9086 22.3965 21.8054C23.5689 20.755 23.9722 19.0668 23.9909 18.1196L23.9815 17.9789Z" fill="white" fill-opacity="0.94902"/>
<path fill-rule="evenodd" clip-rule="evenodd" d="M13.2617 6.67761C12.5771 6.73388 11.7799 6.78077 10.9827 6.88394C9.76345 7.04338 8.54423 7.25909 7.54071 7.7374C5.58057 8.53458 4.25818 10.2227 4.25818 12.7175C4.25818 15.8406 6.27459 17.4349 8.81621 17.4349C9.66029 17.4349 10.3543 17.3318 10.9827 17.1723C11.9956 16.8535 12.8397 16.272 13.8432 15.2122C14.4247 16.0094 14.5841 16.3751 15.5876 17.2286C15.8502 17.3318 16.1222 17.3318 16.3285 17.1723C16.9663 16.6378 18.0823 15.6905 18.6638 15.1559C18.9264 14.9402 18.8795 14.6213 18.7201 14.3587C18.1386 13.6178 17.5571 12.9801 17.5571 11.5451V6.78078C17.5571 4.76436 17.7166 2.91676 16.2347 1.5381C15.0155 0.422039 13.1116 0 11.6204 0H10.9827C8.28163 0.159437 5.42113 1.32239 4.78338 4.6612C4.68022 5.08324 4.99909 5.24267 5.20542 5.29895L8.16908 5.67409C8.48796 5.61782 8.64739 5.35522 8.69429 5.09262C8.95689 3.92966 9.91351 3.3388 10.9733 3.23564H11.189C11.8268 3.23564 12.5114 3.49824 12.8865 4.03283C13.3086 4.67057 13.2617 5.51466 13.2617 6.25557V6.67761ZM12.6802 12.9801C12.3051 13.721 11.6767 14.1993 10.9827 14.3587C10.8795 14.3587 10.7201 14.415 10.5606 14.415C9.39769 14.415 8.70367 13.5147 8.70367 12.1923C8.70367 10.4947 9.70718 9.69754 10.9827 9.33177C11.6673 9.17233 12.4645 9.11606 13.2617 9.11606V9.75381C13.2617 10.973 13.318 11.9203 12.6802 12.9801Z" fill="white" fill-opacity="0.94902"/>
</svg>
