<svg width="24" height="24" viewBox="0 0 24 24" fill="none" xmlns="http://www.w3.org/2000/svg">
<path fill-rule="evenodd" clip-rule="evenodd" d="M11.9994 0C5.37466 0 -0.000610352 5.37527 -0.000610352 12C-0.000610352 18.6248 5.37466 24 11.9994 24C18.6111 24 23.9994 18.6248 23.9994 12C23.9994 5.37527 18.6111 0 11.9994 0ZM19.9256 5.53145C21.3573 7.27549 22.2163 9.50107 22.2424 11.9089C21.904 11.8438 18.52 11.154 15.11 11.5835C15.0319 11.4143 14.9668 11.2321 14.8888 11.0499C14.6805 10.5554 14.4463 10.0477 14.212 9.56617C17.9863 8.0304 19.7044 5.81779 19.9256 5.53145ZM11.9994 1.77007C14.6024 1.77007 16.9842 2.74621 18.7933 4.34708C18.6111 4.60738 17.0623 6.67679 13.418 8.04337C11.7391 4.95878 9.87794 2.43384 9.59159 2.04338C10.3594 1.86117 11.1664 1.77007 11.9994 1.77007ZM7.63934 2.73319C7.91264 3.09761 9.73476 5.63558 11.4397 8.65508C6.65015 9.9306 2.42022 9.90458 1.96468 9.90458C2.62845 6.72885 4.77596 4.08676 7.63934 2.73319ZM1.74342 12.0131C1.74342 11.9089 1.74342 11.8048 1.74342 11.7007C2.18594 11.7136 7.15774 11.7787 12.2727 10.243C12.5721 10.8156 12.8454 11.4013 13.1057 11.987C12.9755 12.026 12.8323 12.0651 12.7022 12.1041C7.41804 13.8091 4.60677 18.4685 4.37249 18.859C2.74559 17.0499 1.74342 14.6421 1.74342 12.0131ZM11.9994 22.256C9.63059 22.256 7.44408 21.449 5.71305 20.0954C5.89527 19.718 7.97766 15.7094 13.7564 13.692C13.7824 13.679 13.7955 13.679 13.8215 13.666C15.2662 17.4013 15.8519 20.5379 16.0081 21.436C14.7716 21.9696 13.418 22.256 11.9994 22.256ZM17.713 20.4989C17.6089 19.8742 17.0623 16.8807 15.7217 13.1974C18.9365 12.6898 21.7477 13.5228 22.0992 13.6399C21.6567 16.4902 20.0167 18.9501 17.713 20.4989Z" fill="black" fill-opacity="0.85098"/>
</svg>
