<svg width="24" height="24" viewBox="0 0 24 24" fill="none" xmlns="http://www.w3.org/2000/svg">
<g clip-path="url(#clip0_55_3098)">
<path d="M21.5886 4.35488C21.5886 2.81928 19.3062 2.64448 19.3062 2.64448L13.9476 2.30016C13.9476 2.30016 13.8363 0.817683 12.7507 0.304003C12.142 0.0127228 10.2517 -0.0190372 8.47769 0.0075228C8.06993 0.0127228 7.74169 0.346243 7.74169 0.754083V4.16408C7.74169 4.72008 7.29169 5.17016 6.73561 5.17016H3.50001C2.65297 5.17016 1.99097 5.49856 1.99097 6.19752C1.99097 6.89648 2.98641 14.3946 4.36305 15.7658C5.15737 16.5602 10.0238 17.1745 11.0511 17.1745C12.0784 17.1745 11.7341 14.1242 12.0202 14.1242C12.3059 14.1242 12.6185 15.8772 14.2335 16.285C15.8484 16.6926 18.0036 16.6238 18.1149 17.794C18.2632 19.3349 18.4008 21.3313 17.4 21.4689L15.1441 21.5641C14.477 21.5641 14.5563 19.7319 14.6941 19.7319C14.9219 19.7319 15.1124 19.7268 15.2659 19.7268C15.5202 19.7215 15.7267 19.5151 15.7373 19.2607L15.7798 18.3076C15.7902 18.0324 15.5732 17.7994 15.2979 17.7994C14.3129 17.7834 12.2212 17.9793 12.1102 19.8327C11.9724 22.0567 12.3486 23.1 12.6238 23.3275C12.899 23.5554 13.3758 24.0001 17.7126 24.0001C23.8338 24 21.5886 5.89048 21.5886 4.35488ZM18.6178 11.7416C18.4644 11.8846 17.8024 11.3233 17.2783 11.3233C16.7539 11.3233 16.3039 11.7521 16.1662 11.5882C16.0338 11.4291 16.288 10.1265 17.2783 10.1265C18.2683 10.1265 18.7714 11.5986 18.6178 11.7416Z" fill="black" fill-opacity="0.85098"/>
<path d="M5.8777 0.627046L3.19834 3.38049C2.9865 3.59753 3.14002 3.95753 3.44178 3.95753H6.1213C6.31202 3.95753 6.46026 3.80409 6.46026 3.61881V0.865286C6.46522 0.558166 6.09474 0.404566 5.8777 0.627046Z" fill="black" fill-opacity="0.85098"/>
</g>
<defs>
<clipPath id="clip0_55_3098">
<rect width="24" height="24" fill="white" transform="translate(-0.00927734)"/>
</clipPath>
</defs>
</svg>
