<svg width="24" height="24" viewBox="0 0 24 24" fill="none" xmlns="http://www.w3.org/2000/svg">
<g clip-path="url(#clip0_55_3115)">
<path d="M9.59927 8.1788L14.0007 1.80168C14.8324 0.60112 15.9066 0 17.224 0C18.2983 0 19.2278 0.38176 20.0136 1.14336C20.799 1.9064 21.192 2.8188 21.192 3.8816C21.192 4.66736 20.984 5.36032 20.5682 5.96152L16.5998 11.7314L21.4518 17.8829C21.937 18.4957 22.1797 19.2118 22.1797 20.0314C22.1797 21.1178 21.7984 22.0503 21.036 22.8303C20.2734 23.6103 19.3492 24.0001 18.2633 24.0001C17.0734 24.0001 16.1669 23.6134 15.543 22.8388L9.59919 15.4226V19.512C9.59919 20.679 9.39703 21.5857 8.99279 22.2328C8.25343 23.4109 7.17911 24 5.76967 24C4.48759 24 3.49375 23.567 2.78911 22.7005C2.13063 21.9031 1.80151 20.8462 1.80151 19.5293V4.3664C1.80151 3.11944 2.13647 2.09112 2.80647 1.28256C3.51111 0.42768 4.48127 0 5.71767 0C6.89591 0 7.87783 0.42768 8.66359 1.28256C9.10247 1.75664 9.37959 2.2356 9.49527 2.72072C9.56447 3.02088 9.59919 3.58096 9.59919 4.4016L9.59927 8.1788Z" fill="white" fill-opacity="0.94902"/>
</g>
<defs>
<clipPath id="clip0_55_3115">
<rect width="24" height="24" fill="white" transform="translate(-0.00927734)"/>
</clipPath>
</defs>
</svg>
