<svg width="24" height="24" viewBox="0 0 24 24" fill="none" xmlns="http://www.w3.org/2000/svg">
<path fill-rule="evenodd" clip-rule="evenodd" d="M0 11.6397C0 4.95286 5.24086 0 11.9997 0C18.7585 0 23.9993 4.95586 23.9993 11.6427C23.9993 18.3295 18.7585 23.2824 11.9997 23.2824C10.7847 23.2824 9.62074 23.1204 8.52577 22.8204C8.31277 22.7634 8.08478 22.7784 7.88378 22.8684L5.50185 23.9183C5.35799 23.9818 5.20075 24.009 5.04394 23.9974C4.88713 23.9859 4.73556 23.936 4.60254 23.8521C4.46952 23.7683 4.35914 23.6531 4.28108 23.5166C4.20303 23.3801 4.15969 23.2265 4.15489 23.0694L4.08889 20.9334C4.08289 20.6694 3.96289 20.4234 3.7679 20.2494C1.43396 18.1615 0 15.1376 0 11.6397ZM8.31878 9.45274L4.79388 15.0446C4.45489 15.5816 5.11487 16.1846 5.61886 15.8006L9.40475 12.9266C9.52932 12.832 9.68131 12.7806 9.83774 12.78C9.99416 12.7795 10.1465 12.8299 10.2717 12.9236L13.0767 15.0266C13.2756 15.176 13.5034 15.2825 13.7456 15.3395C13.9878 15.3964 14.2392 15.4026 14.4838 15.3575C14.7285 15.3124 14.9612 15.217 15.1672 15.0774C15.3732 14.9379 15.548 14.7571 15.6806 14.5466L19.2085 8.95776C19.5445 8.42077 18.8845 7.81479 18.3805 8.19878L14.5946 11.0727C14.47 11.1673 14.318 11.2188 14.1616 11.2193C14.0052 11.2199 13.8529 11.1694 13.7276 11.0757L10.9227 8.97276C10.7238 8.82334 10.496 8.7168 10.2538 8.65985C10.0116 8.6029 9.76021 8.59678 9.51552 8.64189C9.27083 8.68699 9.03815 8.78234 8.83217 8.9219C8.62619 9.06146 8.45138 9.24221 8.31878 9.45274Z" fill="black" fill-opacity="0.85098"/>
</svg>
