<svg width="24" height="24" viewBox="0 0 24 24" fill="none" xmlns="http://www.w3.org/2000/svg">
<g clip-path="url(#clip0_55_3121)">
<path d="M15.3777 10.21C15.3777 10.197 15.3787 10.181 15.3787 10.165C15.3787 9.679 15.1747 9.24 14.8467 8.931L14.8457 8.93C14.5277 8.616 14.0907 8.422 13.6087 8.422C13.6007 8.422 13.5937 8.422 13.5867 8.422H10.2007V12.003H13.5877H13.6027C14.0917 12.003 14.5327 11.799 14.8457 11.472L14.8467 11.471C15.1747 11.157 15.3787 10.716 15.3787 10.227C15.3787 10.221 15.3787 10.215 15.3787 10.209L15.3777 10.21ZM23.9907 12C23.9907 11.977 23.9907 11.95 23.9907 11.923C23.9907 9.738 23.3887 7.694 22.3407 5.947L22.3697 6C21.2947 4.176 19.8147 2.696 18.0467 1.652L17.9907 1.621C16.2967 0.602 14.2527 0 12.0677 0C12.0407 0 12.0137 0 11.9867 0H11.9907C11.9677 0 11.9407 0 11.9137 0C9.72872 0 7.68472 0.602 5.93772 1.65L5.99072 1.621C4.16672 2.696 2.68672 4.176 1.64272 5.944L1.61172 6C0.592723 7.694 -0.00927734 9.738 -0.00927734 11.923V12.004V12V12.077C-0.00927734 14.262 0.592723 16.306 1.64072 18.053L1.61172 18C2.68672 19.824 4.16672 21.304 5.93472 22.348L5.99072 22.379C7.68472 23.398 9.72872 24 11.9137 24H11.9947H11.9907H12.0677C14.2527 24 16.2967 23.398 18.0437 22.35L17.9907 22.379C19.8147 21.304 21.2947 19.824 22.3387 18.056L22.3697 18C23.3887 16.306 23.9907 14.262 23.9907 12.077C23.9907 12.05 23.9907 12.023 23.9907 11.996V12ZM17.7967 10.21V10.273C17.7967 11.416 17.3237 12.448 16.5637 13.185L16.5627 13.186C15.8247 13.947 14.7927 14.42 13.6497 14.42C13.6277 14.42 13.6057 14.42 13.5837 14.419H13.5867H10.1997V18H7.78072V6H13.5867C13.6057 6 13.6287 5.999 13.6507 5.999C14.7927 5.999 15.8247 6.471 16.5617 7.231L16.5627 7.232C17.3237 7.97 17.7967 9.002 17.7967 10.145C17.7967 10.168 17.7967 10.19 17.7957 10.213L17.7967 10.21Z" fill="black" fill-opacity="0.85098"/>
</g>
<defs>
<clipPath id="clip0_55_3121">
<rect width="24" height="24" fill="white" transform="translate(-0.00927734)"/>
</clipPath>
</defs>
</svg>
