<svg width="24" height="24" viewBox="0 0 24 24" fill="none" xmlns="http://www.w3.org/2000/svg">
<g clip-path="url(#clip0_55_3095)">
<path d="M6.97739 20.5028C6.97739 18.5892 5.42088 17.0323 3.50769 17.0323C1.59427 17.0323 0.0375977 18.5892 0.0375977 20.5028C0.0375977 22.4162 1.59427 23.9727 3.50769 23.9727C5.42088 23.9727 6.97739 22.4162 6.97739 20.5028Z" fill="white" fill-opacity="0.94902"/>
<path d="M0.427946 13.1172C3.21202 13.1172 5.83042 14.2061 7.80067 16.1834C9.77099 18.164 10.8562 20.8013 10.8562 23.6094C10.8562 23.8233 11.0294 23.9965 11.2433 23.9965H15.6938C15.9076 23.9965 16.0809 23.8233 16.0809 23.6094C16.0809 14.9422 9.05904 7.89089 0.427868 7.89089C0.214036 7.89089 0.0407715 8.06416 0.0407715 8.27799V12.73C0.0408489 12.9438 0.214191 13.1172 0.427946 13.1172Z" fill="white" fill-opacity="0.94902"/>
<path d="M0.433972 0C0.220139 0 0.046875 0.173265 0.046875 0.387097V4.83832C0.046875 5.05215 0.220139 5.22542 0.433972 5.22542C10.5171 5.22542 18.7203 13.474 18.7203 23.6129C18.7203 23.8267 18.8936 24 19.1074 24H23.5568C23.7706 24 23.9439 23.8267 23.9439 23.6129C23.9439 10.5927 13.3974 0 0.433972 0Z" fill="white" fill-opacity="0.94902"/>
</g>
<defs>
<clipPath id="clip0_55_3095">
<rect width="24" height="24" fill="white" transform="translate(-0.00927734)"/>
</clipPath>
</defs>
</svg>
