<svg width="24" height="24" viewBox="0 0 24 24" fill="none" xmlns="http://www.w3.org/2000/svg">
<path d="M19.9234 4.70892C19.9234 4.70892 19.9035 4.60073 19.8421 4.56155C19.7806 4.52236 19.714 4.51477 19.714 4.51477L17.7883 4.37147L16.3714 2.96273C16.3176 2.92177 16.2555 2.89781 16.1925 2.88492C16.0416 2.85567 15.8386 2.89078 15.8012 2.89955L15.0661 3.12703C14.7468 2.18437 14.3106 1.51303 13.7632 1.12472C13.3585 0.838734 12.9126 0.717141 12.4337 0.753375C12.3331 0.619453 12.2223 0.5025 12.1009 0.40425C11.5696 -0.0249844 10.8843 -0.0916407 10.0644 0.205453C7.60561 1.09842 6.5618 4.28494 6.18548 5.87672L4.04255 6.54047C4.04255 6.54047 3.53784 6.68433 3.41944 6.82584C3.28936 6.98138 3.26447 7.40245 3.26447 7.40245L1.44666 21.4222L15.1415 23.9766L22.535 22.3766L19.9234 4.70892ZM12.3342 3.97327L9.96642 4.70602C10.2802 3.47737 10.8831 2.22183 12.0357 1.73236C12.2752 2.35927 12.3412 3.21712 12.3342 3.97327ZM10.3454 0.979734C10.8462 0.797859 11.231 0.806015 11.5205 1.00134C9.97547 1.70602 9.30089 3.48145 9.0097 5.00245L7.11384 5.58956C7.53722 4.05863 8.48194 1.65633 10.3454 0.979734ZM11.6722 11.3118C11.5638 11.2591 11.4357 11.203 11.291 11.1498C11.1474 11.096 10.9875 11.0451 10.8141 11.003C10.6424 10.9609 10.4576 10.927 10.2629 10.9071C10.0699 10.8866 9.86728 10.8802 9.65737 10.8925C9.46472 10.9042 9.29015 10.9387 9.13664 10.9936C8.98401 11.0475 8.85187 11.1223 8.74308 11.2153C8.63433 11.3077 8.54864 11.4182 8.48812 11.5457C8.42817 11.6726 8.39278 11.8153 8.38608 11.9738C8.38083 12.0914 8.39925 12.2036 8.44045 12.3129C8.48166 12.4229 8.5463 12.5305 8.634 12.6369C8.72231 12.7445 8.83401 12.8509 8.96995 12.9597C9.1065 13.0702 9.26766 13.1814 9.45356 13.2977C9.71437 13.465 9.98105 13.6533 10.2345 13.869C10.4918 14.0884 10.7351 14.3357 10.9442 14.6176C11.1559 14.9024 11.3319 15.2217 11.4506 15.5796C11.5699 15.941 11.631 16.3392 11.6118 16.7778C11.5805 17.4953 11.4232 18.114 11.1632 18.6269C10.9065 19.1333 10.5521 19.5309 10.1252 19.8198C9.70772 20.1017 9.22406 20.2765 8.69808 20.3467C8.18728 20.4151 7.63959 20.3847 7.0747 20.2601C7.07058 20.2595 7.06589 20.2578 7.06125 20.2566C7.05684 20.256 7.05244 20.2549 7.04808 20.2543C7.04372 20.2531 7.03931 20.2519 7.03462 20.2508C7.03022 20.2502 7.02581 20.249 7.02117 20.2479C6.75628 20.1836 6.50067 20.1005 6.26062 20.0028C6.02409 19.9075 5.80214 19.7987 5.59983 19.6812C5.40042 19.5649 5.21972 19.4403 5.0633 19.3111C4.90861 19.183 4.77703 19.0515 4.67381 18.9187L5.29687 16.8509C5.40216 16.9398 5.53078 17.041 5.67726 17.1433C5.8252 17.2479 5.99161 17.3544 6.16964 17.4544C6.34973 17.555 6.54216 17.648 6.74011 17.724C6.94069 17.8006 7.14712 17.8602 7.35178 17.89C7.53248 17.9164 7.69387 17.9111 7.83511 17.8795C7.97751 17.8473 8.09883 17.7883 8.1983 17.707C8.29828 17.6269 8.37576 17.5245 8.42986 17.407C8.48395 17.2883 8.51466 17.1555 8.52051 17.0134C8.52694 16.8707 8.51405 16.7368 8.47809 16.607C8.44242 16.4766 8.38397 16.3508 8.30001 16.2246C8.21606 16.0988 8.10731 15.9725 7.96964 15.8421C7.83337 15.7129 7.66992 15.5795 7.47637 15.438C7.23806 15.2602 7.01466 15.0679 6.81441 14.8585C6.61673 14.6515 6.44133 14.4275 6.29775 14.1848C6.15567 13.9439 6.04369 13.6837 5.97117 13.4007C5.89894 13.1194 5.86566 12.8147 5.87962 12.4825C5.90419 11.9276 6.01505 11.4159 6.20072 10.9557C6.38841 10.4902 6.65419 10.0726 6.98751 9.71297C7.32759 9.34631 7.74103 9.03694 8.21761 8.79895C8.70797 8.55389 9.2685 8.382 9.88983 8.30072C10.1781 8.26266 10.4548 8.24512 10.7161 8.244C10.9816 8.24283 11.2311 8.25863 11.4606 8.28788C11.6933 8.31769 11.9053 8.36095 12.0933 8.41416C12.2828 8.46792 12.4471 8.53111 12.5825 8.60011L11.6722 11.3118ZM13.155 3.71948C13.1538 3.62653 13.1515 3.53236 13.148 3.43645C13.1205 2.69962 13.0205 2.07914 12.8503 1.57622C13.0357 1.59492 13.2041 1.65633 13.3579 1.76512C13.7866 2.06864 14.0953 2.6797 14.3129 3.36098L13.155 3.71948Z" fill="white" fill-opacity="0.94902"/>
</svg>
