<svg width="24" height="24" viewBox="0 0 24 24" fill="none" xmlns="http://www.w3.org/2000/svg">
<g clip-path="url(#clip0_43_2867)">
<path d="M23.0314 13.8301C22.6507 13.3038 22.4742 12.661 22.4749 12.0114C22.475 12.0077 22.475 12.0039 22.475 12.0001C22.475 6.2146 17.7849 1.52453 11.9994 1.52453C10.7338 1.52453 9.52108 1.74978 8.3981 2.16144C7.79058 2.38413 7.12505 2.42693 6.5022 2.25147C5.95202 2.0965 5.36431 2.03113 4.75547 2.07303C2.19793 2.24902 0.138964 4.34504 0.00643285 6.90521C-0.0568397 8.1272 0.309626 9.26078 0.967374 10.1699C1.34815 10.6962 1.52462 11.339 1.52384 11.9886C1.52384 11.9924 1.52384 11.9962 1.52384 12C1.52384 17.7855 6.21385 22.4755 11.9994 22.4755C13.2651 22.4755 14.4778 22.2503 15.6007 21.8386C16.2082 21.6159 16.8738 21.5731 17.4966 21.7486C18.0468 21.9036 18.6344 21.9689 19.2433 21.927C21.8009 21.751 23.8598 19.6551 23.9924 17.095C24.0556 15.873 23.6892 14.7393 23.0314 13.8301ZM12.3829 10.122C14.4951 10.6243 17.687 11.3833 17.687 14.8992C17.687 16.6312 16.8341 17.9525 15.2852 18.6195C14.1799 19.0955 12.929 19.1597 11.8511 19.1597C8.53865 19.1597 6.44653 16.5841 6.35907 16.4744C5.81661 15.794 5.92826 14.8026 6.60869 14.2602C7.28894 13.7175 8.28035 13.8294 8.82293 14.5096C8.82778 14.5154 10.0789 15.9523 11.8511 16.0085C13.9851 16.0762 14.4727 15.4413 14.5357 14.8993C14.6128 14.2373 14.0239 13.7514 11.6537 13.1878C9.64464 12.7099 6.60821 11.9879 6.60821 8.74987C6.60821 7.74152 7.01832 4.45147 12.2957 4.45147C15.6281 4.45147 17.595 7.0751 17.6771 7.1868C18.1925 7.88794 18.0421 8.8742 17.3409 9.38954C16.6428 9.90267 15.6628 9.75583 15.1454 9.06318C15.1083 9.01547 13.9824 7.76283 12.2957 7.60271C11.0195 7.48149 9.75945 7.9417 9.75945 8.62153C9.75945 9.34183 10.1213 9.58415 12.3829 10.122Z" fill="white" fill-opacity="0.94902"/>
</g>
<defs>
<clipPath id="clip0_43_2867">
<rect width="24" height="24" fill="white" transform="translate(-0.000610352)"/>
</clipPath>
</defs>
</svg>
