<svg width="24" height="24" viewBox="0 0 24 24" fill="none" xmlns="http://www.w3.org/2000/svg">
<g clip-path="url(#clip0_43_2870)">
<path d="M15.1634 17.6864C13.7714 17.6864 12.6426 16.5576 12.6426 15.1656C12.6426 13.7736 13.7714 12.6448 15.1634 12.6448H21.4746C22.8666 12.6448 23.9954 13.7736 23.9954 15.1656C23.9954 16.5576 22.8666 17.6864 21.4746 17.6864H15.1634ZM15.1634 18.9544C16.5546 18.9544 17.6826 20.0824 17.6826 21.4736C17.6826 22.8648 16.5546 23.9928 15.1634 23.9928C13.773 23.9928 12.645 22.8664 12.6442 21.476V18.9544H15.1634ZM17.6858 8.8352C17.6858 10.2272 16.557 11.356 15.165 11.356C13.773 11.356 12.6442 10.2272 12.6442 8.8352V2.5248C12.6442 1.1328 13.773 0.0039978 15.165 0.0039978C16.557 0.0039978 17.6858 1.1328 17.6858 2.5248V8.8352ZM18.9538 8.8352C18.9546 7.4448 20.0818 6.3176 21.4722 6.3176C22.8626 6.3176 23.9906 7.4456 23.9906 8.8368C23.9906 10.2272 22.8642 11.3544 21.4746 11.356H18.953L18.9538 8.8352ZM8.83458 6.3144C10.2234 6.3184 11.3482 7.4448 11.3482 8.8344C11.3482 10.224 10.2234 11.3512 8.83458 11.3544H2.52418C1.13538 11.3504 0.0105787 10.224 0.0105787 8.8344C0.0105787 7.4448 1.13538 6.3176 2.52418 6.3144H8.83458ZM8.83458 5.044C7.44578 5.0424 6.32018 3.916 6.32018 2.5264C6.32018 1.136 7.44738 0.00879784 8.83778 0.00879784C10.2282 0.00879784 11.3538 1.1352 11.3554 2.524V5.0432L8.83458 5.044ZM6.31378 15.164C6.31778 13.7752 7.44418 12.6504 8.83378 12.6504C10.2234 12.6504 11.3506 13.7752 11.3538 15.164V21.4752C11.3498 22.864 10.2234 23.9888 8.83378 23.9888C7.44418 23.9888 6.31698 22.864 6.31378 21.4752V15.164ZM5.04338 15.164C5.04258 16.5536 3.91538 17.68 2.52578 17.68C1.13618 17.68 0.00817871 16.5528 0.00817871 15.1624C0.00817871 13.772 1.13458 12.6456 2.52418 12.6448H5.04338V15.164Z" fill="white" fill-opacity="0.94902"/>
</g>
<defs>
<clipPath id="clip0_43_2870">
<rect width="24" height="24" fill="white" transform="translate(-0.000610352)"/>
</clipPath>
</defs>
</svg>
