<svg width="36" height="18" viewBox="0 0 36 18" fill="none" xmlns="http://www.w3.org/2000/svg">
<g clip-path="url(#clip0_55_3096)">
<path d="M1.72983 16.4801C1.80411 16.4801 1.86699 16.419 1.87767 16.333L2.28147 13.1324L1.87887 9.85908C1.86687 9.77304 1.80411 9.71148 1.72983 9.71148C1.65363 9.71148 1.58871 9.77436 1.57863 9.85908L1.22571 13.1324L1.57863 16.3319C1.58871 16.4178 1.65363 16.4801 1.72983 16.4801Z" fill="white" fill-opacity="0.94902"/>
<path d="M0.398485 15.2628C0.471445 15.2628 0.530605 15.206 0.541285 15.1212L0.854245 13.1323L0.541285 11.1062C0.530485 11.024 0.471445 10.9646 0.398485 10.9646C0.322285 10.9646 0.263245 11.024 0.252445 11.1074L-0.00915527 13.1324L0.252445 15.1207C0.263245 15.2048 0.322285 15.2628 0.398485 15.2628Z" fill="white" fill-opacity="0.94902"/>
<path d="M3.32233 9.24984C3.31273 9.1458 3.23653 9.06984 3.14197 9.06984C3.04813 9.06984 2.97181 9.1458 2.96305 9.24984L2.62573 13.1324L2.96305 16.8733C2.97181 16.9768 3.04813 17.0518 3.14197 17.0518C3.23653 17.0518 3.31273 16.9768 3.32233 16.8733L3.70393 13.1324L3.32233 9.24984Z" fill="white" fill-opacity="0.94902"/>
<path d="M4.56899 17.2025C4.67963 17.2025 4.76915 17.1114 4.77995 16.9924L5.14055 13.1336L4.77995 9.14268C4.76915 9.0228 4.67963 8.9328 4.56899 8.9328C4.45679 8.9328 4.36595 9.02292 4.35827 9.14328L4.03955 13.1336L4.35827 16.9924C4.36595 17.1115 4.45679 17.2025 4.56899 17.2025Z" fill="white" fill-opacity="0.94902"/>
<path d="M6.00616 17.2651C6.13504 17.2651 6.23848 17.1619 6.24916 17.0238L6.24796 17.0248L6.58756 13.1336L6.24796 9.4308C6.23836 9.29496 6.13504 9.1902 6.00604 9.1902C5.87524 9.1902 5.7724 9.29496 5.7646 9.43188L5.46436 13.1338L5.7646 17.0239C5.77252 17.1619 5.87536 17.2651 6.00616 17.2651Z" fill="white" fill-opacity="0.94902"/>
<path d="M8.04675 13.1346L7.72815 7.11396C7.71927 6.96132 7.60035 6.83964 7.45443 6.83964C7.30959 6.83964 7.19103 6.9612 7.18215 7.11396L6.90015 13.1346L7.18215 17.0248C7.19103 17.1781 7.30971 17.2981 7.45443 17.2981C7.60047 17.2981 7.71927 17.1781 7.72815 17.0248V17.0258L8.04675 13.1346Z" fill="white" fill-opacity="0.94902"/>
<path d="M8.91721 17.3045C9.07789 17.3045 9.21121 17.1712 9.21877 17.001V17.0035L9.51661 13.1356L9.21877 5.73684C9.21121 5.56668 9.07789 5.43336 8.91721 5.43336C8.75281 5.43336 8.62069 5.56668 8.61181 5.73684L8.34961 13.1356L8.61301 17.0022C8.62069 17.1712 8.75281 17.3045 8.91721 17.3045Z" fill="white" fill-opacity="0.94902"/>
<path d="M10.3882 4.78476C10.2073 4.78476 10.0612 4.93332 10.0538 5.12064L9.80981 13.1368L10.0538 16.9628C10.0613 17.1492 10.2073 17.2968 10.3882 17.2968C10.5687 17.2968 10.7158 17.1504 10.7222 16.9622V16.9642L10.999 13.1368L10.7222 5.12064C10.7158 4.93212 10.5686 4.78476 10.3882 4.78476Z" fill="white" fill-opacity="0.94902"/>
<path d="M11.872 17.3045C12.0707 17.3045 12.229 17.1442 12.2364 16.9378V16.94L12.4924 13.1369L12.2364 4.85148C12.2288 4.6458 12.0707 4.48476 11.872 4.48476C11.672 4.48476 11.5114 4.6458 11.5082 4.85148L11.2783 13.1369L11.5082 16.94C11.5114 17.1442 11.672 17.3045 11.872 17.3045Z" fill="white" fill-opacity="0.94902"/>
<path d="M13.368 17.3006C13.5824 17.3006 13.7564 17.1251 13.7629 16.9025V16.906L13.9985 13.1375L13.7629 5.0628C13.7564 4.84032 13.5824 4.66548 13.368 4.66548C13.152 4.66548 12.978 4.8402 12.9716 5.0628L12.7646 13.1375L12.973 16.9042C12.978 17.1251 13.152 17.3006 13.368 17.3006Z" fill="white" fill-opacity="0.94902"/>
<path d="M15.5138 13.1375L15.3006 5.35716C15.2954 5.11716 15.1075 4.92864 14.8745 4.92864C14.6408 4.92864 14.4528 5.11716 14.4479 5.35872L14.2566 13.1375L14.4479 16.8812C14.4528 17.1193 14.6407 17.308 14.8745 17.308C15.1074 17.308 15.2954 17.1193 15.3006 16.8778V16.8812L15.5138 13.1375Z" fill="white" fill-opacity="0.94902"/>
<path d="M16.3926 17.3149C16.6403 17.3149 16.8453 17.1089 16.8492 16.8556V16.8576L17.0427 13.1395L16.8492 3.88116C16.8455 3.62688 16.6404 3.4212 16.3926 3.4212C16.145 3.4212 15.9405 3.62784 15.9355 3.88248L15.7634 13.1358L15.9355 16.8577C15.9405 17.1089 16.145 17.3149 16.3926 17.3149Z" fill="white" fill-opacity="0.94902"/>
<path d="M17.9057 2.55024C17.6382 2.55024 17.4213 2.77212 17.4168 3.0426L17.2168 13.1407L17.418 16.8038C17.4213 17.0708 17.6384 17.292 17.9057 17.292C18.1691 17.292 18.3902 17.0707 18.3914 16.7994V16.8038L18.6098 13.1407L18.3914 3.0426C18.3902 2.77116 18.1691 2.55024 17.9057 2.55024Z" fill="white" fill-opacity="0.94902"/>
<path d="M19.2892 17.3184C19.3 17.3194 31.484 17.3251 31.5622 17.3251C34.0084 17.3251 35.9907 15.3185 35.9907 12.8423C35.9907 10.3674 34.0083 8.3604 31.5622 8.3604C30.9551 8.3604 30.3767 8.48448 29.8492 8.70924C29.4986 4.66872 26.1514 1.5 22.0682 1.5C21.07 1.5 20.0967 1.69944 19.237 2.03628C18.9025 2.16708 18.8129 2.30196 18.8103 2.56332V16.788C18.8141 17.0628 19.0237 17.2912 19.2892 17.3184Z" fill="white" fill-opacity="0.94902"/>
</g>
<defs>
<clipPath id="clip0_55_3096">
<rect width="36" height="18" fill="white" transform="translate(-0.00915527)"/>
</clipPath>
</defs>
</svg>
