<svg width="24" height="24" viewBox="0 0 24 24" fill="none" xmlns="http://www.w3.org/2000/svg">
<path d="M18.0671 11.1235C17.9638 11.074 17.8587 11.0263 17.7524 10.9806C17.5671 7.56728 15.702 5.61312 12.5702 5.59312C12.556 5.59304 12.5419 5.59304 12.5278 5.59304C10.6545 5.59304 9.09664 6.39261 8.13775 7.84759L9.86012 9.0291C10.5764 7.94229 11.7006 7.7106 12.5286 7.7106C12.5381 7.7106 12.5477 7.7106 12.5572 7.71069C13.5884 7.71726 14.3665 8.01708 14.8701 8.60175C15.2366 9.02741 15.4817 9.61563 15.6031 10.358C14.6889 10.2026 13.7001 10.1548 12.6431 10.2154C9.66559 10.3869 7.75139 12.1235 7.87995 14.5365C7.94519 15.7605 8.55496 16.8135 9.59688 17.5014C10.4778 18.0829 11.6124 18.3673 12.7915 18.3029C14.3487 18.2175 15.5704 17.6234 16.4226 16.537C17.0699 15.712 17.4792 14.6429 17.66 13.2957C18.4021 13.7436 18.9521 14.333 19.2559 15.0415C19.7724 16.2459 19.8025 18.225 18.1876 19.8385C16.7728 21.252 15.072 21.8635 12.5017 21.8824C9.65052 21.8613 7.49422 20.9469 6.09226 19.1646C4.77944 17.4958 4.10096 15.0852 4.07565 12C4.10096 8.91473 4.77944 6.5042 6.09226 4.83534C7.49422 3.05311 9.65049 2.13875 12.5016 2.11756C15.3735 2.13891 17.5674 3.05767 19.023 4.8485C19.7368 5.7267 20.2749 6.8311 20.6296 8.11879L22.648 7.58028C22.218 5.99528 21.5414 4.62946 20.6206 3.49675C18.7545 1.20084 16.0253 0.0243935 12.5087 0H12.4946C8.9852 0.0243088 6.28651 1.20522 4.47354 3.50991C2.86024 5.5608 2.02805 8.41446 2.00009 11.9916L2 12L2.00009 12.0084C2.02805 15.5855 2.86024 18.4393 4.47354 20.4901C6.28651 22.7948 8.9852 23.9757 12.4946 24H12.5087C15.6288 23.9784 17.828 23.1615 19.6397 21.3514C22.0101 18.9833 21.9387 16.0149 21.1575 14.1926C20.597 12.8859 19.5284 11.8245 18.0671 11.1235ZM12.6801 16.1884C11.3751 16.2619 10.0193 15.6761 9.95245 14.4215C9.9029 13.4913 10.6145 12.4533 12.7601 12.3296C13.0059 12.3154 13.247 12.3085 13.4839 12.3085C14.2633 12.3085 14.9924 12.3842 15.6552 12.5291C15.408 15.6169 13.9577 16.1183 12.6801 16.1884Z" fill="black" fill-opacity="0.85098"/>
</svg>
