<svg width="24" height="24" viewBox="0 0 24 24" fill="none" xmlns="http://www.w3.org/2000/svg">
<g clip-path="url(#clip0_55_3117)">
<path fill-rule="evenodd" clip-rule="evenodd" d="M23.8886 5.50242C24.0677 4.49753 24.0637 3.46425 23.443 2.68281C22.5771 1.58712 20.734 1.5468 19.4713 1.74016C18.4441 1.8972 14.9698 3.43009 13.7876 7.09986C15.8821 6.94066 16.9799 7.25082 16.7784 9.55691C16.694 10.5218 16.2065 11.5788 15.6626 12.5922C15.0341 13.7604 13.856 16.0544 12.3111 14.4008C10.9196 12.9127 11.024 10.0665 10.7059 8.17115C10.5287 7.10778 10.3413 5.78258 9.99292 4.68881C9.69268 3.74825 9.00419 2.61425 8.16219 2.36849C7.25787 2.10272 6.13978 2.51753 5.48322 2.90433C3.39249 4.13289 1.79913 5.88106 -0.00927734 7.32322C0.285124 7.95394 0.445684 8.36259 0.973366 8.43915C2.21825 8.62251 3.40465 7.27898 4.23226 8.67683C4.73578 9.53083 4.89306 10.4673 5.21522 11.3881C5.64618 12.6144 5.9785 13.9497 6.33098 15.3598C6.92715 17.7484 7.66043 21.3174 9.72492 22.1917C10.7782 22.639 12.3615 22.0406 13.1631 21.5652C15.3343 20.2803 17.0262 18.4173 18.4744 16.522C21.7855 12.0363 23.6124 6.95466 23.8886 5.50242Z" fill="white" fill-opacity="0.94902"/>
</g>
<defs>
<clipPath id="clip0_55_3117">
<rect width="24" height="24" fill="white" transform="translate(-0.00927734)"/>
</clipPath>
</defs>
</svg>
