<svg width="32" height="24" viewBox="0 0 32 24" fill="none" xmlns="http://www.w3.org/2000/svg">
<g clip-path="url(#clip0_55_3118)">
<path fill-rule="evenodd" clip-rule="evenodd" d="M27.3654 14.4452C28.4205 15.4753 29.5341 16.4445 30.4804 17.5785C30.8984 18.0824 31.2942 18.6024 31.5969 19.1873C32.0259 20.0186 31.6374 20.9334 30.8919 20.9831L26.2582 20.981C25.063 21.0802 24.1096 20.599 23.308 19.7819C22.6664 19.1284 22.0723 18.4329 21.4554 17.7574C21.2025 17.4813 20.9378 17.2215 20.6216 17.0162C19.989 16.6056 19.4399 16.7313 19.0784 17.391C18.7103 18.062 18.6268 18.8051 18.5906 19.5529C18.541 20.6441 18.2111 20.9309 17.1151 20.9809C14.7727 21.0913 12.5497 20.737 10.4845 19.5553C8.66384 18.5136 7.25198 17.043 6.0231 15.3781C3.63045 12.1363 1.79816 8.574 0.15136 4.91193C-0.21932 4.08686 0.0517664 3.64396 0.962113 3.62829C2.47378 3.59892 3.98524 3.60101 5.49869 3.6262C6.11308 3.63518 6.51981 3.98758 6.75704 4.568C7.5749 6.579 8.57564 8.49228 9.8318 10.2657C10.1663 10.7379 10.5074 11.21 10.9932 11.5424C11.5305 11.9103 11.9397 11.7884 12.1925 11.1898C12.3529 10.8102 12.4231 10.4014 12.4593 9.99486C12.579 8.59626 12.5948 7.20007 12.3848 5.80639C12.2558 4.93659 11.7659 4.37351 10.898 4.20892C10.4551 4.125 10.521 3.9602 10.7355 3.7074C11.1079 3.2714 11.4582 3 12.1565 3H17.3934C18.2178 3.16271 18.4009 3.53308 18.5138 4.36265L18.5183 10.1797C18.5093 10.5009 18.6787 11.4539 19.2571 11.6664C19.7201 11.8177 20.0253 11.4474 20.303 11.1538C21.5569 9.82305 22.4518 8.25035 23.2512 6.62184C23.606 5.90577 23.9111 5.16211 24.2067 4.41908C24.4258 3.86771 24.7695 3.59641 25.3906 3.60843L30.4307 3.61292C30.5802 3.61292 30.7314 3.61512 30.8761 3.63989C31.7255 3.78463 31.9582 4.14998 31.6959 4.97933C31.2826 6.28053 30.4784 7.36488 29.6921 8.45424C28.8516 9.61728 27.9526 10.7405 27.1191 11.9104C26.3533 12.9788 26.4141 13.5173 27.3654 14.4452Z" fill="black" fill-opacity="0.85098"/>
</g>
<defs>
<clipPath id="clip0_55_3118">
<rect width="32" height="24" fill="white" transform="translate(-0.00927734)"/>
</clipPath>
</defs>
</svg>
