<svg width="29" height="24" viewBox="0 0 29 24" fill="none" xmlns="http://www.w3.org/2000/svg">
<g clip-path="url(#clip0_55_3126)">
<path d="M23.1564 14.369C23.4691 14.3649 23.7678 14.2389 23.9889 14.0178C24.2101 13.7967 24.3361 13.498 24.3402 13.1853C24.3402 12.5289 23.8142 12.0016 23.1564 12.0016C22.4987 12.0016 21.9727 12.5289 21.9727 13.1853C21.9727 13.8444 22.5 14.369 23.1564 14.369ZM17.3235 14.369C17.6362 14.3649 17.9349 14.2389 18.156 14.0178C18.3771 13.7967 18.5031 13.498 18.5072 13.1853C18.5072 12.5289 17.9799 12.0016 17.3235 12.0016C16.6644 12.0016 16.1398 12.5289 16.1398 13.1853C16.1398 13.8444 16.6657 14.369 17.3235 14.369ZM25.98 21.0127C25.8955 21.0596 25.8281 21.1321 25.7874 21.2197C25.7466 21.3073 25.7347 21.4056 25.7533 21.5004C25.7533 21.5637 25.7533 21.6283 25.7862 21.6942C25.9154 22.2439 26.1738 23.1191 26.1738 23.1521C26.1738 23.2483 26.2067 23.3129 26.2067 23.3788C26.2067 23.417 26.1992 23.4548 26.1845 23.4901C26.1699 23.5254 26.1484 23.5574 26.1213 23.5843C26.0942 23.6113 26.0621 23.6326 26.0268 23.6471C25.9914 23.6616 25.9536 23.669 25.9154 23.6688C25.8495 23.6688 25.8179 23.6372 25.7533 23.6055L23.8432 22.5035C23.7038 22.4268 23.5487 22.3826 23.3898 22.3744C23.2935 22.3744 23.196 22.3744 23.1314 22.406C22.2245 22.6657 21.2859 22.7949 20.2828 22.7949C15.4583 22.7949 11.5736 19.5561 11.5736 15.5383C11.5736 11.5218 15.4583 8.28168 20.2828 8.28168C25.106 8.28168 28.9907 11.5218 28.9907 15.5383C28.9907 17.7093 27.8254 19.6853 25.98 21.014V21.0127ZM20.6506 6.97141C20.5276 6.96732 20.4046 6.96512 20.2815 6.96482C14.7794 6.96482 10.2554 10.7348 10.2554 15.5396C10.2554 16.2699 10.3609 16.9764 10.556 17.6487H10.4386C9.28688 17.6371 8.14166 17.474 7.03245 17.1636C6.9349 17.1306 6.83736 17.1306 6.73981 17.1306C6.545 17.1348 6.35482 17.1907 6.18881 17.2928L3.88463 18.6175C3.81872 18.6505 3.75413 18.6835 3.68954 18.6835C3.59547 18.6824 3.50554 18.6446 3.43901 18.5781C3.37249 18.5115 3.33466 18.4216 3.33363 18.3275C3.33363 18.23 3.36527 18.1654 3.39822 18.0679C3.42986 18.0362 3.7225 16.9685 3.88463 16.3226C3.88463 16.2567 3.91627 16.1605 3.91627 16.0959C3.91591 15.9829 3.88943 15.8715 3.8389 15.7704C3.78836 15.6693 3.71514 15.5813 3.62495 15.5132C1.38536 13.9275 -0.00927734 11.5679 -0.00927734 8.94736C-0.00927734 4.13204 4.69663 0.25 10.4703 0.25C15.4332 0.25 19.6053 3.10914 20.6506 6.97009V6.97141ZM13.8567 7.52241C14.612 7.52241 15.2091 6.89364 15.2091 6.16995C15.2091 5.41464 14.612 4.8175 13.8567 4.8175C13.1014 4.8175 12.5042 5.41464 12.5042 6.16995C12.5042 6.92527 13.1014 7.52241 13.8567 7.52241ZM6.92304 7.52241C7.67836 7.52241 8.27681 6.89364 8.27681 6.16995C8.27681 5.41464 7.67836 4.8175 6.92304 4.8175C6.16904 4.8175 5.57059 5.41464 5.57059 6.16995C5.57059 6.92527 6.16904 7.52241 6.92304 7.52241Z" fill="black" fill-opacity="0.85098"/>
</g>
<defs>
<clipPath id="clip0_55_3126">
<rect width="29" height="24" fill="white" transform="translate(-0.00927734)"/>
</clipPath>
</defs>
</svg>
