<svg width="24" height="24" viewBox="0 0 24 24" fill="none" xmlns="http://www.w3.org/2000/svg">
<g clip-path="url(#clip0_55_3126)">
<path d="M19.1624 13.9947C19.4211 13.9913 19.6683 13.887 19.8513 13.704C20.0343 13.5211 20.1386 13.2738 20.142 13.0151C20.142 12.4718 19.7067 12.0355 19.1624 12.0355C18.618 12.0355 18.1827 12.4718 18.1827 13.0151C18.1827 13.5605 18.6191 13.9947 19.1624 13.9947ZM14.3351 13.9947C14.5938 13.9913 14.8411 13.887 15.024 13.704C15.207 13.5211 15.3113 13.2738 15.3147 13.0151C15.3147 12.4718 14.8784 12.0355 14.3351 12.0355C13.7896 12.0355 13.3555 12.4718 13.3555 13.0151C13.3555 13.5605 13.7907 13.9947 14.3351 13.9947ZM21.4991 19.4929C21.4292 19.5317 21.3734 19.5917 21.3397 19.6642C21.306 19.7367 21.2961 19.8181 21.3115 19.8965C21.3115 19.9489 21.3115 20.0024 21.3387 20.0569C21.4456 20.5118 21.6595 21.2362 21.6595 21.2635C21.6595 21.3431 21.6867 21.3965 21.6867 21.4511C21.6867 21.4827 21.6805 21.514 21.6684 21.5432C21.6562 21.5724 21.6384 21.5989 21.616 21.6212C21.5936 21.6435 21.5671 21.6611 21.5378 21.6731C21.5086 21.6851 21.4772 21.6912 21.4456 21.6911C21.3911 21.6911 21.3649 21.6649 21.3115 21.6387L19.7307 20.7267C19.6153 20.6632 19.487 20.6266 19.3554 20.6198C19.2758 20.6198 19.1951 20.6198 19.1416 20.646C18.3911 20.8609 17.6144 20.9678 16.7842 20.9678C12.7914 20.9678 9.57654 18.2875 9.57654 14.9624C9.57654 11.6384 12.7914 8.95691 16.7842 8.95691C20.7758 8.95691 23.9907 11.6384 23.9907 14.9624C23.9907 16.7591 23.0264 18.3944 21.4991 19.494V19.4929ZM17.0885 7.87254C16.9868 7.86916 16.8849 7.86734 16.7831 7.86709C12.2296 7.86709 8.48563 10.9871 8.48563 14.9635C8.48563 15.5678 8.57291 16.1525 8.73436 16.7089H8.63727C7.68409 16.6993 6.73633 16.5643 5.81836 16.3075C5.73763 16.2802 5.6569 16.2802 5.57618 16.2802C5.41496 16.2836 5.25756 16.3299 5.12018 16.4144L3.21327 17.5107C3.15872 17.538 3.10527 17.5653 3.05181 17.5653C2.97396 17.5644 2.89953 17.5331 2.84448 17.4781C2.78942 17.423 2.75812 17.3486 2.75727 17.2707C2.75727 17.19 2.78345 17.1365 2.81072 17.0558C2.8369 17.0296 3.07909 16.146 3.21327 15.6115C3.21327 15.5569 3.23945 15.4773 3.23945 15.4238C3.23916 15.3303 3.21724 15.2381 3.17542 15.1545C3.1336 15.0708 3.073 14.998 2.99836 14.9416C1.1449 13.6293 -0.00927734 11.6765 -0.00927734 9.50782C-0.00927734 5.52272 3.88527 2.31 8.66345 2.31C12.7707 2.31 16.2235 4.67618 17.0885 7.87145V7.87254ZM11.466 8.32854C12.0911 8.32854 12.5853 7.80818 12.5853 7.20927C12.5853 6.58418 12.0911 6.09 11.466 6.09C10.8409 6.09 10.3467 6.58418 10.3467 7.20927C10.3467 7.83436 10.8409 8.32854 11.466 8.32854ZM5.72781 8.32854C6.3529 8.32854 6.84818 7.80818 6.84818 7.20927C6.84818 6.58418 6.3529 6.09 5.72781 6.09C5.10381 6.09 4.60854 6.58418 4.60854 7.20927C4.60854 7.83436 5.10381 8.32854 5.72781 8.32854Z" fill="white" fill-opacity="0.94902"/>
</g>
<defs>
<clipPath id="clip0_55_3126">
<rect width="24" height="24" fill="white" transform="translate(-0.00927734)"/>
</clipPath>
</defs>
</svg>
