<svg width="24" height="24" viewBox="0 0 24 24" fill="none" xmlns="http://www.w3.org/2000/svg">
<g clip-path="url(#clip0_43_2895)">
<path d="M12.2064 13.05L8.60645 23.5125C9.68457 23.8313 10.8189 24 12.0002 24C13.3971 24 14.7377 23.7563 15.9846 23.3156C15.9564 23.2594 15.9189 23.2125 15.9002 23.1563L12.2064 13.05Z" fill="white" fill-opacity="0.94902"/>
<path d="M-0.00915527 12C-0.00915527 16.7437 2.7471 20.8594 6.75022 22.8L1.03147 7.11562C0.365845 8.60625 -0.00915527 10.2562 -0.00915527 12Z" fill="white" fill-opacity="0.94902"/>
<path d="M20.0908 11.3906C20.0908 9.90937 19.5564 8.87813 19.0971 8.08125C18.4877 7.09688 17.9158 6.25313 17.9158 5.26875C17.9158 4.1625 18.7502 3.14062 19.9314 3.14062C19.9783 3.14062 20.0346 3.15 20.0814 3.15C17.9439 1.19063 15.1033 0 11.9814 0C7.79082 0 4.09707 2.15625 1.9502 5.40938C2.23145 5.41875 2.49395 5.42812 2.71895 5.42812C3.9752 5.42812 5.91582 5.27812 5.91582 5.27812C6.5627 5.24062 6.6377 6.1875 5.99082 6.27187C5.99082 6.27187 5.34395 6.34688 4.62207 6.38438L8.99082 19.3781L11.6158 11.5031L9.74082 6.38438C9.09395 6.34688 8.48457 6.27187 8.48457 6.27187C7.8377 6.23437 7.9127 5.24062 8.55957 5.27812C8.55957 5.27812 10.5377 5.42812 11.7189 5.42812C12.9752 5.42812 14.9158 5.27812 14.9158 5.27812C15.5627 5.24062 15.6377 6.1875 14.9908 6.27187C14.9908 6.27187 14.3439 6.34688 13.6221 6.38438L17.9627 19.2844L19.1627 15.2906C19.7908 13.7156 20.0908 12.4219 20.0908 11.3906Z" fill="white" fill-opacity="0.94902"/>
<path d="M22.5189 6.24375C22.5752 6.62813 22.6033 7.04062 22.6033 7.48125C22.6033 8.7 22.3783 10.0688 21.6939 11.775L18.0283 22.3688C21.5908 20.2875 23.9908 16.425 23.9908 12C23.9908 9.90938 23.4564 7.95 22.5189 6.24375Z" fill="white" fill-opacity="0.94902"/>
</g>
<defs>
<clipPath id="clip0_43_2895">
<rect width="24" height="24" fill="white" transform="translate(-0.00915527)"/>
</clipPath>
</defs>
</svg>
