<svg width="24" height="24" viewBox="0 0 24 24" fill="none" xmlns="http://www.w3.org/2000/svg">
<g clip-path="url(#clip0_55_3097)">
<path d="M23.6526 3.61361H23.6523H14.2171C14.1217 3.61361 14.0307 3.65389 13.9666 3.72451C13.9025 3.79521 13.8711 3.88954 13.8802 3.98463L14.0642 5.89209C14.0803 6.05858 14.2155 6.18836 14.3826 6.19752L16.3537 6.30597L12.5692 11.5571L8.44209 3.33476L11.4216 3.22085C11.6018 3.214 11.7449 3.0673 11.7472 2.88703L11.7689 1.18116C11.77 1.09061 11.7349 1.00342 11.6713 0.939015C11.6078 0.874685 11.5211 0.838394 11.4305 0.838394H0.329278C0.1423 0.838394 -0.00915527 0.98985 -0.00915527 1.1769V3.07806C-0.00915527 3.26308 0.139434 3.41384 0.324383 3.4165L3.46111 3.46167L9.42627 13.9846L9.39963 20.5567L5.25215 20.7269C5.07321 20.7341 4.93106 20.8796 4.92763 21.0586L4.89407 22.8167C4.89232 22.9076 4.92728 22.9953 4.99105 23.0602C5.05461 23.125 5.1416 23.1615 5.2325 23.1615H18.2057C18.2986 23.1615 18.3874 23.1234 18.4513 23.0561C18.5152 22.9888 18.5487 22.8982 18.5438 22.8055L18.4532 21.0649C18.4442 20.8919 18.306 20.7536 18.1328 20.7446L14.5645 20.5575L14.045 14.1558L20.4508 6.43729L23.0589 6.3187C23.2024 6.31206 23.3263 6.21549 23.3677 6.07781L23.9728 4.06134C23.9844 4.02715 23.9908 3.9903 23.9908 3.95205C23.9908 3.76521 23.8395 3.61361 23.6526 3.61361Z" fill="black" fill-opacity="0.85098"/>
</g>
<defs>
<clipPath id="clip0_55_3097">
<rect width="24" height="24" fill="white" transform="translate(-0.00915527)"/>
</clipPath>
</defs>
</svg>
