<svg width="24" height="24" viewBox="0 0 24 24" fill="none" xmlns="http://www.w3.org/2000/svg">
<g clip-path="url(#clip0_41_2857)">
<path d="M10.0518 16.9093L6.73347 20.9503C6.26657 21.5188 6.48963 22.3774 7.17419 22.6469L10.4184 23.9237C11.1183 24.1992 11.8791 23.6956 11.899 22.9437L12.0389 17.6505C12.0671 16.5834 10.7292 16.0845 10.0518 16.9093Z" fill="white" fill-opacity="0.94902"/>
<path d="M9.50032 12.8922L4.57902 11.1253C3.88658 10.8767 3.15294 11.3754 3.12931 12.1107L3.01731 15.5954C2.99312 16.3471 3.72318 16.8944 4.43799 16.6603L9.47024 15.0127C10.4847 14.6807 10.5049 13.2529 9.50032 12.8922Z" fill="white" fill-opacity="0.94902"/>
<path d="M15.1405 13.4592L20.1814 12.0699C20.8907 11.8744 21.2033 11.0442 20.7992 10.4294L18.8842 7.51606C18.471 6.88759 17.559 6.86054 17.1094 7.46351L13.944 11.7083C13.3059 12.564 14.1116 13.7429 15.1405 13.4592Z" fill="white" fill-opacity="0.94902"/>
<path d="M11.4899 1.34592C11.53 0.474052 10.7084 -0.183674 9.86644 0.0462739L5.87633 1.13597C5.01554 1.37104 4.64996 2.38988 5.16489 3.11862L9.7438 11.0516C9.78099 11.116 9.82198 11.1784 9.87018 11.2351C10.5483 12.0319 11.8213 11.7367 12.1351 10.8038C12.1915 10.6362 12.2073 10.4576 12.1935 10.2813L11.4899 1.34592Z" fill="white" fill-opacity="0.94902"/>
<path d="M20.2158 17.0855L15.1539 15.5313C14.1336 15.218 13.2941 16.373 13.9072 17.2468L16.9102 21.5273C17.3327 22.1296 18.2197 22.1449 18.6628 21.5577L20.7628 18.7747C21.2159 18.1743 20.9348 17.3063 20.2158 17.0855Z" fill="white" fill-opacity="0.94902"/>
</g>
<defs>
<clipPath id="clip0_41_2857">
<rect width="24" height="24" fill="white" transform="translate(-0.000610352)"/>
</clipPath>
</defs>
</svg>
