<svg width="24" height="24" viewBox="0 0 24 24" fill="none" xmlns="http://www.w3.org/2000/svg">
<g clip-path="url(#clip0_55_3114)">
<path d="M20.4078 18.0888C20.2809 18.0436 20.1398 18.0677 20.0352 18.152C19.4365 18.6343 18.6595 18.879 17.7257 18.879C17.1626 18.879 16.5507 18.7902 15.907 18.6148C14.5026 18.1424 12.2242 16.6646 12.1952 16.6457C11.0077 15.9037 9.89393 15.502 8.88075 15.4496C8.88307 15.4392 8.88571 15.43 8.8888 15.4219C8.91041 15.3637 19.3227 3.40289 19.3534 3.14421C19.4288 2.48672 19.5045 1.82923 19.5814 1.17236C19.6149 0.882641 19.5148 0.701545 19.4249 0.600583C19.2973 0.457348 19.1129 0.381627 18.8915 0.381627C18.8393 0.381627 18.7931 0.385885 18.7576 0.39084C18.738 0.391769 18.7183 0.394169 18.6988 0.398196C16.5566 0.833554 14.5101 1.01047 12.6191 0.923909C11.5098 0.872808 10.3418 0.769369 9.31348 0.362503C9.27337 0.343921 9.07532 0.243811 8.86751 0.129532C8.86449 0.127906 8.86163 0.12628 8.85853 0.124654C8.48031 -0.070533 8.08552 -0.0332918 7.79936 0.213383C7.78148 0.228791 7.76506 0.245901 7.75012 0.264328C7.71946 0.302654 7.68795 0.340437 7.65659 0.378375C7.59852 0.448289 7.53852 0.520526 7.47735 0.602287C7.00979 1.24298 6.37568 2.22333 6.26589 3.3339C6.23314 3.65003 6.22253 4.09088 6.35346 4.41429C6.35493 4.41816 6.35632 4.42195 6.35787 4.42575C6.36608 4.44665 6.39093 4.50356 6.4418 4.58029C6.44342 4.58269 6.44505 4.58516 6.44668 4.58756C6.45241 4.59678 6.46115 4.60994 6.47269 4.62488C6.75622 5.01061 7.54494 5.6482 9.65686 5.6482C10.3184 5.6482 11.0666 5.58479 11.8903 5.45906C9.10087 8.74952 6.31227 12.0408 3.5249 15.3325C3.51863 15.3389 3.51244 15.3456 3.50655 15.3526C3.26971 15.6318 3.22589 16.0195 3.21954 16.0943C3.21846 16.1053 3.21807 16.1162 3.21807 16.1273V18.0273C3.21807 18.0491 3.21691 18.1772 3.21575 18.3184L3.21559 18.3368C3.21536 18.3616 3.21753 18.3865 3.2221 18.4109C3.32933 18.9874 3.68401 19.0974 3.83151 19.118C3.84924 19.1204 3.86712 19.1217 3.88493 19.1217H4.59816C6.41176 19.1217 7.81353 19.1825 9.34336 19.9698C10.0036 20.309 10.598 20.7582 11.227 21.2337C11.7421 21.6231 12.2748 22.0257 12.8472 22.3622C14.0186 23.052 15.3905 23.8026 16.8479 23.9752C16.9869 23.9916 17.1255 23.9999 17.2604 23.9999C17.2606 23.9999 17.2606 23.9999 17.2606 23.9999C18.213 23.9999 19.0494 23.5891 19.6788 22.812C20.5747 21.706 20.977 19.8806 20.6568 18.3731C20.6289 18.2415 20.5345 18.1339 20.4078 18.0888Z" fill="black" fill-opacity="0.85098"/>
</g>
<defs>
<clipPath id="clip0_55_3114">
<rect width="24" height="24" fill="white" transform="translate(-0.00927734)"/>
</clipPath>
</defs>
</svg>
