<svg width="24" height="24" viewBox="0 0 24 24" fill="none" xmlns="http://www.w3.org/2000/svg">
<g clip-path="url(#clip0_1437_6301)">
<circle cx="12" cy="9" r="4.25" stroke="white" stroke-opacity="0.94902" stroke-width="1.5"/>
<path d="M19.2467 21C19.2389 21.0174 19.2192 21.052 19.1721 21.1048C19.0734 21.2151 18.8962 21.3557 18.6147 21.5129C18.0531 21.8263 17.2151 22.1303 16.1786 22.3946C14.1156 22.9207 11.4283 23.25 9 23.25C6.5729 23.25 4.4067 22.921 2.87321 22.4098C2.10255 22.1529 1.53298 21.8636 1.17149 21.5787C0.80155 21.2871 0.75 21.0859 0.75 21C0.75 20.9141 0.80155 20.7129 1.17149 20.4213C1.53298 20.1364 2.10255 19.8471 2.87321 19.5902C4.4067 19.079 6.5729 18.75 9 18.75C11.4283 18.75 14.1156 19.0793 16.1786 19.6054C17.2151 19.8697 18.0531 20.1737 18.6147 20.4871C18.8962 20.6443 19.0734 20.7849 19.1721 20.8952C19.2192 20.948 19.2389 20.9826 19.2467 21ZM19.2507 21.0103C19.2513 21.0124 19.2514 21.0134 19.2514 21.0134C19.2513 21.0134 19.251 21.0124 19.2507 21.0103ZM19.2507 20.9897C19.251 20.9876 19.2513 20.9866 19.2514 20.9866C19.2514 20.9866 19.2513 20.9876 19.2507 20.9897ZM22.8646 19.0616C22.6337 19.8137 22.5 20.4035 22.5 21C22.5 21.5965 22.6337 22.1863 22.8646 22.9384C22.256 22.6549 21.4857 22.1027 20.8508 21C21.4857 19.8973 22.256 19.3451 22.8646 19.0616Z" stroke="white" stroke-opacity="0.94902" stroke-width="1.5"/>
<path d="M8.45 1.6C8.78137 1.35147 8.84853 0.881371 8.6 0.55C8.35147 0.218629 7.88137 0.151472 7.55 0.4L8.45 1.6ZM16.45 0.4C16.1186 0.151472 15.6485 0.218629 15.4 0.55C15.1515 0.881371 15.2186 1.35147 15.55 1.6L16.45 0.4ZM8.45 5.4C7.57058 4.74044 7.25 4.06496 7.25 3.5C7.25 2.93504 7.57058 2.25956 8.45 1.6L7.55 0.4C6.42942 1.24044 5.75 2.31496 5.75 3.5C5.75 4.68504 6.42942 5.75956 7.55 6.6L8.45 5.4ZM16.45 6.6C17.5706 5.75956 18.25 4.68504 18.25 3.5C18.25 2.31496 17.5706 1.24044 16.45 0.4L15.55 1.6C16.4294 2.25956 16.75 2.93504 16.75 3.5C16.75 4.06496 16.4294 4.74044 15.55 5.4L16.45 6.6Z" fill="white" fill-opacity="0.94902"/>
<path d="M10.5 14.5V16.5M13.5 14.5V16.5" stroke="white" stroke-opacity="0.94902" stroke-width="1.5" stroke-linecap="round"/>
</g>
<defs>
<clipPath id="clip0_1437_6301">
<rect width="24" height="24" fill="white"/>
</clipPath>
</defs>
</svg>
