<svg width="24" height="24" viewBox="0 0 24 24" fill="none" xmlns="http://www.w3.org/2000/svg">
<g clip-path="url(#clip0_1437_6300)">
<circle cx="12" cy="9" r="5" fill="white" fill-opacity="0.94902"/>
<path d="M20 21C20 22.6569 13.9706 24 9 24C4.02944 24 0 22.6569 0 21C0 19.3431 4.02944 18 9 18C13.9706 18 20 19.3431 20 21Z" fill="white" fill-opacity="0.94902"/>
<path d="M24 18C24 18 21.5 18 20 21C21.5 24 24 24 24 24C23 21 23 21 24 18Z" fill="white" fill-opacity="0.94902"/>
<path d="M8.45 1.6C8.78137 1.35147 8.84853 0.881371 8.6 0.55C8.35147 0.218629 7.88137 0.151472 7.55 0.4L8.45 1.6ZM16.45 0.4C16.1186 0.151472 15.6485 0.218629 15.4 0.55C15.1515 0.881371 15.2186 1.35147 15.55 1.6L16.45 0.4ZM8.45 5.4C7.57058 4.74044 7.25 4.06496 7.25 3.5C7.25 2.93504 7.57058 2.25956 8.45 1.6L7.55 0.4C6.42942 1.24044 5.75 2.31496 5.75 3.5C5.75 4.68504 6.42942 5.75956 7.55 6.6L8.45 5.4ZM16.45 6.6C17.5706 5.75956 18.25 4.68504 18.25 3.5C18.25 2.31496 17.5706 1.24044 16.45 0.4L15.55 1.6C16.4294 2.25956 16.75 2.93504 16.75 3.5C16.75 4.06496 16.4294 4.74044 15.55 5.4L16.45 6.6Z" fill="white" fill-opacity="0.94902"/>
<path d="M10.5 14.5V16.5M13.5 14.5V16.5" stroke="white" stroke-opacity="0.94902" stroke-width="1.5" stroke-linecap="round"/>
</g>
<defs>
<clipPath id="clip0_1437_6300">
<rect width="24" height="24" fill="white"/>
</clipPath>
</defs>
</svg>
