<svg width="24" height="24" viewBox="0 0 24 24" fill="none" xmlns="http://www.w3.org/2000/svg">
<path d="M10.5155 7.14391L11.1983 7.52627L11.5513 6.82795C12.3468 5.25464 13.977 4.17859 15.8571 4.17859C18.5199 4.17859 20.6786 6.33722 20.6786 9.00002C20.6786 9.55046 20.5866 10.0779 20.4179 10.5686L20.2031 11.1933L20.7956 11.4853C22.2512 12.2024 23.25 13.6996 23.25 15.4286C23.25 17.8547 21.2833 19.8214 18.8571 19.8214H6C3.10051 19.8214 0.75 17.4709 0.75 14.5714C0.75 11.8645 2.79924 9.63526 5.43053 9.35191L5.90503 9.30081L6.05973 8.84934C6.47859 7.627 7.63785 6.75002 9 6.75002C9.55181 6.75002 10.0679 6.89321 10.5155 7.14391Z" stroke="white" stroke-opacity="0.94902" stroke-width="1.5"/>
</svg>
