<svg width="24" height="24" viewBox="0 0 24 24" fill="none" xmlns="http://www.w3.org/2000/svg">
<g clip-path="url(#clip0_1437_6295)">
<path d="M12 1.5L16.6154 9.375L14.7692 8.88281L17.5385 13.0809L15.6923 12.6176L18 17.25H6L8.30769 12.6176L6.46154 13.0809L9.23077 8.88281L7.38462 9.375L12 1.5Z" stroke="white" stroke-opacity="0.94902" stroke-width="1.5"/>
<path d="M1.1954 21.8146C0.816883 21.9829 0.646413 22.4261 0.814641 22.8046C0.982869 23.1831 1.42609 23.3536 1.8046 23.1854L1.1954 21.8146ZM22.1954 23.1854C22.5739 23.3536 23.0171 23.1831 23.1854 22.8046C23.3536 22.4261 23.1831 21.9829 22.8046 21.8146L22.1954 23.1854ZM1.5 22.5C1.8046 23.1854 1.80446 23.1854 1.80432 23.1855C1.8043 23.1855 1.80419 23.1855 1.80415 23.1856C1.80406 23.1856 1.80405 23.1856 1.8041 23.1856C1.8042 23.1855 1.80457 23.1854 1.80522 23.1851C1.80651 23.1845 1.80888 23.1835 1.81231 23.182C1.81919 23.179 1.83034 23.1742 1.84567 23.1677C1.87633 23.1546 1.92372 23.1347 1.98709 23.109C2.11385 23.0576 2.3045 22.9828 2.55318 22.8923C3.05072 22.7114 3.77959 22.4683 4.69325 22.2247C6.5226 21.7368 9.08108 21.25 12 21.25V19.75C8.91892 19.75 6.2274 20.2632 4.30675 20.7753C3.34541 21.0317 2.57428 21.2886 2.04057 21.4827C1.77363 21.5797 1.56583 21.6612 1.42307 21.7191C1.35167 21.7481 1.29652 21.7712 1.25834 21.7874C1.23924 21.7955 1.22439 21.802 1.21387 21.8065C1.20861 21.8088 1.20443 21.8107 1.20135 21.812C1.19981 21.8127 1.19854 21.8132 1.19755 21.8137C1.19705 21.8139 1.19662 21.8141 1.19627 21.8143C1.19609 21.8143 1.19587 21.8144 1.19578 21.8145C1.19558 21.8146 1.1954 21.8146 1.5 22.5ZM12 21.25C14.9189 21.25 17.4774 21.7368 19.3068 22.2247C20.2204 22.4683 20.9493 22.7114 21.4468 22.8923C21.6955 22.9828 21.8861 23.0576 22.0129 23.109C22.0763 23.1347 22.1237 23.1546 22.1543 23.1677C22.1697 23.1742 22.1808 23.179 22.1877 23.182C22.1911 23.1835 22.1935 23.1845 22.1948 23.1851C22.1954 23.1854 22.1958 23.1855 22.1959 23.1856C22.196 23.1856 22.1959 23.1856 22.1959 23.1856C22.1958 23.1855 22.1957 23.1855 22.1957 23.1855C22.1955 23.1854 22.1954 23.1854 22.5 22.5C22.8046 21.8146 22.8044 21.8146 22.8042 21.8145C22.8041 21.8144 22.8039 21.8143 22.8037 21.8143C22.8034 21.8141 22.8029 21.8139 22.8025 21.8137C22.8015 21.8132 22.8002 21.8127 22.7986 21.812C22.7956 21.8107 22.7914 21.8088 22.7861 21.8065C22.7756 21.802 22.7608 21.7955 22.7417 21.7874C22.7035 21.7712 22.6483 21.7481 22.5769 21.7191C22.4342 21.6612 22.2264 21.5797 21.9594 21.4827C21.4257 21.2886 20.6546 21.0317 19.6932 20.7753C17.7726 20.2632 15.0811 19.75 12 19.75V21.25ZM12.75 20.5V18H11.25V20.5H12.75Z" fill="white" fill-opacity="0.94902"/>
</g>
<defs>
<clipPath id="clip0_1437_6295">
<rect width="24" height="24" fill="white"/>
</clipPath>
</defs>
</svg>
