<svg width="24" height="24" viewBox="0 0 24 24" fill="none" xmlns="http://www.w3.org/2000/svg">
<g clip-path="url(#clip0_1437_6298)">
<mask id="path-1-inside-1_1437_6298" fill="white">
<path d="M3.4117 4.3473C8.33605 -1.28118 17.3391 -1.35837 21.6223 3.61746C10.0726 1.81146 7.1561 11.7185 13.1003 17.0265C16.6668 20.2113 24 19.5414 24 24H4.01727C-0.927867 18.3925 -1.51265 9.97578 3.4117 4.3473Z"/>
</mask>
<path d="M21.6223 3.61746L21.3906 5.09945L25.4195 5.72944L22.7591 2.63887L21.6223 3.61746ZM3.4117 4.3473L4.54062 5.33499L4.54062 5.33499L3.4117 4.3473ZM4.01727 24L2.89224 24.9921L4.01727 25.5V24ZM24 24V25.5L25.5 24H24ZM13.1003 17.0265L12.1012 18.1454L12.1012 18.1454L13.1003 17.0265ZM22.7591 2.63887C17.8146 -3.1052 7.73933 -2.87717 2.28278 3.35961L4.54062 5.33499C8.93278 0.314809 16.8636 0.388453 20.4855 4.59604L22.7591 2.63887ZM2.28278 3.35961C-3.20701 9.63438 -2.4786 18.9019 2.89224 24.9921L5.14229 23.0079C0.622864 17.8831 0.181713 10.3172 4.54062 5.33499L2.28278 3.35961ZM4.01727 25.5H24V22.5H4.01727V25.5ZM25.5 24C25.5 22.3866 24.8003 21.1853 23.7538 20.3208C22.7866 19.5219 21.5335 19.0175 20.3777 18.6179C19.1021 18.1769 18.0281 17.8846 16.8438 17.4316C15.7214 17.0024 14.7915 16.5256 14.0994 15.9077L12.1012 18.1454C13.1924 19.1198 14.5166 19.7535 15.7722 20.2337C16.966 20.6903 18.394 21.1063 19.3975 21.4532C20.5208 21.8416 21.3239 22.2047 21.8431 22.6337C22.283 22.9971 22.5 23.3841 22.5 24H25.5ZM14.0994 15.9077C11.562 13.6419 11.0521 10.5483 12.1478 8.3149C13.2033 6.1634 16.052 4.26467 21.3906 5.09945L21.8541 2.13547C15.6429 1.16425 11.2586 3.31606 9.45442 6.99359C7.69048 10.5892 8.69437 15.1032 12.1012 18.1454L14.0994 15.9077Z" fill="white" fill-opacity="0.94902" mask="url(#path-1-inside-1_1437_6298)"/>
</g>
<defs>
<clipPath id="clip0_1437_6298">
<rect width="24" height="24" fill="white"/>
</clipPath>
</defs>
</svg>
