<svg width="24" height="24" viewBox="0 0 24 24" fill="none" xmlns="http://www.w3.org/2000/svg">
<path d="M19.65 15.6C19.65 19.825 16.225 23.25 12 23.25C7.77503 23.25 4.35001 19.825 4.35001 15.6C4.35001 12.2469 6.32751 8.51141 8.41443 5.5301C9.44508 4.05775 10.4772 2.80431 11.2519 1.91888C11.5427 1.58661 11.7966 1.30677 12 1.08728C12.2034 1.30677 12.4573 1.58661 12.7481 1.91888C13.5228 2.80431 14.5549 4.05775 15.5856 5.5301C17.6725 8.51141 19.65 12.2469 19.65 15.6Z" stroke="black" stroke-opacity="0.85098" stroke-width="1.5"/>
<path d="M8.39999 15.6C8.39999 17.4 10.2 19.2 12 19.2" stroke="black" stroke-opacity="0.85098" stroke-width="1.5" stroke-linecap="round"/>
</svg>
