<svg width="24" height="24" viewBox="0 0 24 24" fill="none" xmlns="http://www.w3.org/2000/svg">
<g clip-path="url(#clip0_148_562)">
<path d="M21.8995 2.10053C24.4379 4.63894 24.5551 8.63732 22.253 10.9394L18.7854 14.4071C18.7425 14.4499 18.6832 14.4712 18.6234 14.4607C18.2756 14.3999 17.0926 14.1141 17.3033 13.0607C17.6569 11.2929 19.9549 8.64127 17.6569 6.34317C15.3588 4.04507 12.7071 6.34317 10.9393 6.69672C9.88596 6.9074 9.60008 5.72446 9.53928 5.37658C9.52884 5.31683 9.55008 5.25756 9.59296 5.21467L13.0607 1.74697C15.3627 -0.555064 19.3611 -0.43788 21.8995 2.10053Z" fill="black" fill-opacity="0.85098"/>
<path d="M2.1005 21.8995C-0.437904 19.3611 -0.555088 15.3627 1.74695 13.0607L5.21465 9.59299C5.25753 9.5501 5.31681 9.52887 5.37655 9.53931C5.72443 9.60011 6.90737 9.88598 6.6967 10.9394C6.34314 12.7071 4.04505 15.3588 6.34314 17.6569C8.64124 19.955 11.2929 17.6569 13.0607 17.3033C14.114 17.0926 14.3999 18.2756 14.4607 18.6235C14.4712 18.6832 14.4499 18.7425 14.407 18.7854L10.9393 22.2531C8.6373 24.5551 4.63891 24.4379 2.1005 21.8995Z" fill="black" fill-opacity="0.85098"/>
<path d="M14.8284 9.17157L9.17158 14.8284" stroke="black" stroke-opacity="0.85098" stroke-width="3" stroke-linecap="round"/>
</g>
<defs>
<clipPath id="clip0_148_562">
<rect width="24" height="24" fill="white"/>
</clipPath>
</defs>
</svg>
