<svg width="24" height="24" viewBox="0 0 24 24" fill="none" xmlns="http://www.w3.org/2000/svg">
<path d="M5.5 2.5H1.5C1.49995 6.13636 3.5 13 7.5 12M16.5 12C20.5 13 22.4999 6.1364 22.5 2.5H18.5" stroke="white" stroke-opacity="0.94902" stroke-width="3" stroke-linejoin="round"/>
<path d="M17.9692 0H6.03076C5.46661 0 5.01689 0.46214 5.05379 1.02508C5.29 4.62891 6.48654 16.5 11.9999 16.5C17.5134 16.5 18.71 4.62892 18.9462 1.02509C18.9831 0.462144 18.5334 0 17.9692 0Z" fill="white" fill-opacity="0.94902"/>
<path d="M16 24C16.8284 24 17.5 23.3284 17.5 22.5C17.5 21.6716 16.8284 21 16 21V24ZM8 21C7.17157 21 6.5 21.6716 6.5 22.5C6.5 23.3284 7.17157 24 8 24V21ZM10.5001 16L10.5 22.5L13.5 22.5L13.5001 16L10.5001 16ZM12 24H16V21H12V24ZM12 21H8V24H12V21Z" fill="white" fill-opacity="0.94902"/>
</svg>
