<svg width="24" height="24" viewBox="0 0 24 24" fill="none" xmlns="http://www.w3.org/2000/svg">
<g clip-path="url(#clip0_234_18)">
<path d="M7 0.75V3.75" stroke="white" stroke-opacity="0.94902" stroke-width="1.5" stroke-linecap="round"/>
<path d="M17 0.75V3.75" stroke="white" stroke-opacity="0.94902" stroke-width="1.5" stroke-linecap="round"/>
<path fill-rule="evenodd" clip-rule="evenodd" d="M9.25 1H14.75V3.75C14.75 4.99264 15.7574 6 17 6C18.2426 6 19.25 4.99264 19.25 3.75V1.00614C21.8953 1.1364 24 3.32241 24 6V19C24 21.7614 21.7614 24 19 24H5C2.23858 24 0 21.7614 0 19V6C0 3.32241 2.10472 1.1364 4.75 1.00614V3.75C4.75 4.99264 5.75736 6 7 6C8.24264 6 9.25 4.99264 9.25 3.75V1ZM12 8C12.5523 8 13 8.44772 13 9V12H16C16.5523 12 17 12.4477 17 13C17 13.5523 16.5523 14 16 14H13V17C13 17.5523 12.5523 18 12 18C11.4477 18 11 17.5523 11 17V14H8C7.44772 14 7 13.5523 7 13C7 12.4477 7.44772 12 8 12H11V9C11 8.44772 11.4477 8 12 8Z" fill="white" fill-opacity="0.94902"/>
</g>
<defs>
<clipPath id="clip0_234_18">
<rect width="24" height="24" rx="5" fill="white"/>
</clipPath>
</defs>
</svg>
