<svg width="24" height="24" viewBox="0 0 24 24" fill="none" xmlns="http://www.w3.org/2000/svg">
<g clip-path="url(#clip0_114_42)">
<path fill-rule="evenodd" clip-rule="evenodd" d="M12 24C18.6274 24 24 18.6274 24 12C24 5.37258 18.6274 0 12 0C5.37258 0 0 5.37258 0 12C0 18.6274 5.37258 24 12 24ZM10.3394 10.1679L17.3561 5.95793C17.8024 5.69013 18.3099 6.19758 18.0421 6.64392L13.8321 13.6606C13.7898 13.731 13.7309 13.7899 13.6606 13.8321L6.64391 18.0421C6.19757 18.3099 5.69011 17.8024 5.95792 17.3561L10.1679 10.3394C10.2101 10.2691 10.269 10.2102 10.3394 10.1679ZM13 12C13 12.5523 12.5523 13 12 13C11.4477 13 11 12.5523 11 12C11 11.4477 11.4477 11 12 11C12.5523 11 13 11.4477 13 12Z" fill="white" fill-opacity="0.94902"/>
</g>
<defs>
<clipPath id="clip0_114_42">
<rect width="24" height="24" fill="white"/>
</clipPath>
</defs>
</svg>
