<svg width="24" height="24" viewBox="0 0 24 24" fill="none" xmlns="http://www.w3.org/2000/svg">
<g clip-path="url(#clip0_114_41)">
<circle cx="12" cy="12" r="11.25" stroke="white" stroke-opacity="0.94902" stroke-width="1.5"/>
<path fill-rule="evenodd" clip-rule="evenodd" d="M17.7602 6.92365C18.0191 6.47974 17.5203 5.98088 17.0763 6.23983L10.3459 10.1659C10.2714 10.2094 10.2094 10.2714 10.1659 10.3459L6.23984 17.0763C5.98089 17.5202 6.47975 18.0191 6.92367 17.7602L13.6541 13.8341C13.7286 13.7906 13.7906 13.7286 13.8341 13.6541L17.7602 6.92365ZM12 13C12.5523 13 13 12.5523 13 12C13 11.4477 12.5523 11 12 11C11.4477 11 11 11.4477 11 12C11 12.5523 11.4477 13 12 13Z" fill="white" fill-opacity="0.94902"/>
</g>
<defs>
<clipPath id="clip0_114_41">
<rect width="24" height="24" fill="white"/>
</clipPath>
</defs>
</svg>
