<svg width="24" height="24" viewBox="0 0 24 24" fill="none" xmlns="http://www.w3.org/2000/svg">
<path d="M15.5 13C15.5 14.933 13.933 16.5 12 16.5C10.067 16.5 8.5 14.933 8.5 13C8.5 11.067 10.067 9.5 12 9.5C13.933 9.5 15.5 11.067 15.5 13Z" fill="white" fill-opacity="0.94902"/>
<path fill-rule="evenodd" clip-rule="evenodd" d="M24 9V18C24 20.7614 21.7614 23 19 23H5C2.23858 23 0 20.7614 0 18V9C0 6.23858 2.23858 4 5 4H6.15287C6.64171 4 7.0589 3.64659 7.13927 3.1644L7.22147 2.6712C7.3822 1.70683 8.21658 1 9.19425 1H14.8057C15.7834 1 16.6178 1.70683 16.7785 2.6712L16.8607 3.1644C16.9411 3.64659 17.3583 4 17.8471 4H19C21.7614 4 24 6.23858 24 9ZM12 18C14.7614 18 17 15.7614 17 13C17 10.2386 14.7614 8 12 8C9.23858 8 7 10.2386 7 13C7 15.7614 9.23858 18 12 18ZM19.5 9C19.9142 9 20.25 8.66421 20.25 8.25C20.25 7.83579 19.9142 7.5 19.5 7.5C19.0858 7.5 18.75 7.83579 18.75 8.25C18.75 8.66421 19.0858 9 19.5 9Z" fill="white" fill-opacity="0.94902"/>
</svg>
