<svg width="24" height="24" viewBox="0 0 24 24" fill="none" xmlns="http://www.w3.org/2000/svg">
<circle cx="12" cy="13" r="4.25" stroke="white" stroke-opacity="0.94902" stroke-width="1.5"/>
<path d="M23.25 9V18C23.25 20.3472 21.3472 22.25 19 22.25H5C2.65279 22.25 0.75 20.3472 0.75 18V9C0.75 6.65279 2.65279 4.75 5 4.75H6.15287C7.00834 4.75 7.73842 4.13153 7.87906 3.2877L7.96126 2.7945L7.22147 2.6712L7.96126 2.7945C8.06172 2.19177 8.58321 1.75 9.19425 1.75H14.8057C15.4168 1.75 15.9383 2.19177 16.0387 2.7945L16.1209 3.2877C16.2616 4.13153 16.9917 4.75 17.8471 4.75H19C21.3472 4.75 23.25 6.65279 23.25 9Z" stroke="white" stroke-opacity="0.94902" stroke-width="1.5"/>
<circle cx="19.5" cy="8.25" r="0.75" fill="white" fill-opacity="0.94902"/>
</svg>
