<svg width="24" height="24" viewBox="0 0 24 24" fill="none" xmlns="http://www.w3.org/2000/svg">
<path d="M0.75 2.38V1.63H0V2.38H0.75ZM15.5833 2.38H16.3333C16.3333 1.96579 15.9975 1.63 15.5833 1.63V2.38ZM15.8297 6.3383C15.4385 6.20222 15.011 6.40906 14.875 6.80028C14.7389 7.1915 14.9457 7.61896 15.3369 7.75504L15.8297 6.3383ZM23.25 9.71333H24C24 9.39409 23.7979 9.10984 23.4964 9.00496L23.25 9.71333ZM7.91666 13.7967C8.33088 13.7967 8.66666 13.4609 8.66666 13.0467C8.66666 12.6325 8.33088 12.2967 7.91666 12.2967V13.7967ZM1.25 12.2967C0.835786 12.2967 0.5 12.6325 0.5 13.0467C0.5 13.4609 0.835786 13.7967 1.25 13.7967V12.2967ZM3.91666 8.46334C4.33088 8.46334 4.66666 8.12755 4.66666 7.71334C4.66666 7.29912 4.33088 6.96334 3.91666 6.96334V8.46334ZM1.25 6.96334C0.835786 6.96334 0.5 7.29912 0.5 7.71334C0.5 8.12755 0.835786 8.46334 1.25 8.46334V6.96334ZM0.75 3.13H15.5833V1.63H0.75V3.13ZM15.5833 17.63H2.75V19.13H15.5833V17.63ZM1.5 16.38V2.38H0V16.38H1.5ZM15.3369 7.75504L23.0036 10.4217L23.4964 9.00496L15.8297 6.3383L15.3369 7.75504ZM22.5 9.71333V16.38H24V9.71333H22.5ZM21.25 17.63H15.5833V19.13H21.25V17.63ZM14.8333 2.38V18.38H16.3333V2.38H14.8333ZM7.91666 12.2967H1.25V13.7967H7.91666V12.2967ZM3.91666 6.96334H1.25V8.46334H3.91666V6.96334ZM22.5 16.38C22.5 17.0704 21.9403 17.63 21.25 17.63V19.13C22.7688 19.13 24 17.8988 24 16.38H22.5ZM2.75 17.63C2.05965 17.63 1.5 17.0704 1.5 16.38H0C0 17.8988 1.23122 19.13 2.75 19.13V17.63Z" fill="white" fill-opacity="0.94902"/>
<circle cx="4.41667" cy="19.7133" r="2.66667" fill="white" fill-opacity="0.94902"/>
<circle cx="19.25" cy="19.7133" r="2.66667" fill="white" fill-opacity="0.94902"/>
</svg>
