<svg width="24" height="24" viewBox="0 0 24 24" fill="none" xmlns="http://www.w3.org/2000/svg">
<path d="M15.5833 2.38H0.75V16.38C0.75 17.4846 1.64543 18.38 2.75 18.38H21.25C22.3546 18.38 23.25 17.4846 23.25 16.38V9.71333L15.5833 7.04667V2.38Z" fill="white" fill-opacity="0.94902"/>
<path d="M0.75 2.38V1.63H0V2.38H0.75ZM15.5833 2.38H16.3333C16.3333 1.96579 15.9975 1.63 15.5833 1.63V2.38ZM15.5833 7.04667H14.8333V7.57987L15.3369 7.75504L15.5833 7.04667ZM23.25 9.71333H24C24 9.39409 23.7979 9.10984 23.4964 9.00496L23.25 9.71333ZM0.75 3.13H15.5833V1.63H0.75V3.13ZM1.5 16.38V2.38H0V16.38H1.5ZM15.3369 7.75504L23.0036 10.4217L23.4964 9.00496L15.8297 6.3383L15.3369 7.75504ZM22.5 9.71333V16.38H24V9.71333H22.5ZM14.8333 2.38V7.04667H16.3333V2.38H14.8333ZM2.75 19.13H21.25V17.63H2.75V19.13ZM22.5 16.38C22.5 17.0704 21.9403 17.63 21.25 17.63V19.13C22.7688 19.13 24 17.8988 24 16.38H22.5ZM0 16.38C0 17.8988 1.23122 19.13 2.75 19.13V17.63C2.05964 17.63 1.5 17.0704 1.5 16.38H0Z" fill="white" fill-opacity="0.94902"/>
<circle cx="4.41667" cy="19.7133" r="2.66667" fill="white" fill-opacity="0.94902"/>
<circle cx="19.25" cy="19.7133" r="2.66667" fill="white" fill-opacity="0.94902"/>
</svg>
