<svg width="24" height="24" viewBox="0 0 24 24" fill="none" xmlns="http://www.w3.org/2000/svg">
<path fill-rule="evenodd" clip-rule="evenodd" d="M14.3795 5.00142L18.9986 9.62061L5.57592 23.0433C4.96334 23.6559 4.13251 24 3.26628 24H0V20.7338C0 19.8674 0.344159 19.0367 0.956671 18.4242L14.3795 5.00142ZM19.0493 0.331537L17.3743 2.0066L21.9529 6.6258L23.6684 4.95073C23.8159 4.80323 24 4.44154 24 3.91012C24 3.37869 23.816 3.01703 23.6685 2.86952L21.1306 0.331531C20.983 0.183998 20.6213 -6.7318e-07 20.0899 0C19.5586 6.73184e-07 19.1969 0.184007 19.0493 0.331537Z" fill="white" fill-opacity="0.94902"/>
</svg>
