<svg width="24" height="24" viewBox="0 0 24 24" fill="none" xmlns="http://www.w3.org/2000/svg">
<path d="M1.487 18.9545L17.0007 3.44076L20.5642 6.99436L5.0456 22.513C4.57367 22.9849 3.93359 23.25 3.26628 23.25H0.75L0.75 20.7338C0.75 20.0663 1.01513 19.4264 1.48699 18.9545L1.487 18.9545ZM21.6248 5.9337L18.0614 2.3801L19.573 0.868478C19.5745 0.867998 19.6075 0.842683 19.6845 0.814383C19.7753 0.780989 19.9109 0.75 20.0899 0.75C20.269 0.75 20.4046 0.780991 20.4954 0.814378C20.5724 0.842678 20.6054 0.867984 20.6068 0.868433L23.1316 3.39328C23.132 3.3947 23.1573 3.42768 23.1856 3.50465C23.219 3.59546 23.25 3.731 23.25 3.91012C23.25 4.08921 23.219 4.22475 23.1856 4.31557C23.1573 4.39255 23.132 4.42553 23.1316 4.42696L21.6248 5.9337ZM23.1381 4.4204L23.1377 4.42085C23.1378 4.4207 23.138 4.42054 23.1381 4.42039L23.6684 4.95073L23.1381 4.4204Z" stroke="black" stroke-opacity="0.85098" stroke-width="1.5" stroke-linecap="round" stroke-linejoin="round"/>
</svg>
