<svg width="24" height="24" viewBox="0 0 24 24" fill="none" xmlns="http://www.w3.org/2000/svg">
<path fill-rule="evenodd" clip-rule="evenodd" d="M21.3333 1.78582C21.3333 1.52894 21.1387 1.31386 20.8831 1.2883L8.54975 0.0549747C8.25541 0.0255407 8 0.256683 8 0.552494V23.4475C8 23.7433 8.25541 23.9745 8.54975 23.945L20.8831 22.7117C21.1387 22.6861 21.3333 22.471 21.3333 22.2142V1.78582ZM11.3333 13.3333C11.7015 13.3333 12 13.0348 12 12.6667C12 12.2985 11.7015 12 11.3333 12C10.9651 12 10.6667 12.2985 10.6667 12.6667C10.6667 13.0348 10.9651 13.3333 11.3333 13.3333Z" fill="black" fill-opacity="0.85098"/>
<path d="M7.65747 2.66667H3.65747V21.3333H7.65747" stroke="black" stroke-opacity="0.85098" stroke-width="1.5" stroke-linejoin="round"/>
</svg>
