<svg width="24" height="24" viewBox="0 0 24 24" fill="none" xmlns="http://www.w3.org/2000/svg">
<path d="M4.25 23C4.25 23.4142 4.58579 23.75 5 23.75C5.41421 23.75 5.75 23.4142 5.75 23H4.25ZM5.75 1C5.75 0.585786 5.41421 0.25 5 0.25C4.58579 0.25 4.25 0.585786 4.25 1H5.75ZM4.25 21.5V23H5.75V21.5H4.25ZM5.75 12.5V1H4.25V12.5H5.75Z" fill="white" fill-opacity="0.94902"/>
<path d="M19.75 1C19.75 0.585787 19.4142 0.25 19 0.25C18.5858 0.25 18.25 0.585786 18.25 1L19.75 1ZM18.25 23C18.25 23.4142 18.5858 23.75 19 23.75C19.4142 23.75 19.75 23.4142 19.75 23L18.25 23ZM19.75 2.5L19.75 1L18.25 1L18.25 2.5L19.75 2.5ZM18.25 11.5L18.25 23L19.75 23L19.75 11.5L18.25 11.5Z" fill="white" fill-opacity="0.94902"/>
<circle cx="19" cy="7" r="3.75" transform="rotate(-180 19 7)" fill="white" fill-opacity="0.94902"/>
<circle cx="5" cy="17" r="3.75" fill="white" fill-opacity="0.94902"/>
</svg>
