<svg width="24" height="24" viewBox="0 0 24 24" fill="none" xmlns="http://www.w3.org/2000/svg">
<path d="M5 20C6.65685 20 8 18.6569 8 17C8 15.3431 6.65685 14 5 14M5 20C3.34315 20 2 18.6569 2 17C2 15.3431 3.34315 14 5 14M5 20V23M5 14V1" stroke="black" stroke-opacity="0.85098" stroke-width="1.5" stroke-linecap="round" stroke-linejoin="round"/>
<path d="M19 4C17.3431 4 16 5.34315 16 7C16 8.65685 17.3431 10 19 10M19 4C20.6569 4 22 5.34315 22 7C22 8.65685 20.6569 10 19 10M19 4L19 1M19 10C19 15.4673 19 23 19 23" stroke="black" stroke-opacity="0.85098" stroke-width="1.5" stroke-linecap="round" stroke-linejoin="round"/>
</svg>
