<svg width="24" height="24" viewBox="0 0 24 24" fill="none" xmlns="http://www.w3.org/2000/svg">
<path d="M0.75 16.7177C0.75 15.1143 2.04982 13.8145 3.65323 13.8145H4.37903C5.98244 13.8145 7.28226 15.1143 7.28226 16.7177V20.3468C7.28226 21.9502 5.98244 23.25 4.37903 23.25H3.65323C2.04982 23.25 0.75 21.9502 0.75 20.3468V16.7177Z" fill="white" fill-opacity="0.94902"/>
<path d="M16.7177 16.7177C16.7177 15.1143 18.0176 13.8145 19.621 13.8145H20.3468C21.9502 13.8145 23.25 15.1143 23.25 16.7177V20.3468C23.25 21.9502 21.9502 23.25 20.3468 23.25H19.621C18.0176 23.25 16.7177 21.9502 16.7177 20.3468V16.7177Z" fill="white" fill-opacity="0.94902"/>
<path d="M1.1129 13.0887V11.6371C1.1129 5.62432 5.98722 0.75 12 0.75C18.0128 0.75 22.8871 5.62432 22.8871 11.6371V13.0887M3.65323 23.25H4.37903C5.98244 23.25 7.28226 21.9502 7.28226 20.3468V16.7177C7.28226 15.1143 5.98244 13.8145 4.37903 13.8145H3.65323C2.04982 13.8145 0.75 15.1143 0.75 16.7177V20.3468C0.75 21.9502 2.04982 23.25 3.65323 23.25ZM19.621 23.25H20.3468C21.9502 23.25 23.25 21.9502 23.25 20.3468V16.7177C23.25 15.1143 21.9502 13.8145 20.3468 13.8145H19.621C18.0176 13.8145 16.7177 15.1143 16.7177 16.7177V20.3468C16.7177 21.9502 18.0176 23.25 19.621 23.25Z" stroke="white" stroke-opacity="0.94902" stroke-width="1.5" stroke-linecap="round"/>
</svg>
