<svg width="24" height="24" viewBox="0 0 24 24" fill="none" xmlns="http://www.w3.org/2000/svg">
<path fill-rule="evenodd" clip-rule="evenodd" d="M0 4.5C0 2.98122 1.23122 1.75 2.75 1.75H21.25C22.7688 1.75 24 2.98122 24 4.5V19.5C24 21.0188 22.7688 22.25 21.25 22.25H2.75C1.23122 22.25 0 21.0188 0 19.5L0 4.5ZM9.50042 6C7.65973 6 6.21918 7.5142 6.21918 9.35526C6.21918 10.2656 6.56942 11.1583 7.13376 11.8285C7.69926 12.5001 8.52816 13 9.50042 13C10.4727 13 11.3016 12.5001 11.8671 11.8285C12.4314 11.1583 12.7817 10.2656 12.7817 9.35526C12.7817 7.5142 11.3411 6 9.50042 6ZM5.80488 15.2647C6.61135 14.8168 7.7862 14.5 9.5 14.5C11.2139 14.5 12.3895 14.8168 13.1959 15.2648C14.0122 15.7183 14.4098 16.2842 14.5955 16.6978C14.7417 17.0234 14.6901 17.3824 14.4894 17.6464C14.2997 17.896 14.007 18.0263 13.7129 18.0263H5.28722C4.99308 18.0263 4.70031 17.896 4.51058 17.6462C4.30995 17.3822 4.25845 17.023 4.40475 16.6975C4.5906 16.284 4.9884 15.7182 5.80488 15.2647Z" fill="white" fill-opacity="0.94902"/>
</svg>
