<svg width="20" height="24" viewBox="0 0 20 24" fill="none" xmlns="http://www.w3.org/2000/svg">
<path d="M7.81177 19.4448L7.81178 19.4448C8.3371 19.9069 8.76891 20.6036 9.09268 21.2479C9.4242 21.9077 9.68115 22.5916 9.83148 23.0958L9.83154 23.096C9.85186 23.1642 9.88241 23.196 9.9069 23.2138C9.93156 23.2317 9.96366 23.2445 9.99925 23.2488C10.0359 23.2444 10.0685 23.2312 10.0933 23.2132C10.1178 23.1954 10.1483 23.1636 10.1686 23.0958L7.81177 19.4448ZM7.81177 19.4448C7.65852 19.31 7.41193 19.1496 7.17533 18.9967C7.12844 18.9664 7.0799 18.9351 7.02977 18.9028C6.80135 18.7556 6.53983 18.5871 6.24985 18.3909C5.54495 17.9139 4.69411 17.2879 3.87297 16.4971C2.22888 14.9139 0.75 12.7184 0.75 9.78032C0.75 4.80875 4.87571 0.75 10 0.75C15.1243 0.75 19.25 4.80874 19.25 9.78032C19.25 12.7184 17.7711 14.9139 16.1271 16.4971C15.3059 17.2879 14.4551 17.9139 13.7502 18.3909C13.4602 18.5871 13.1987 18.7556 12.9703 18.9028C12.9201 18.9351 12.8716 18.9664 12.8247 18.9967C12.5881 19.1496 12.3415 19.31 12.1883 19.4448L12.188 19.4451M7.81177 19.4448L12.188 19.4451M12.188 19.4451C11.6629 19.9075 11.2312 20.6039 10.9074 21.2482M12.188 19.4451L10.9074 21.2482M10.9074 21.2482C10.5759 21.9078 10.319 22.5913 10.1686 23.0956L10.9074 21.2482Z" stroke="white" stroke-opacity="0.94902" stroke-width="1.5"/>
<path d="M7.27274 9.78034C7.27274 11.2536 8.49364 12.4477 10 12.4477C11.5064 12.4477 12.7273 11.2536 12.7273 9.78034C12.7273 8.30707 11.5064 7.11298 10 7.11298C8.49364 7.11298 7.27274 8.30707 7.27274 9.78034Z" fill="white" fill-opacity="0.94902"/>
</svg>
