<svg width="20" height="24" viewBox="0 0 20 24" fill="none" xmlns="http://www.w3.org/2000/svg">
<path d="M10 0C4.47729 0 0 4.37892 0 9.78032C0 16.2122 6.50183 19.2913 7.31639 20.0079C8.14821 20.7397 8.83548 22.3801 9.11275 23.3101C9.2473 23.7618 9.62548 23.9903 10 24C10.3755 23.9893 10.7528 23.7609 10.8873 23.3101C11.1646 22.3801 11.8519 20.7405 12.6837 20.0079C13.4982 19.2913 20 16.2122 20 9.78032C20 4.37892 15.5228 0 10 0ZM10 12.4477C8.49366 12.4477 7.27275 11.2536 7.27275 9.78032C7.27275 8.30706 8.49366 7.11296 10 7.11296C11.5064 7.11296 12.7273 8.30706 12.7273 9.78032C12.7273 11.2536 11.5064 12.4477 10 12.4477Z" fill="white" fill-opacity="0.94902"/>
</svg>
