<svg width="24" height="24" viewBox="0 0 24 24" fill="none" xmlns="http://www.w3.org/2000/svg">
<g clip-path="url(#clip0_113_671)">
<path d="M12 0.75C13.9097 0.75 15.2953 1.5503 16.3911 2.85344C17.5125 4.18707 18.3233 6.0433 19.0008 8.10585C19.4151 9.36691 19.76 10.6361 20.0987 11.8825C20.3211 12.7011 20.5409 13.5099 20.776 14.3001C21.2131 15.7699 21.7041 17.1792 22.3684 18.25H22.3492H22.3156H22.2817H22.2477H22.2135H22.1792H22.1446H22.1099H22.075H22.04H22.0047H21.9693H21.9338H21.898H21.8621H21.826H21.7897H21.7533H21.7167H21.68H21.6431H21.606H21.5687H21.5313H21.4938H21.456H21.4181H21.3801H21.3419H21.3035H21.265H21.2263H21.1875H21.1485H21.1094H21.0701H21.0307H20.9911H20.9513H20.9114H20.8714H20.8312H20.7909H20.7504H20.7098H20.669H20.6281H20.587H20.5458H20.5045H20.463H20.4214H20.3797H20.3378H20.2957H20.2536H20.2113H20.1688H20.1263H20.0836H20.0407H19.9978H19.9547H19.9114H19.8681H19.8246H19.781H19.7373H19.6934H19.6494H19.6053H19.5611H19.5167H19.4722H19.4276H19.3829H19.3381H19.2931H19.2481H19.2029H19.1576H19.1121H19.0666H19.021H18.9752H18.9293H18.8833H18.8373H18.7911H18.7447H18.6983H18.6518H18.6052H18.5584H18.5116H18.4647H18.4176H18.3705H18.3232H18.2759H18.2284H18.1809H18.1332H18.0855H18.0377H17.9897H17.9417H17.8936H17.8454H17.7971H17.7487H17.7002H17.6516H17.6029H17.5542H17.5053H17.4564H17.4074H17.3583H17.3091H17.2598H17.2105H17.1611H17.1116H17.062H17.0123H16.9626H16.9127H16.8628H16.8129H16.7628H16.7127H16.6625H16.6122H16.5619H16.5114H16.461H16.4104H16.3598H16.3091H16.2583H16.2075H16.1566H16.1057H16.0547H16.0036H15.9524H15.9012H15.85H15.7987H15.7473H15.6958H15.6443H15.5928H15.5412H15.4895H15.4378H15.386H15.3342H15.2824H15.2304H15.1785H15.1264H15.0744H15.0223H14.9701H14.9179H14.8656H14.8133H14.761H14.7086H14.6562H14.6037H14.5512H14.4987H14.4461H14.3935H14.3408H14.2881H14.2354H14.1826H14.1298H14.077H14.0242H13.9713H13.9183H13.8654H13.8124H13.7594H13.7064H13.6533H13.6002H13.5471H13.494H13.4408H13.3877H13.3345H13.2812H13.228H13.1747H13.1215H13.0682H13.0149H12.9615H12.9082H12.8549H12.8015H12.7481H12.6947H12.6413H12.5879H12.5345H12.4811H12.4276H12.3742H12.3207H12.2673H12.2138H12.1604H12.1069H12.0535H12H11.9465H11.8931H11.8396H11.7862H11.7327H11.6792H11.6258H11.5724H11.5189H11.4655H11.4121H11.3587H11.3053H11.2519H11.1985H11.1451H11.0918H11.0384H10.9851H10.9318H10.8785H10.8252H10.772H10.7188H10.6655H10.6123H10.5592H10.506H10.4529H10.3998H10.3467H10.2936H10.2406H10.1876H10.1346H10.0817H10.0287H9.97584H9.92298H9.87015H9.81736H9.7646H9.71187H9.65918H9.60652H9.5539H9.50132H9.44878H9.39627H9.34381H9.29138H9.239H9.18666H9.13436H9.08211H9.0299H8.97774H8.92562H8.87355H8.82153H8.76956H8.71764H8.66577H8.61395H8.56218H8.51046H8.4588H8.4072H8.35565H8.30415H8.25271H8.20133H8.15001H8.09875H8.04755H7.99641H7.94533H7.89431H7.84336H7.79247H7.74165H7.69089H7.6402H7.58958H7.53903H7.48854H7.43813H7.38779H7.33751H7.28732H7.23719H7.18714H7.13716H7.08726H7.03744H6.98769H6.93802H6.88843H6.83892H6.78949H6.74015H6.69088H6.6417H6.5926H6.54359H6.49466H6.44582H6.39706H6.3484H6.29982H6.25133H6.20294H6.15463H6.10642H6.0583H6.01027H5.96234H5.9145H5.86676H5.81911H5.77157H5.72412H5.67677H5.62953H5.58238H5.53533H5.48839H5.44155H5.39482H5.34819H5.30166H5.25525H5.20894H5.16274H5.11665H5.07067H5.0248H4.97904H4.93339H4.88786H4.84244H4.79713H4.75195H4.70687H4.66192H4.61708H4.57237H4.52777H4.48329H4.43894H4.3947H4.35059H4.30661H4.26274H4.21901H4.1754H4.13192H4.08856H4.04534H4.00224H3.95927H3.91644H3.87374H3.83117H3.78873H3.74643H3.70426H3.66223H3.62034H3.57859H3.53697H3.49549H3.45415H3.41296H3.3719H3.33099H3.29022H3.2496H3.20912H3.16879H3.1286H3.08856H3.04867H3.00893H2.96934H2.92989H2.89061H2.85147H2.81249H2.77366H2.73498H2.69646H2.6581H2.61989H2.58185H2.54396H2.50623H2.46866H2.43126H2.39401H2.35693H2.32001H2.28326H2.24667H2.21025H2.174H2.13791H2.10199H2.06625H2.03067H1.99526H1.96003H1.92496H1.89008H1.85536H1.82082H1.78646H1.75228H1.71827H1.68444H1.65079H1.63157C2.29587 17.1792 2.78692 15.7699 3.22405 14.3001C3.45906 13.5099 3.67885 12.7011 3.90132 11.8825C4.24002 10.6361 4.58493 9.36691 4.99917 8.10585C5.67668 6.0433 6.48748 4.18707 7.60891 2.85344C8.7047 1.5503 10.0903 0.75 12 0.75Z" stroke="white" stroke-opacity="0.94902" stroke-width="1.5"/>
<path d="M16 21C16 22.6569 14.2091 24 12 24C9.79086 24 8 22.6569 8 21H16Z" fill="white" fill-opacity="0.94902"/>
</g>
<defs>
<clipPath id="clip0_113_671">
<rect width="24" height="24" fill="white"/>
</clipPath>
</defs>
</svg>
