<svg width="24" height="24" viewBox="0 0 24 24" fill="none" xmlns="http://www.w3.org/2000/svg">
<path fill-rule="evenodd" clip-rule="evenodd" d="M0 6C0 4.48122 1.23122 3.25 2.75 3.25H21.25C22.7688 3.25 24 4.48122 24 6V18C24 19.5188 22.7688 20.75 21.25 20.75H2.75C1.23122 20.75 0 19.5188 0 18V6ZM6 14C5.44772 14 5 14.4477 5 15C5 15.5523 5.44772 16 6 16H12C12.5523 16 13 15.5523 13 15C13 14.4477 12.5523 14 12 14H6ZM15 15C15 14.4477 15.4477 14 16 14H18C18.5523 14 19 14.4477 19 15C19 15.5523 18.5523 16 18 16H16C15.4477 16 15 15.5523 15 15Z" fill="black" fill-opacity="0.85098"/>
</svg>
