<svg width="24" height="24" viewBox="0 0 24 24" fill="none" xmlns="http://www.w3.org/2000/svg">
<g clip-path="url(#clip0_25_1665)">
<path d="M0 1.2C0 0.53726 0.537258 0 1.2 0H18C18.6627 0 19.2 0.537258 19.2 1.2V5.2C19.2 5.86274 18.6627 6.4 18 6.4H1.2C0.537258 6.4 0 5.86274 0 5.2V1.2Z" fill="white" fill-opacity="0.94902"/>
<path d="M4.8 9.9999C4.8 9.33716 5.33726 8.7999 6 8.7999H22.8C23.4627 8.7999 24 9.33716 24 9.9999V13.9999C24 14.6626 23.4627 15.1999 22.8 15.1999H6C5.33726 15.1999 4.8 14.6626 4.8 13.9999V9.9999Z" fill="white" fill-opacity="0.94902"/>
<path d="M0 18.8001C0 18.1374 0.537258 17.6001 1.2 17.6001H18C18.6627 17.6001 19.2 18.1374 19.2 18.8001V22.8001C19.2 23.4628 18.6627 24.0001 18 24.0001H1.2C0.537258 24.0001 0 23.4628 0 22.8001V18.8001Z" fill="white" fill-opacity="0.94902"/>
</g>
<defs>
<clipPath id="clip0_25_1665">
<rect width="24" height="24" fill="white"/>
</clipPath>
</defs>
</svg>
