<svg width="24" height="24" viewBox="0 0 24 24" fill="none" xmlns="http://www.w3.org/2000/svg">
<g clip-path="url(#clip0_22_1510)">
<path d="M1.2 0.75H18C18.2485 0.75 18.45 0.951472 18.45 1.2V5.2C18.45 5.44853 18.2485 5.65 18 5.65H1.2C0.951472 5.65 0.75 5.44853 0.75 5.2V1.2C0.75 0.951472 0.951473 0.75 1.2 0.75ZM6 9.5499H22.8C23.0485 9.5499 23.25 9.75137 23.25 9.9999V13.9999C23.25 14.2484 23.0485 14.4499 22.8 14.4499H6C5.75147 14.4499 5.55 14.2484 5.55 13.9999V9.9999C5.55 9.75138 5.75147 9.5499 6 9.5499ZM1.2 18.3501H18C18.2485 18.3501 18.45 18.5516 18.45 18.8001V22.8001C18.45 23.0486 18.2485 23.2501 18 23.2501H1.2C0.951472 23.2501 0.75 23.0486 0.75 22.8001V18.8001C0.75 18.5516 0.951473 18.3501 1.2 18.3501Z" stroke="black" stroke-opacity="0.85098" stroke-width="1.5"/>
</g>
<defs>
<clipPath id="clip0_22_1510">
<rect width="24" height="24" fill="white"/>
</clipPath>
</defs>
</svg>
