<svg width="24" height="24" viewBox="0 0 24 24" fill="none" xmlns="http://www.w3.org/2000/svg">
<path fill-rule="evenodd" clip-rule="evenodd" d="M14.0154 0.893935C13.9611 0.385591 13.5322 0 13.021 0H10.979C10.4678 0 10.0389 0.385592 9.98465 0.893936L9.77915 2.82046C9.73535 3.23114 9.44158 3.56748 9.05242 3.70579C8.76789 3.80691 8.4901 3.92226 8.21991 4.05097C7.84695 4.22865 7.40127 4.19858 7.07982 3.93909L5.57187 2.72184C5.17408 2.40072 4.59814 2.43135 4.23665 2.79285L2.79274 4.23675C2.43125 4.59824 2.40062 5.17418 2.72173 5.57197L3.93902 7.07996C4.19851 7.40141 4.22858 7.84708 4.05091 8.22004C3.92222 8.49019 3.80689 8.76793 3.70579 9.05242C3.56748 9.44158 3.23114 9.73535 2.82046 9.77915L0.893935 9.98465C0.385591 10.0389 1.69504e-08 10.4678 3.92969e-08 10.979L1.28555e-07 13.021C1.50902e-07 13.5322 0.385592 13.9611 0.893936 14.0154L2.82046 14.2208C3.23114 14.2647 3.56748 14.5584 3.70579 14.9476C3.80689 15.2321 3.92222 15.5098 4.05091 15.78C4.22857 16.1529 4.1985 16.5986 3.93902 16.92L2.72164 18.4281C2.40053 18.8259 2.43116 19.4019 2.79265 19.7634L4.23655 21.2073C4.59805 21.5688 5.17399 21.5994 5.57178 21.2783L7.07984 20.0609C7.40129 19.8014 7.84697 19.7714 8.21993 19.949C8.49011 20.0778 8.7679 20.1931 9.05242 20.2942C9.44158 20.4325 9.73535 20.7689 9.77915 21.1795L9.98465 23.1061C10.0389 23.6144 10.4678 24 10.979 24H13.021C13.5322 24 13.9611 23.6144 14.0154 23.1061L14.2208 21.1795C14.2647 20.7689 14.5584 20.4325 14.9476 20.2942C15.2321 20.1931 15.5098 20.0778 15.78 19.9491C16.1529 19.7714 16.5986 19.8015 16.92 20.061L18.4281 21.2783C18.8259 21.5994 19.4018 21.5688 19.7633 21.2073L21.2072 19.7634C21.5687 19.4019 21.5993 18.826 21.2782 18.4282L20.0609 16.9202C19.8014 16.5987 19.7714 16.153 19.949 15.7801C20.0777 15.5099 20.1931 15.2321 20.2942 14.9476C20.4325 14.5584 20.7689 14.2647 21.1795 14.2208L23.1061 14.0154C23.6144 13.9611 24 13.5322 24 13.021V10.979C24 10.4678 23.6144 10.0389 23.1061 9.98465L21.1795 9.77915C20.7689 9.73534 20.4325 9.44158 20.2942 9.05242C20.1931 8.76789 20.0777 8.4901 19.949 8.21991C19.7714 7.84695 19.8014 7.40127 20.0609 7.07982L21.2781 5.57192C21.5992 5.17412 21.5686 4.59819 21.2071 4.23669L19.7632 2.79279C19.4017 2.4313 18.8258 2.40067 18.428 2.72178L16.92 3.93903C16.5986 4.19851 16.1529 4.22858 15.78 4.05092C15.5098 3.92222 15.2321 3.80689 14.9476 3.70579C14.5584 3.56748 14.2647 3.23114 14.2208 2.82046L14.0154 0.893935ZM12 16.8C14.651 16.8 16.8 14.651 16.8 12C16.8 9.34903 14.651 7.2 12 7.2C9.34903 7.2 7.2 9.34903 7.2 12C7.2 14.651 9.34903 16.8 12 16.8Z" fill="black" fill-opacity="0.85098"/>
</svg>
