<svg width="24" height="24" viewBox="0 0 24 24" fill="none" xmlns="http://www.w3.org/2000/svg">
<path fill-rule="evenodd" clip-rule="evenodd" d="M13.8954 1.64394C13.8411 1.13559 13.4122 0.75 12.901 0.75H11.099C10.5878 0.75 10.1589 1.13559 10.1046 1.64394L9.9225 3.35159C9.87869 3.76228 9.58476 4.09828 9.19633 4.23862C8.95718 4.32503 8.72318 4.42217 8.49489 4.52946C8.12101 4.70519 7.67545 4.67548 7.35399 4.41599L6.01735 3.33701C5.61956 3.0159 5.04362 3.04653 4.68213 3.40802L3.40793 4.68222C3.04643 5.04371 3.0158 5.61965 3.33692 6.01745L4.41593 7.35413C4.67541 7.67558 4.70512 8.12113 4.52941 8.49501C4.42213 8.72326 4.32501 8.95722 4.23862 9.19632C4.09828 9.58476 3.76228 9.87869 3.35159 9.9225L1.64393 10.1046C1.13559 10.1589 0.75 10.5878 0.75 11.099L0.75 12.901C0.75 13.4122 1.13559 13.8411 1.64394 13.8954L3.35159 14.0775C3.76228 14.1213 4.09828 14.4152 4.23862 14.8037C4.32501 15.0428 4.42213 15.2767 4.5294 15.505C4.70512 15.8789 4.67541 16.3244 4.41592 16.6459L3.33683 17.9827C3.01572 18.3804 3.04635 18.9564 3.40784 19.3179L4.68204 20.5921C5.04353 20.9536 5.61947 20.9842 6.01727 20.6631L7.35401 19.584C7.67547 19.3245 8.12103 19.2948 8.49491 19.4705C8.72319 19.5778 8.95719 19.675 9.19633 19.7614C9.58476 19.9017 9.87869 20.2377 9.9225 20.6484L10.1046 22.3561C10.1589 22.8644 10.5878 23.25 11.099 23.25H12.901C13.4122 23.25 13.8411 22.8644 13.8954 22.3561L14.0775 20.6484C14.1213 20.2377 14.4152 19.9017 14.8037 19.7614C15.0428 19.675 15.2767 19.5779 15.505 19.4706C15.8789 19.2949 16.3244 19.3246 16.6459 19.5841L17.9826 20.6631C18.3804 20.9842 18.9563 20.9536 19.3178 20.5921L20.592 19.3179C20.9535 18.9564 20.9842 18.3805 20.663 17.9827L19.584 16.646C19.3245 16.3245 19.2948 15.879 19.4705 15.5051C19.5778 15.2768 19.675 15.0428 19.7614 14.8037C19.9017 14.4152 20.2377 14.1213 20.6484 14.0775L22.3561 13.8954C22.8644 13.8411 23.25 13.4122 23.25 12.901V11.099C23.25 10.5878 22.8644 10.1589 22.3561 10.1046L20.6484 9.9225C20.2377 9.87869 19.9017 9.58476 19.7614 9.19632C19.675 8.95718 19.5778 8.72318 19.4705 8.49489C19.2948 8.12101 19.3245 7.67545 19.584 7.35399L20.663 6.01739C20.9841 5.6196 20.9534 5.04366 20.5919 4.68217L19.3177 3.40797C18.9562 3.04648 18.3803 3.01585 17.9825 3.33696L16.6459 4.41593C16.3244 4.67541 15.8789 4.70513 15.505 4.52941C15.2767 4.42213 15.0428 4.32501 14.8037 4.23862C14.4152 4.09828 14.1213 3.76228 14.0775 3.35159L13.8954 1.64394ZM12 16.5C14.4853 16.5 16.5 14.4853 16.5 12C16.5 9.51472 14.4853 7.5 12 7.5C9.51472 7.5 7.5 9.51472 7.5 12C7.5 14.4853 9.51472 16.5 12 16.5Z" stroke="white" stroke-opacity="0.94902" stroke-width="1.5"/>
</svg>
