<svg width="24" height="24" viewBox="0 0 24 24" fill="none" xmlns="http://www.w3.org/2000/svg">
<path d="M0.750044 5.41981L0.25016 4.86069C0.0910165 5.00297 4.54925e-05 5.20633 4.35978e-05 5.4198L0.750044 5.41981ZM23.25 5.41981L24 5.41986C24 5.20636 23.909 5.00298 23.7499 4.86069L23.25 5.41981ZM23.25 24C23.6642 24 24 23.6642 24 23.25C24 22.8358 23.6642 22.5 23.25 22.5V24ZM0.750044 22.5C0.33583 22.5 4.35978e-05 22.8358 4.35978e-05 23.25C4.35978e-05 23.6642 0.33583 24 0.750044 24V22.5ZM5.97325 0.75V0C5.78882 0 5.61086 0.0679545 5.47337 0.190878L5.97325 0.75ZM18.0268 0.75L18.5267 0.190879C18.3892 0.0679546 18.2112 0 18.0268 0V0.75ZM7.98217 7.96698L8.66009 7.64617C8.52813 7.3673 8.23885 7.1977 7.93106 7.21872C7.62326 7.23975 7.35974 7.44712 7.26692 7.74134L7.98217 7.96698ZM16.0179 7.96698L16.7331 7.74134C16.6403 7.44712 16.3768 7.23975 16.069 7.21872C15.7612 7.1977 15.4719 7.3673 15.3399 7.64617L16.0179 7.96698ZM23.25 7.96698L23.9653 8.19263C23.9883 8.11961 24 8.0435 24 7.96694L23.25 7.96698ZM0.75 7.96698L2.41115e-10 7.96696C-1.94093e-06 8.04352 0.0117167 8.11962 0.0347486 8.19263L0.75 7.96698ZM22.0446 9.76079L21.5645 9.18462L21.5645 9.18462L22.0446 9.76079ZM22.0446 24H23.25V22.5H22.0446V24ZM1.9554 22.5H0.750044V24H1.9554V22.5ZM1.24993 5.97893L6.47313 1.30912L5.47337 0.190878L0.25016 4.86069L1.24993 5.97893ZM5.97325 1.5H18.0268V0H5.97325V1.5ZM17.5269 1.30912L22.7501 5.97893L23.7499 4.86069L18.5267 0.190879L17.5269 1.30912ZM0.750044 6.16981H23.25V4.66981H0.750044V6.16981ZM3.96432 11.2642C5.7975 11.2642 6.99333 10.5274 7.72332 9.7561C8.08117 9.378 8.3198 9.0001 8.47022 8.71401C8.5457 8.57046 8.59987 8.44831 8.63637 8.35833C8.65465 8.31328 8.66857 8.27609 8.67858 8.24809C8.68359 8.23408 8.68763 8.22235 8.69075 8.21306C8.69231 8.20841 8.69364 8.20437 8.69475 8.20096C8.69531 8.19925 8.69581 8.1977 8.69625 8.19631C8.69647 8.19562 8.69668 8.19496 8.69688 8.19435C8.69698 8.19404 8.69711 8.19361 8.69716 8.19346C8.69729 8.19304 8.69742 8.19263 7.98217 7.96698C7.26692 7.74134 7.26704 7.74095 7.26717 7.74056C7.2672 7.74045 7.26732 7.74008 7.26739 7.73985C7.26754 7.73939 7.26767 7.73896 7.2678 7.73858C7.26805 7.7378 7.26825 7.73718 7.26841 7.7367C7.26872 7.73573 7.26885 7.73535 7.26879 7.73552C7.26867 7.73587 7.26781 7.73844 7.26615 7.74309C7.26282 7.7524 7.25634 7.76993 7.24636 7.79453C7.22636 7.84385 7.19264 7.9207 7.14256 8.01594C7.04187 8.20745 6.87871 8.46634 6.63388 8.72503C6.15852 9.2273 5.34542 9.76415 3.96432 9.76415V11.2642ZM7.98217 7.96698C7.30425 8.28779 7.3044 8.2881 7.30455 8.28842C7.3046 8.28854 7.30476 8.28887 7.30487 8.28911C7.3051 8.28959 7.30535 8.2901 7.30561 8.29066C7.30614 8.29177 7.30675 8.29304 7.30744 8.29447C7.30882 8.29732 7.3105 8.30079 7.3125 8.30486C7.3165 8.31301 7.32175 8.32355 7.32828 8.33635C7.34133 8.36193 7.35949 8.39656 7.38288 8.43893C7.42961 8.52357 7.49756 8.63973 7.58771 8.77691C7.76729 9.05013 8.03924 9.41317 8.41277 9.77748C9.1625 10.5087 10.3451 11.2642 12 11.2642V9.76415C10.8425 9.76415 10.0162 9.24601 9.46009 8.70365C9.18071 8.43117 8.97554 8.15742 8.84121 7.95304C8.77442 7.85142 8.72622 7.76859 8.69604 7.71393C8.68098 7.68666 8.6705 7.66655 8.66451 7.65482C8.66152 7.64896 8.65967 7.64521 8.65893 7.64371C8.65856 7.64296 8.65848 7.64278 8.65867 7.64318C8.65877 7.64339 8.65894 7.64373 8.65917 7.64423C8.65929 7.64448 8.65943 7.64476 8.65958 7.64509C8.65966 7.64525 8.65979 7.64552 8.65983 7.6456C8.65996 7.64588 8.66009 7.64617 7.98217 7.96698ZM12 11.2642C13.655 11.2642 14.8375 10.5087 15.5873 9.77748C15.9608 9.41317 16.2328 9.05013 16.4123 8.77691C16.5025 8.63973 16.5704 8.52357 16.6172 8.43893C16.6406 8.39656 16.6587 8.36193 16.6718 8.33635C16.6783 8.32355 16.6835 8.31301 16.6875 8.30486C16.6895 8.30079 16.6912 8.29732 16.6926 8.29447C16.6933 8.29304 16.6939 8.29177 16.6944 8.29066C16.6947 8.2901 16.6949 8.28959 16.6952 8.28911C16.6953 8.28887 16.6954 8.28854 16.6955 8.28842C16.6956 8.2881 16.6958 8.28779 16.0179 7.96698C15.3399 7.64617 15.3401 7.64588 15.3402 7.6456C15.3403 7.64552 15.3404 7.64525 15.3405 7.64509C15.3406 7.64476 15.3408 7.64448 15.3409 7.64423C15.3411 7.64373 15.3413 7.64339 15.3414 7.64318C15.3416 7.64278 15.3415 7.64296 15.3411 7.64371C15.3404 7.64521 15.3385 7.64896 15.3355 7.65482C15.3295 7.66655 15.3191 7.68666 15.304 7.71393C15.2738 7.76859 15.2256 7.85142 15.1588 7.95304C15.0245 8.15742 14.8193 8.43117 14.54 8.70365C13.9839 9.24601 13.1575 9.76415 12 9.76415V11.2642ZM16.0179 7.96698C15.3026 8.19263 15.3028 8.19304 15.3029 8.19346C15.3029 8.19361 15.3031 8.19404 15.3032 8.19435C15.3034 8.19496 15.3036 8.19562 15.3038 8.19631C15.3042 8.1977 15.3047 8.19925 15.3053 8.20096C15.3064 8.20437 15.3077 8.20841 15.3093 8.21306C15.3124 8.22235 15.3165 8.23408 15.3215 8.24809C15.3315 8.27609 15.3454 8.31328 15.3637 8.35833C15.4002 8.44831 15.4543 8.57046 15.5298 8.71401C15.6802 9.0001 15.9189 9.378 16.2767 9.7561C17.0067 10.5274 18.2025 11.2642 20.0357 11.2642V9.76415C18.6546 9.76415 17.8415 9.2273 17.3662 8.72503C17.1213 8.46634 16.9582 8.20745 16.8575 8.01594C16.8074 7.9207 16.7737 7.84385 16.7537 7.79453C16.7437 7.76993 16.7372 7.7524 16.7339 7.74309C16.7322 7.73844 16.7314 7.73587 16.7313 7.73552C16.7312 7.73535 16.7313 7.73573 16.7316 7.7367C16.7318 7.73718 16.732 7.7378 16.7322 7.73858C16.7324 7.73896 16.7325 7.73939 16.7327 7.73985C16.7327 7.74008 16.7328 7.74045 16.7329 7.74056C16.733 7.74095 16.7331 7.74134 16.0179 7.96698ZM24 7.96694C24 7.33017 24 6.6934 24 6.21582C24 5.97703 24 5.77803 24 5.63874C24 5.56909 24 5.51437 24 5.47706C24 5.45841 24 5.4441 24 5.43447C24 5.42965 24 5.42599 24 5.42355C24 5.42232 24 5.4214 24 5.42078C24 5.42047 24 5.42024 24 5.42009C24 5.42001 24 5.41995 24 5.41991C24 5.41989 24 5.41988 24 5.41987C24 5.41986 24 5.41986 23.25 5.41981C22.5 5.41977 22.5 5.41977 22.5 5.41978C22.5 5.41979 22.5 5.41981 22.5 5.41983C22.5 5.41986 22.5 5.41992 22.5 5.42C22.5 5.42016 22.5 5.42039 22.5 5.4207C22.5 5.42131 22.5 5.42224 22.5 5.42346C22.5 5.42591 22.5 5.42956 22.5 5.43438C22.5 5.44402 22.5 5.45833 22.5 5.47698C22.5 5.5143 22.5 5.56903 22.5 5.63868C22.5 5.77798 22.5 5.97698 22.5 6.21579C22.5 6.69339 22.5 7.33021 22.5 7.96703L24 7.96694ZM0.750044 5.41981C4.35978e-05 5.4198 4.35978e-05 5.41981 4.35977e-05 5.41982C4.35976e-05 5.41983 4.35975e-05 5.41984 4.35973e-05 5.41986C4.3597e-05 5.4199 4.35964e-05 5.41996 4.35957e-05 5.42004C4.35944e-05 5.42019 4.35923e-05 5.42042 4.35895e-05 5.42073C4.35839e-05 5.42135 4.35756e-05 5.42227 4.35644e-05 5.4235C4.3542e-05 5.42595 4.35083e-05 5.4296 4.3463e-05 5.43442C4.33723e-05 5.44406 4.32351e-05 5.45836 4.3049e-05 5.47702C4.26769e-05 5.51433 4.21092e-05 5.56905 4.13271e-05 5.6387C3.97628e-05 5.778 3.73406e-05 5.97699 3.39093e-05 6.21579C2.70467e-05 6.69338 1.61473e-05 7.33017 2.41115e-10 7.96696L1.5 7.967C1.50002 7.3302 1.50003 6.69341 1.50003 6.21581C1.50004 5.97701 1.50004 5.77802 1.50004 5.63872C1.50004 5.56907 1.50004 5.51434 1.50004 5.47703C1.50004 5.45837 1.50004 5.44407 1.50004 5.43443C1.50004 5.42961 1.50004 5.42596 1.50004 5.42351C1.50004 5.42229 1.50004 5.42136 1.50004 5.42075C1.50004 5.42044 1.50004 5.42021 1.50004 5.42005C1.50004 5.41997 1.50004 5.41992 1.50004 5.41988C1.50004 5.41986 1.50004 5.41984 1.50004 5.41983C1.50004 5.41982 1.50004 5.41982 0.750044 5.41981ZM20.0357 11.2642C21.0165 11.2642 21.8667 10.8853 22.5248 10.337L21.5645 9.18462C21.1334 9.5439 20.6138 9.76415 20.0357 9.76415V11.2642ZM22.5248 10.337C23.2174 9.75978 23.7167 8.98047 23.9653 8.19263L22.5347 7.74134C22.3694 8.26535 22.0286 8.79792 21.5645 9.18462L22.5248 10.337ZM22.7946 23.25V9.76079H21.2946V23.25H22.7946ZM0.0347486 8.19263C0.283301 8.98049 0.782617 9.7598 1.47527 10.337L2.43552 9.18463C1.97145 8.79792 1.63057 8.26535 1.46525 7.74134L0.0347486 8.19263ZM1.47527 10.337C2.13332 10.8853 2.98357 11.2642 3.96432 11.2642V9.76415C3.38626 9.76415 2.86667 9.5439 2.43552 9.18463L1.47527 10.337ZM2.7054 23.25V9.76081H1.2054V23.25H2.7054ZM9.93748 23.25V19.6946H8.43748V23.25H9.93748ZM14.0625 19.6946V23.25H15.5625V19.6946H14.0625ZM1.9554 24H9.18748V22.5H1.9554V24ZM14.8125 24H22.0446V22.5H14.8125V24ZM9.18748 24H14.8125V22.5H9.18748V24ZM12 17.6321C13.1391 17.6321 14.0625 18.5555 14.0625 19.6946H15.5625C15.5625 17.7271 13.9675 16.1321 12 16.1321V17.6321ZM9.93748 19.6946C9.93748 18.5555 10.8609 17.6321 12 17.6321V16.1321C10.0325 16.1321 8.43748 17.7271 8.43748 19.6946H9.93748Z" fill="white" fill-opacity="0.94902"/>
</svg>
