<svg width="24" height="24" viewBox="0 0 24 24" fill="none" xmlns="http://www.w3.org/2000/svg">
<path fill-rule="evenodd" clip-rule="evenodd" d="M12 0C5.37258 0 0 5.37258 0 12C0 18.6274 5.37258 24 12 24H24V12C24 5.37258 18.6274 0 12 0ZM5.5 14.5C6.60457 14.5 7.5 13.6046 7.5 12.5C7.5 11.3954 6.60457 10.5 5.5 10.5C4.39543 10.5 3.5 11.3954 3.5 12.5C3.5 13.6046 4.39543 14.5 5.5 14.5ZM14 12.5C14 13.6046 13.1046 14.5 12 14.5C10.8954 14.5 10 13.6046 10 12.5C10 11.3954 10.8954 10.5 12 10.5C13.1046 10.5 14 11.3954 14 12.5ZM18.5 14.5C19.6046 14.5 20.5 13.6046 20.5 12.5C20.5 11.3954 19.6046 10.5 18.5 10.5C17.3954 10.5 16.5 11.3954 16.5 12.5C16.5 13.6046 17.3954 14.5 18.5 14.5Z" fill="black" fill-opacity="0.85098"/>
</svg>
