<svg width="24" height="24" viewBox="0 0 24 24" fill="none" xmlns="http://www.w3.org/2000/svg">
<path fill-rule="evenodd" clip-rule="evenodd" d="M1.2 21.6V2.4C1.2 1.07452 2.27451 0 3.6 0H20.4C21.7255 0 22.8 1.07452 22.8 2.4V21.6C22.8 22.9255 21.7255 24 20.4 24H3.6C2.27451 24 1.2 22.9255 1.2 21.6ZM7.2 3.6C6.53725 3.6 6 4.13726 6 4.8C6 5.46274 6.53725 6 7.2 6H16.8C17.4627 6 18 5.46274 18 4.8C18 4.13726 17.4627 3.6 16.8 3.6H7.2ZM15.158 13.4697C15.6718 13.8884 15.7489 14.6442 15.3303 15.158L12.3969 18.758C12.0112 19.2314 11.3314 19.3396 10.8178 19.0094L8.95109 17.8094C8.3936 17.451 8.2322 16.7086 8.59058 16.1511C8.94896 15.5936 9.69142 15.4322 10.2489 15.7906L11.2137 16.4108L13.4697 13.642C13.8884 13.1282 14.6442 13.0511 15.158 13.4697Z" fill="black" fill-opacity="0.85098"/>
</svg>
