<svg width="29" height="24" viewBox="0 0 29 24" fill="none" xmlns="http://www.w3.org/2000/svg">
<path d="M18.1886 7.1875C18.1886 10.625 15.4386 14.0625 12.0011 14.0625C8.56356 14.0625 5.81356 10.625 5.81356 7.1875C5.81356 3.75 8.56356 1 12.0011 1C15.4386 1 18.1886 3.75 18.1886 7.1875Z" fill="white" fill-opacity="0.94902"/>
<path d="M1.28838 23C1.1362 23 1.02432 22.8682 1.07148 22.7235C1.40497 21.7003 3.1914 18.1875 12.0011 18.1875C20.811 18.1875 22.5957 21.7005 22.9287 22.7236C22.9758 22.8683 22.8639 23 22.7118 23H1.28838Z" fill="white" fill-opacity="0.94902"/>
<path d="M18.1886 7.1875C18.1886 10.625 15.4386 14.0625 12.0011 14.0625C8.56356 14.0625 5.81356 10.625 5.81356 7.1875C5.81356 3.75 8.56356 1 12.0011 1C15.4386 1 18.1886 3.75 18.1886 7.1875Z" stroke="white" stroke-opacity="0.94902" stroke-width="1.5" stroke-linecap="round"/>
<path d="M1.28838 23C1.1362 23 1.02432 22.8682 1.07148 22.7235C1.40497 21.7003 3.1914 18.1875 12.0011 18.1875C20.811 18.1875 22.5957 21.7005 22.9287 22.7236C22.9758 22.8683 22.8639 23 22.7118 23H1.28838Z" stroke="white" stroke-opacity="0.94902" stroke-width="1.5" stroke-linecap="round"/>
<path fill-rule="evenodd" clip-rule="evenodd" d="M19.2223 12.9808C21.0059 11.696 22 9.58759 22 7.33334C22 4.89934 20.8097 2.66419 18.7844 1.65177C19.3722 1.44541 20.0059 1.33334 20.6676 1.33334C23.7925 1.33334 26.2925 3.83334 26.2925 6.95834C26.2925 10.0833 23.7925 13.2083 20.6676 13.2083C20.1672 13.2083 19.6829 13.1282 19.2223 12.9808Z" fill="white" fill-opacity="0.94902"/>
<path d="M20.6676 16.9583C26.7431 16.9583 28.2719 19.6139 28.6667 20.6667C28.7379 20.8566 28.6667 21.3333 28 21.3333H26.8686C26.4254 21.3333 26.0253 21.0414 25.7959 20.6623C25.2497 19.7597 23.8748 18.1326 20.6676 16.9583Z" fill="white" fill-opacity="0.94902"/>
</svg>
