<svg width="29" height="24" viewBox="0 0 29 24" fill="none" xmlns="http://www.w3.org/2000/svg">
<path d="M1 23C1 23 1.68962 18.1875 12.0011 18.1875C22.3125 18.1875 23 23 23 23M18.1886 7.1875C18.1886 10.625 15.4386 14.0625 12.0011 14.0625C8.56356 14.0625 5.81356 10.625 5.81356 7.1875C5.81356 3.75 8.56356 1 12.0011 1C15.4386 1 18.1886 3.75 18.1886 7.1875Z" stroke="white" stroke-opacity="0.94902" stroke-width="1.5" stroke-linecap="round"/>
<path d="M20.715 16.0474C26.2482 16.0474 27.6404 18.5199 28 19.5M19.3987 12.3442C19.8182 12.4814 20.2593 12.556 20.715 12.556C23.561 12.556 25.8378 9.64655 25.8378 6.73707C25.8378 3.82759 23.561 1.5 20.715 1.5C20.1124 1.5 19.5353 1.60435 19 1.79647" stroke="white" stroke-opacity="0.94902" stroke-width="1.5" stroke-linecap="round"/>
</svg>
