<svg width="24" height="24" viewBox="0 0 24 24" fill="none" xmlns="http://www.w3.org/2000/svg">
<path d="M18.1886 7.1875C18.1886 10.625 15.4386 14.0625 12.0011 14.0625C8.56356 14.0625 5.81356 10.625 5.81356 7.1875C5.81356 3.75 8.56356 1 12.0011 1C15.4386 1 18.1886 3.75 18.1886 7.1875Z" fill="black" fill-opacity="0.85098"/>
<path d="M1.28838 23C1.1362 23 1.02432 22.8682 1.07148 22.7235C1.40497 21.7003 3.1914 18.1875 12.0011 18.1875C20.811 18.1875 22.5957 21.7005 22.9287 22.7236C22.9758 22.8683 22.8639 23 22.7118 23H1.28838Z" fill="black" fill-opacity="0.85098"/>
<path d="M18.1886 7.1875C18.1886 10.625 15.4386 14.0625 12.0011 14.0625C8.56356 14.0625 5.81356 10.625 5.81356 7.1875C5.81356 3.75 8.56356 1 12.0011 1C15.4386 1 18.1886 3.75 18.1886 7.1875Z" stroke="black" stroke-opacity="0.85098" stroke-width="1.5" stroke-linecap="round"/>
<path d="M1.28838 23C1.1362 23 1.02432 22.8682 1.07148 22.7235C1.40497 21.7003 3.1914 18.1875 12.0011 18.1875C20.811 18.1875 22.5957 21.7005 22.9287 22.7236C22.9758 22.8683 22.8639 23 22.7118 23H1.28838Z" stroke="black" stroke-opacity="0.85098" stroke-width="1.5" stroke-linecap="round"/>
</svg>
