<svg width="24" height="24" viewBox="0 0 24 24" fill="none" xmlns="http://www.w3.org/2000/svg">
<path d="M2.37717 17.8312L2.55048 18.1166L2.45443 18.4363L1.10356 22.9333L5.83574 21.685L6.13373 21.6064L6.40089 21.76C8.0491 22.7077 9.96008 23.25 12 23.25C18.2132 23.25 23.25 18.2132 23.25 12C23.25 5.7868 18.2132 0.75 12 0.75C5.78679 0.75 0.75 5.7868 0.75 12C0.75 14.1362 1.3447 16.1313 2.37717 17.8312Z" stroke="white" stroke-opacity="0.94902" stroke-width="1.5"/>
<path d="M14.556 14.0401C14.3773 13.9062 14.1418 13.8818 13.9384 13.9733L12.9085 14.4386C12.6779 14.5428 12.4099 14.4971 12.2294 14.3199C11.9175 14.0137 11.4173 13.5013 10.9923 12.9673C10.5672 12.4334 10.18 11.8311 9.95148 11.4584C9.81932 11.2428 9.83485 10.9714 9.98809 10.7701L10.6724 9.87062C10.8077 9.69303 10.8355 9.45597 10.7451 9.2518L9.60413 6.67318C9.49348 6.42373 9.23401 6.27773 8.9631 6.3124C8.7 6.34557 8.35035 6.45965 7.96229 6.769C6.74733 7.73619 5.95888 9.51069 9.59606 14.0797C13.2332 18.6486 15.1388 18.2785 16.3543 17.3109C16.7434 17.0012 16.9325 16.6855 17.0244 16.4361C17.1179 16.1802 17.0354 15.8967 16.8176 15.7335C16.2735 15.3264 15.1 14.4477 14.556 14.0401Z" fill="white" fill-opacity="0.94902"/>
</svg>
