<svg width="24" height="24" viewBox="0 0 24 24" fill="none" xmlns="http://www.w3.org/2000/svg">
<path fill-rule="evenodd" clip-rule="evenodd" d="M12 24C18.6274 24 24 18.6274 24 12C24 5.37258 18.6274 0 12 0C5.37258 0 0 5.37258 0 12C0 14.2774 0.634407 16.4066 1.73614 18.2206L0 24L6.02703 22.4102C7.78595 23.4216 9.82543 24 12 24ZM13.9384 13.9733C14.1418 13.8818 14.3773 13.9062 14.556 14.0401C15.1 14.4477 16.2735 15.3264 16.8176 15.7335C17.0354 15.8967 17.1179 16.1802 17.0243 16.4361C16.9325 16.6855 16.7434 17.0012 16.3543 17.3109C15.1388 18.2785 13.2332 18.6486 9.59606 14.0797C5.95888 9.51069 6.74733 7.73619 7.96229 6.769C8.35035 6.45965 8.7 6.34557 8.9631 6.3124C9.23401 6.27773 9.49348 6.42373 9.60413 6.67318L10.7451 9.2518C10.8355 9.45597 10.8077 9.69303 10.6724 9.87062L9.98809 10.7701C9.83485 10.9714 9.81932 11.2428 9.95148 11.4584C10.18 11.8311 10.5672 12.4334 10.9923 12.9673C11.4173 13.5013 11.9175 14.0137 12.2294 14.3199C12.4099 14.4971 12.6779 14.5428 12.9085 14.4386L13.9384 13.9733Z" fill="black" fill-opacity="0.85098"/>
</svg>
