<svg width="31" height="24" viewBox="0 0 31 24" fill="none" xmlns="http://www.w3.org/2000/svg">
<path d="M19.6013 7.47783L19.029 7.96255L19.0419 7.97778L19.0556 7.99231L19.6013 7.47783ZM16.6026 9.23166L16.0064 9.68675L16.0334 9.72207L16.0643 9.75397L16.6026 9.23166ZM15.0304 16.9945L14.7176 17.6762C15.0469 17.8273 15.4373 17.7214 15.645 17.4244C15.8527 17.1275 15.8184 16.7245 15.5634 16.4669L15.0304 16.9945ZM16.0685 14.1572C16.3593 14.4521 16.8342 14.4555 17.1291 14.1647C17.4241 13.8739 17.4275 13.399 17.1366 13.1041L16.0685 14.1572ZM18.7428 12.5141C19.0313 12.8114 19.5061 12.8185 19.8033 12.53C20.1006 12.2416 20.1077 11.7667 19.8193 11.4695L18.7428 12.5141ZM21.4138 10.4937C21.6979 10.7951 22.1726 10.8091 22.474 10.5249C22.7754 10.2408 22.7894 9.7661 22.5052 9.46471L21.4138 10.4937ZM8.61836 0.75C8.61836 0.335786 8.28257 0 7.86836 0C7.45415 0 7.11836 0.335786 7.11836 0.75H8.61836ZM7.11836 3.13637C7.11836 3.55058 7.45415 3.88637 7.86836 3.88637C8.28257 3.88637 8.61836 3.55058 8.61836 3.13637H7.11836ZM8.61836 12.4231C8.61836 12.0088 8.28257 11.6731 7.86836 11.6731C7.45415 11.6731 7.11836 12.0088 7.11836 12.4231H8.61836ZM7.11836 14.8094C7.11836 15.2236 7.45415 15.5594 7.86836 15.5594C8.28257 15.5594 8.61836 15.2236 8.61836 14.8094H7.11836ZM2.30792 12.2168C2.0132 12.5079 2.01022 12.9827 2.30127 13.2775C2.59233 13.5722 3.06719 13.5752 3.36191 13.2841L2.30792 12.2168ZM5.07061 11.5967C5.36533 11.3057 5.36831 10.8308 5.07725 10.5361C4.7862 10.2413 4.31134 10.2384 4.01661 10.5294L5.07061 11.5967ZM10.6661 3.96273C10.3714 4.25378 10.3684 4.72865 10.6595 5.02337C10.9505 5.31809 11.4254 5.32107 11.7201 5.03001L10.6661 3.96273ZM13.4288 3.3426C13.7235 3.05155 13.7265 2.57668 13.4354 2.28196C13.1444 1.98724 12.6695 1.98426 12.3748 2.27532L13.4288 3.3426ZM0.75 7.02971C0.335786 7.02971 0 7.3655 0 7.77971C0 8.19393 0.335786 8.52971 0.75 8.52971V7.02971ZM3.16646 8.52971C3.58067 8.52971 3.91646 8.19393 3.91646 7.77971C3.91646 7.3655 3.58067 7.02971 3.16646 7.02971V8.52971ZM3.36191 2.27531C3.06719 1.98426 2.59233 1.98723 2.30127 2.28196C2.01022 2.57668 2.0132 3.05154 2.30792 3.3426L3.36191 2.27531ZM4.01661 5.03001C4.31134 5.32106 4.7862 5.31809 5.07725 5.02336C5.36831 4.72864 5.36533 4.25378 5.07061 3.96273L4.01661 5.03001ZM28.3071 21.4406C30.2465 19.5414 30.6687 17.3134 30.3935 15.3387C30.1229 13.3974 29.1821 11.689 28.3638 10.6844L27.2008 11.6316C27.8812 12.4671 28.6822 13.9265 28.9078 15.5457C29.1288 17.1316 28.8016 18.8569 27.2576 20.3689L28.3071 21.4406ZM28.3638 10.6844C26.8312 8.80259 23.3054 5.35233 23.0251 5.09004L22.0003 6.18544C22.2732 6.44068 25.736 9.83324 27.2008 11.6316L28.3638 10.6844ZM23.0251 5.09004C22.8209 4.89906 22.3314 4.54048 21.7121 4.36049C21.0632 4.17186 20.1923 4.16589 19.4335 4.85106L20.4387 5.96439C20.6988 5.72951 20.978 5.70917 21.2935 5.80087C21.6386 5.9012 21.9279 6.11766 22.0003 6.18544L23.0251 5.09004ZM19.4335 4.85106C18.7118 5.50267 18.5766 6.27587 18.641 6.8687C18.6718 7.15299 18.7467 7.39196 18.8127 7.55907C18.8461 7.64366 18.8783 7.7128 18.9039 7.76358C18.9167 7.78905 18.9279 7.81014 18.9369 7.82648C18.9414 7.83467 18.9454 7.84168 18.9487 7.84749C18.9504 7.8504 18.9519 7.85301 18.9532 7.85531C18.9539 7.85646 18.9545 7.85753 18.9551 7.85853C18.9554 7.85903 18.9557 7.85951 18.956 7.85997C18.9561 7.8602 18.9563 7.86053 18.9564 7.86065C18.9566 7.86097 18.9568 7.86129 19.6013 7.47783C20.2459 7.09436 20.2461 7.09468 20.2462 7.09498C20.2463 7.09508 20.2465 7.09539 20.2466 7.09558C20.2468 7.09597 20.247 7.09635 20.2473 7.09671C20.2477 7.09743 20.2481 7.09808 20.2484 7.09868C20.2491 7.09986 20.2496 7.10081 20.2501 7.10151C20.2509 7.10291 20.2511 7.10336 20.2508 7.10289C20.2503 7.10194 20.2479 7.09742 20.2439 7.08965C20.236 7.07394 20.2228 7.04605 20.208 7.00844C20.1775 6.93117 20.145 6.82511 20.1322 6.70689C20.1092 6.49468 20.1414 6.23282 20.4387 5.96439L19.4335 4.85106ZM19.6013 7.47783C20.1736 6.99311 20.1734 6.99289 20.1732 6.99266C20.1732 6.99257 20.173 6.99234 20.1728 6.99217C20.1725 6.99183 20.1722 6.99147 20.1719 6.99108C20.1712 6.9903 20.1705 6.98943 20.1697 6.98846C20.168 6.98652 20.166 6.98419 20.1637 6.9815C20.159 6.97611 20.1529 6.96923 20.1456 6.961C20.1309 6.94455 20.1109 6.92261 20.086 6.89624C20.0362 6.84364 19.9659 6.7726 19.8777 6.69189C19.7038 6.53271 19.4482 6.32463 19.1326 6.14784C18.5032 5.79522 17.5034 5.51023 16.5095 6.20055L17.3652 7.43254C17.696 7.20281 18.0282 7.24846 18.3995 7.45649C18.5844 7.56003 18.7463 7.68979 18.865 7.79835C18.923 7.85151 18.9677 7.89683 18.9964 7.92712C19.0106 7.94219 19.0207 7.95333 19.0263 7.95959C19.0291 7.96272 19.0307 7.96461 19.0312 7.96514C19.0314 7.96541 19.0314 7.96534 19.031 7.96491C19.0308 7.9647 19.0306 7.9644 19.0302 7.964C19.0301 7.96381 19.0299 7.96359 19.0297 7.96334C19.0296 7.96322 19.0294 7.96302 19.0293 7.96296C19.0292 7.96276 19.029 7.96255 19.6013 7.47783ZM16.5095 6.20055C16.0562 6.51537 15.7663 6.90745 15.6176 7.33631C15.4724 7.75509 15.4779 8.16117 15.5335 8.49304C15.589 8.824 15.6981 9.10614 15.7889 9.30079C15.8351 9.39978 15.8786 9.48055 15.912 9.53879C15.9288 9.56801 15.9432 9.59185 15.9543 9.60978C15.9599 9.61875 15.9646 9.62628 15.9685 9.63228C15.9704 9.63528 15.9721 9.63791 15.9736 9.64015C15.9743 9.64127 15.975 9.64229 15.9756 9.64322C15.9759 9.64368 15.9762 9.64412 15.9764 9.64453C15.9766 9.64474 15.9768 9.64503 15.9768 9.64514C15.977 9.64542 15.9772 9.64571 16.6026 9.23166C17.2279 8.81762 17.2281 8.81789 17.2283 8.81815C17.2283 8.81823 17.2285 8.81849 17.2286 8.81866C17.2288 8.81898 17.229 8.81928 17.2292 8.81956C17.2296 8.82013 17.2299 8.82061 17.2302 8.82101C17.2307 8.8218 17.231 8.82227 17.2311 8.82241C17.2312 8.8227 17.2306 8.82172 17.2292 8.81952C17.2265 8.8151 17.2209 8.80592 17.2132 8.79246C17.1976 8.76534 17.1742 8.72212 17.1483 8.66657C17.0949 8.55215 17.0393 8.40302 17.0129 8.2452C16.9866 8.0883 16.9931 7.94811 17.0348 7.8278C17.073 7.71757 17.1561 7.57774 17.3652 7.43254L16.5095 6.20055ZM16.6026 9.23166C17.1987 8.77658 17.1986 8.77637 17.1984 8.77616C17.1983 8.77608 17.1982 8.77586 17.1981 8.7757C17.1978 8.77538 17.1975 8.77503 17.1972 8.77464C17.1967 8.77388 17.196 8.77301 17.1952 8.77202C17.1937 8.77004 17.1918 8.7676 17.1896 8.76474C17.1851 8.759 17.1792 8.75151 17.1719 8.74243C17.1574 8.72427 17.1373 8.69964 17.1121 8.66973C17.0618 8.61005 16.9903 8.52853 16.9005 8.43495C16.7236 8.25041 16.4638 8.00633 16.1459 7.79112C15.5365 7.3787 14.4783 6.93627 13.4348 7.6691L14.2969 8.89664C14.5635 8.70942 14.8737 8.74139 15.3051 9.03337C15.5076 9.17037 15.6864 9.336 15.8179 9.47312C15.8823 9.54036 15.9325 9.59765 15.9653 9.63659C15.9817 9.65598 15.9935 9.6706 16.0005 9.67937C16.004 9.68375 16.0063 9.68664 16.0073 9.68792C16.0078 9.68856 16.008 9.6888 16.0078 9.68861C16.0078 9.68851 16.0076 9.68831 16.0074 9.688C16.0073 9.68785 16.0071 9.68766 16.007 9.68746C16.0069 9.68735 16.0067 9.68717 16.0067 9.68712C16.0066 9.68694 16.0064 9.68675 16.6026 9.23166ZM13.4348 7.6691C12.5553 8.28679 12.3143 9.0688 12.3808 9.73715C12.4112 10.0428 12.5023 10.2969 12.5821 10.4711C12.6226 10.5597 12.6622 10.6318 12.6935 10.6845C12.7092 10.7111 12.7231 10.733 12.7342 10.7501C12.7398 10.7586 12.7447 10.766 12.7489 10.7721C12.751 10.7751 12.7529 10.7779 12.7546 10.7803C12.7554 10.7815 12.7562 10.7827 12.757 10.7837C12.7573 10.7843 12.7577 10.7848 12.758 10.7853C12.7582 10.7855 12.7585 10.7859 12.7586 10.786C12.7588 10.7863 12.759 10.7867 13.3709 10.353C13.9828 9.91926 13.983 9.9196 13.9833 9.91993C13.9834 9.92003 13.9836 9.92036 13.9837 9.92057C13.984 9.92099 13.9843 9.9214 13.9846 9.92179C13.9851 9.92257 13.9856 9.9233 13.9861 9.92396C13.987 9.92528 13.9878 9.92636 13.9883 9.92721C13.9895 9.92891 13.99 9.92969 13.9899 9.92958C13.9898 9.92935 13.9874 9.9257 13.9834 9.91896C13.9753 9.90524 13.9614 9.88032 13.9459 9.84665C13.9138 9.77648 13.8831 9.68556 13.8734 9.58872C13.8598 9.45203 13.8664 9.19899 14.2969 8.89664L13.4348 7.6691ZM13.3709 10.353C13.9028 9.82417 13.9028 9.82415 13.9027 9.82412C13.9027 9.82409 13.9027 9.82404 13.9026 9.82398C13.9025 9.82386 13.9023 9.82367 13.902 9.82343C13.9016 9.82294 13.9008 9.82222 13.8999 9.82126C13.898 9.81935 13.8951 9.81649 13.8914 9.81272C13.8839 9.80519 13.8728 9.79402 13.8583 9.77944C13.8293 9.75029 13.7867 9.70751 13.7325 9.653C13.624 9.54397 13.4687 9.38799 13.2815 9.20009C12.9072 8.82432 12.405 8.3208 11.8942 7.81001C11.3835 7.29939 10.8633 6.78074 10.4531 6.37499C10.0629 5.98896 9.73054 5.66309 9.62893 5.5786L8.66986 6.73193C8.66587 6.72861 8.6806 6.74129 8.72705 6.78522C8.76766 6.82362 8.82152 6.87542 8.88762 6.93963C9.01954 7.06779 9.19447 7.2398 9.39826 7.4414C9.80555 7.84428 10.3235 8.36068 10.8336 8.87074C11.3435 9.38061 11.8449 9.88339 12.2189 10.2588C12.4058 10.4464 12.5609 10.6022 12.6692 10.7111C12.7234 10.7655 12.7659 10.8082 12.7948 10.8373C12.8093 10.8518 12.8203 10.8629 12.8278 10.8704C12.8315 10.8742 12.8343 10.877 12.8362 10.8789C12.8372 10.8799 12.8379 10.8806 12.8384 10.8811C12.8386 10.8813 12.8388 10.8815 12.8389 10.8816C12.839 10.8817 12.839 10.8817 12.839 10.8817C12.8391 10.8818 12.8391 10.8818 13.3709 10.353ZM9.62893 5.5786C9.44238 5.42346 8.99726 5.10412 8.40289 4.97924C7.76359 4.84491 6.98732 4.94783 6.28007 5.60637L7.30226 6.70416C7.61399 6.4139 7.87852 6.40181 8.09445 6.44718C8.35529 6.50199 8.57982 6.65705 8.66986 6.73193L9.62893 5.5786ZM6.28007 5.60637C5.6036 6.23626 5.3893 6.95505 5.43736 7.59179C5.48162 8.17806 5.74574 8.66387 5.98714 8.91626L7.07115 7.87948C7.07984 7.88856 7.04566 7.85146 7.00644 7.76422C6.97028 7.68377 6.94113 7.5852 6.93311 7.47888C6.91932 7.2962 6.95977 7.02307 7.30226 6.70416L6.28007 5.60637ZM5.98714 8.91626C6.11673 9.05176 8.25033 11.2092 10.3394 13.3207C11.3867 14.3792 12.4262 15.4295 13.2038 16.2153C13.5927 16.6082 13.9161 16.9349 14.1422 17.1634C14.2553 17.2776 14.3441 17.3673 14.4046 17.4285C14.4349 17.459 14.4581 17.4825 14.4737 17.4982C14.4815 17.5061 14.4875 17.5121 14.4914 17.5161C14.4934 17.5181 14.4949 17.5196 14.4959 17.5207C14.4964 17.5212 14.4968 17.5215 14.497 17.5218C14.4972 17.5219 14.4972 17.522 14.4973 17.5221C14.4974 17.5221 14.4974 17.5222 15.0304 16.9945C15.5634 16.4669 15.5634 16.4669 15.5633 16.4668C15.5633 16.4667 15.5632 16.4666 15.5631 16.4665C15.5628 16.4663 15.5624 16.4659 15.5619 16.4654C15.5609 16.4644 15.5594 16.4629 15.5574 16.4609C15.5535 16.4569 15.5476 16.4509 15.5397 16.443C15.5241 16.4272 15.5009 16.4038 15.4707 16.3732C15.4102 16.3121 15.3214 16.2224 15.2083 16.1081C14.9821 15.8797 14.6588 15.553 14.27 15.1601C13.4923 14.3744 12.4529 13.3241 11.4057 12.2657C9.30609 10.1436 7.18905 8.00275 7.07115 7.87948L5.98714 8.91626ZM15.0304 16.9945C15.3433 16.3129 15.3433 16.3129 15.3432 16.3129C15.3432 16.3129 15.3432 16.3129 15.3432 16.3129C15.3431 16.3128 15.3431 16.3128 15.343 16.3128C15.3428 16.3127 15.3425 16.3125 15.3421 16.3124C15.3414 16.3121 15.3404 16.3116 15.339 16.311C15.3363 16.3097 15.3323 16.3079 15.3271 16.3055C15.3167 16.3007 15.3015 16.2938 15.2821 16.2849C15.2433 16.2672 15.1876 16.2418 15.1201 16.2111C14.985 16.1498 14.8017 16.067 14.6093 15.9814C14.2546 15.8236 13.7839 15.6174 13.589 15.5582L13.1529 16.9934C13.1514 16.9929 13.1585 16.9951 13.1774 17.002C13.195 17.0084 13.2178 17.0171 13.246 17.0283C13.3026 17.0506 13.3733 17.0798 13.4546 17.1142C13.617 17.183 13.8111 17.2681 13.9995 17.3519C14.1874 17.4355 14.3671 17.5166 14.5 17.577C14.5664 17.6071 14.6209 17.632 14.6588 17.6493C14.6778 17.6579 14.6925 17.6647 14.7025 17.6693C14.7075 17.6716 14.7113 17.6733 14.7139 17.6745C14.7151 17.6751 14.7161 17.6755 14.7167 17.6758C14.717 17.6759 14.7172 17.676 14.7174 17.6761C14.7174 17.6761 14.7175 17.6761 14.7175 17.6762C14.7175 17.6762 14.7176 17.6762 14.7176 17.6762C14.7176 17.6762 14.7176 17.6762 15.0304 16.9945ZM13.589 15.5582C13.3018 15.4709 12.8097 15.4488 12.3248 15.5764C11.8094 15.7121 11.2006 16.0467 10.8696 16.768L12.2329 17.3936C12.3242 17.1948 12.4868 17.0849 12.7066 17.027C12.8184 16.9976 12.9319 16.9865 13.0276 16.9867C13.1344 16.9869 13.1774 17.0008 13.1529 16.9934L13.589 15.5582ZM10.8696 16.768C10.5577 17.4477 10.6271 18.1073 10.818 18.6065C10.9126 18.8539 11.0395 19.0705 11.1748 19.2456C11.3017 19.4097 11.4681 19.579 11.6631 19.6891L12.4003 18.3827C12.4424 18.4065 12.4196 18.4033 12.3617 18.3284C12.3123 18.2645 12.2591 18.1756 12.2191 18.0708C12.1406 17.8656 12.1227 17.6339 12.2329 17.3936L10.8696 16.768ZM11.6631 19.6891C11.9884 19.8726 17.1332 22.5216 18.5867 23.2006L19.2216 21.8416C17.7964 21.1758 12.6864 18.5442 12.4003 18.3827L11.6631 19.6891ZM18.5867 23.2006C20.1524 23.932 24.4978 25.1708 28.3071 21.4406L27.2576 20.3689C24.0999 23.461 20.5347 22.455 19.2216 21.8416L18.5867 23.2006ZM12.8369 10.8795L16.0685 14.1572L17.1366 13.1041L13.905 9.8264L12.8369 10.8795ZM16.0643 9.75397L18.7428 12.5141L19.8193 11.4695L17.1408 8.70936L16.0643 9.75397ZM19.0556 7.99231L21.4138 10.4937L22.5052 9.46471L20.147 6.96335L19.0556 7.99231ZM7.11836 0.75V3.13637H8.61836V0.75H7.11836ZM7.11836 12.4231V14.8094H8.61836V12.4231H7.11836ZM3.36191 13.2841L5.07061 11.5967L4.01661 10.5294L2.30792 12.2168L3.36191 13.2841ZM11.7201 5.03001L13.4288 3.3426L12.3748 2.27532L10.6661 3.96273L11.7201 5.03001ZM0.75 8.52971H3.16646V7.02971H0.75V8.52971ZM2.30792 3.3426L4.01661 5.03001L5.07061 3.96273L3.36191 2.27531L2.30792 3.3426Z" fill="white" fill-opacity="0.94902"/>
</svg>
