<svg width="31" height="24" viewBox="0 0 31 24" fill="none" xmlns="http://www.w3.org/2000/svg">
<path d="M28.2823 11.158C29.7811 12.9981 31.7658 17.4936 28.2823 20.9047C24.7989 24.3159 20.8436 23.1935 19.4042 22.5211C17.9648 21.8487 12.8374 19.2084 12.5317 19.0359C12.226 18.8634 11.6291 18.0008 12.0513 17.0808C12.4735 16.1607 13.5943 16.1917 13.8709 16.2758C14.1475 16.3598 15.5304 16.9945 15.5304 16.9945C15.5304 16.9945 7.27664 8.65664 7.02914 8.39787C6.78165 8.13911 6.27221 7.10406 7.29117 6.15526C8.31013 5.20647 9.37279 5.92525 9.6494 6.15526C9.92601 6.38528 13.8709 10.353 13.8709 10.353C13.8709 10.353 13.0558 9.20291 14.3659 8.28287C15.676 7.36282 17.1026 9.23166 17.1026 9.23166C17.1026 9.23166 16.1127 7.73659 17.4374 6.81654C18.762 5.8965 20.1013 7.47783 20.1013 7.47783C20.1013 7.47783 19.4171 6.32777 20.4361 5.40772C21.4551 4.48768 22.7361 5.37897 23.0127 5.63774C23.2893 5.89651 26.7836 9.31792 28.2823 11.158Z" fill="white" fill-opacity="0.94902"/>
<path d="M20.1013 7.47783L19.529 7.96255L19.5419 7.97778L19.5556 7.99231L20.1013 7.47783ZM17.1026 9.23166L16.5064 9.68675L16.5334 9.72207L16.5643 9.75397L17.1026 9.23166ZM15.5304 16.9945L15.2176 17.6762C15.5469 17.8273 15.9373 17.7214 16.145 17.4244C16.3527 17.1275 16.3184 16.7245 16.0634 16.4669L15.5304 16.9945ZM16.5685 14.1572C16.8593 14.4521 17.3342 14.4555 17.6291 14.1647C17.9241 13.8739 17.9275 13.399 17.6366 13.1041L16.5685 14.1572ZM19.2428 12.5141C19.5313 12.8114 20.0061 12.8185 20.3033 12.53C20.6006 12.2416 20.6077 11.7667 20.3193 11.4695L19.2428 12.5141ZM21.9138 10.4937C22.1979 10.7951 22.6726 10.8091 22.974 10.5249C23.2754 10.2408 23.2894 9.7661 23.0052 9.46471L21.9138 10.4937ZM9.11836 0.75C9.11836 0.335786 8.78257 0 8.36836 0C7.95415 0 7.61836 0.335786 7.61836 0.75H9.11836ZM7.61836 3.13637C7.61836 3.55058 7.95415 3.88637 8.36836 3.88637C8.78257 3.88637 9.11836 3.55058 9.11836 3.13637H7.61836ZM9.11836 12.4231C9.11836 12.0088 8.78257 11.6731 8.36836 11.6731C7.95415 11.6731 7.61836 12.0088 7.61836 12.4231H9.11836ZM7.61836 14.8094C7.61836 15.2236 7.95415 15.5594 8.36836 15.5594C8.78257 15.5594 9.11836 15.2236 9.11836 14.8094H7.61836ZM2.80792 12.2168C2.5132 12.5079 2.51022 12.9827 2.80127 13.2775C3.09233 13.5722 3.56719 13.5752 3.86191 13.2841L2.80792 12.2168ZM5.57061 11.5967C5.86533 11.3057 5.86831 10.8308 5.57725 10.5361C5.2862 10.2413 4.81134 10.2384 4.51661 10.5294L5.57061 11.5967ZM11.1661 3.96273C10.8714 4.25378 10.8684 4.72865 11.1595 5.02337C11.4505 5.31809 11.9254 5.32107 12.2201 5.03001L11.1661 3.96273ZM13.9288 3.3426C14.2235 3.05155 14.2265 2.57668 13.9354 2.28196C13.6444 1.98724 13.1695 1.98426 12.8748 2.27532L13.9288 3.3426ZM1.25 7.02971C0.835786 7.02971 0.5 7.3655 0.5 7.77971C0.5 8.19393 0.835786 8.52971 1.25 8.52971V7.02971ZM3.66646 8.52971C4.08067 8.52971 4.41646 8.19393 4.41646 7.77971C4.41646 7.3655 4.08067 7.02971 3.66646 7.02971V8.52971ZM3.86191 2.27531C3.56719 1.98426 3.09233 1.98723 2.80127 2.28196C2.51022 2.57668 2.5132 3.05154 2.80792 3.3426L3.86191 2.27531ZM4.51661 5.03001C4.81134 5.32106 5.2862 5.31809 5.57725 5.02336C5.86831 4.72864 5.86533 4.25378 5.57061 3.96273L4.51661 5.03001ZM28.8071 21.4406C30.7465 19.5414 31.1687 17.3134 30.8935 15.3387C30.6229 13.3974 29.6821 11.689 28.8638 10.6844L27.7008 11.6316C28.3812 12.4671 29.1822 13.9265 29.4078 15.5457C29.6288 17.1316 29.3016 18.8569 27.7576 20.3689L28.8071 21.4406ZM28.8638 10.6844C27.3312 8.80259 23.8054 5.35233 23.5251 5.09004L22.5003 6.18544C22.7732 6.44068 26.236 9.83324 27.7008 11.6316L28.8638 10.6844ZM23.5251 5.09004C23.3209 4.89906 22.8314 4.54048 22.2121 4.36049C21.5632 4.17186 20.6923 4.16589 19.9335 4.85106L20.9387 5.96439C21.1988 5.72951 21.478 5.70917 21.7935 5.80087C22.1386 5.9012 22.4279 6.11766 22.5003 6.18544L23.5251 5.09004ZM19.9335 4.85106C19.2118 5.50267 19.0766 6.27587 19.141 6.8687C19.1718 7.15299 19.2467 7.39196 19.3127 7.55907C19.3461 7.64366 19.3783 7.7128 19.4039 7.76358C19.4167 7.78905 19.4279 7.81014 19.4369 7.82648C19.4414 7.83467 19.4454 7.84168 19.4487 7.84749C19.4504 7.8504 19.4519 7.85301 19.4532 7.85531C19.4539 7.85646 19.4545 7.85753 19.4551 7.85853C19.4554 7.85903 19.4557 7.85951 19.456 7.85997C19.4561 7.8602 19.4563 7.86053 19.4564 7.86065C19.4566 7.86097 19.4568 7.86129 20.1013 7.47783C20.7459 7.09436 20.7461 7.09468 20.7462 7.09498C20.7463 7.09508 20.7465 7.09539 20.7466 7.09558C20.7468 7.09597 20.747 7.09635 20.7473 7.09671C20.7477 7.09743 20.7481 7.09808 20.7484 7.09868C20.7491 7.09986 20.7496 7.10081 20.7501 7.10151C20.7509 7.10291 20.7511 7.10336 20.7508 7.10289C20.7503 7.10194 20.7479 7.09742 20.7439 7.08965C20.736 7.07394 20.7228 7.04605 20.708 7.00844C20.6775 6.93117 20.645 6.82511 20.6322 6.70689C20.6092 6.49468 20.6414 6.23282 20.9387 5.96439L19.9335 4.85106ZM20.1013 7.47783C20.6736 6.99311 20.6734 6.99289 20.6732 6.99266C20.6732 6.99257 20.673 6.99234 20.6728 6.99217C20.6725 6.99183 20.6722 6.99147 20.6719 6.99108C20.6712 6.9903 20.6705 6.98943 20.6697 6.98846C20.668 6.98652 20.666 6.98419 20.6637 6.9815C20.659 6.97611 20.6529 6.96923 20.6456 6.961C20.6309 6.94455 20.6109 6.92261 20.586 6.89624C20.5362 6.84364 20.4659 6.7726 20.3777 6.69189C20.2038 6.53271 19.9482 6.32463 19.6326 6.14784C19.0032 5.79522 18.0034 5.51023 17.0095 6.20055L17.8652 7.43254C18.196 7.20281 18.5282 7.24846 18.8995 7.45649C19.0844 7.56003 19.2463 7.68979 19.365 7.79835C19.423 7.85151 19.4677 7.89683 19.4964 7.92712C19.5106 7.94219 19.5207 7.95333 19.5263 7.95959C19.5291 7.96272 19.5307 7.96461 19.5312 7.96514C19.5314 7.96541 19.5314 7.96534 19.531 7.96491C19.5308 7.9647 19.5306 7.9644 19.5302 7.964C19.5301 7.96381 19.5299 7.96359 19.5297 7.96334C19.5296 7.96322 19.5294 7.96302 19.5293 7.96296C19.5292 7.96276 19.529 7.96255 20.1013 7.47783ZM17.0095 6.20055C16.5562 6.51537 16.2663 6.90745 16.1176 7.33631C15.9724 7.75509 15.9779 8.16117 16.0335 8.49304C16.089 8.824 16.1981 9.10614 16.2889 9.30079C16.3351 9.39978 16.3786 9.48055 16.412 9.53879C16.4288 9.56801 16.4432 9.59185 16.4543 9.60978C16.4599 9.61875 16.4646 9.62628 16.4685 9.63228C16.4704 9.63528 16.4721 9.63791 16.4736 9.64015C16.4743 9.64127 16.475 9.64229 16.4756 9.64322C16.4759 9.64368 16.4762 9.64412 16.4764 9.64453C16.4766 9.64474 16.4768 9.64503 16.4768 9.64514C16.477 9.64542 16.4772 9.64571 17.1026 9.23166C17.7279 8.81762 17.7281 8.81789 17.7283 8.81815C17.7283 8.81823 17.7285 8.81849 17.7286 8.81866C17.7288 8.81898 17.729 8.81928 17.7292 8.81956C17.7296 8.82013 17.7299 8.82061 17.7302 8.82101C17.7307 8.8218 17.731 8.82227 17.7311 8.82241C17.7312 8.8227 17.7306 8.82172 17.7292 8.81952C17.7265 8.8151 17.7209 8.80592 17.7132 8.79246C17.6976 8.76534 17.6742 8.72212 17.6483 8.66657C17.5949 8.55215 17.5393 8.40302 17.5129 8.2452C17.4866 8.0883 17.4931 7.94811 17.5348 7.8278C17.573 7.71757 17.6561 7.57774 17.8652 7.43254L17.0095 6.20055ZM17.1026 9.23166C17.6987 8.77658 17.6986 8.77637 17.6984 8.77616C17.6983 8.77608 17.6982 8.77586 17.6981 8.7757C17.6978 8.77538 17.6975 8.77503 17.6972 8.77464C17.6967 8.77388 17.696 8.77301 17.6952 8.77202C17.6937 8.77004 17.6918 8.7676 17.6896 8.76474C17.6851 8.759 17.6792 8.75151 17.6719 8.74243C17.6574 8.72427 17.6373 8.69964 17.6121 8.66973C17.5618 8.61005 17.4903 8.52853 17.4005 8.43495C17.2236 8.25041 16.9638 8.00633 16.6459 7.79112C16.0365 7.3787 14.9783 6.93627 13.9348 7.6691L14.7969 8.89664C15.0635 8.70942 15.3737 8.74139 15.8051 9.03337C16.0076 9.17037 16.1864 9.336 16.3179 9.47312C16.3823 9.54036 16.4325 9.59765 16.4653 9.63659C16.4817 9.65598 16.4935 9.6706 16.5005 9.67937C16.504 9.68375 16.5063 9.68664 16.5073 9.68792C16.5078 9.68856 16.508 9.6888 16.5078 9.68861C16.5078 9.68851 16.5076 9.68831 16.5074 9.688C16.5073 9.68785 16.5071 9.68766 16.507 9.68746C16.5069 9.68735 16.5067 9.68717 16.5067 9.68712C16.5066 9.68694 16.5064 9.68675 17.1026 9.23166ZM13.9348 7.6691C13.0553 8.28679 12.8143 9.0688 12.8808 9.73715C12.9112 10.0428 13.0023 10.2969 13.0821 10.4711C13.1226 10.5597 13.1622 10.6318 13.1935 10.6845C13.2092 10.7111 13.2231 10.733 13.2342 10.7501C13.2398 10.7586 13.2447 10.766 13.2489 10.7721C13.251 10.7751 13.2529 10.7779 13.2546 10.7803C13.2554 10.7815 13.2562 10.7827 13.257 10.7837C13.2573 10.7843 13.2577 10.7848 13.258 10.7853C13.2582 10.7855 13.2585 10.7859 13.2586 10.786C13.2588 10.7863 13.259 10.7867 13.8709 10.353C14.4828 9.91926 14.483 9.9196 14.4833 9.91993C14.4834 9.92003 14.4836 9.92036 14.4837 9.92057C14.484 9.92099 14.4843 9.9214 14.4846 9.92179C14.4851 9.92257 14.4856 9.9233 14.4861 9.92396C14.487 9.92528 14.4878 9.92636 14.4883 9.92721C14.4895 9.92891 14.49 9.92969 14.4899 9.92958C14.4898 9.92935 14.4874 9.9257 14.4834 9.91896C14.4753 9.90524 14.4614 9.88032 14.4459 9.84665C14.4138 9.77648 14.3831 9.68556 14.3734 9.58872C14.3598 9.45203 14.3664 9.19899 14.7969 8.89664L13.9348 7.6691ZM13.8709 10.353C14.4028 9.82417 14.4028 9.82415 14.4027 9.82412C14.4027 9.82409 14.4027 9.82404 14.4026 9.82398C14.4025 9.82386 14.4023 9.82367 14.402 9.82343C14.4016 9.82294 14.4008 9.82222 14.3999 9.82126C14.398 9.81935 14.3951 9.81649 14.3914 9.81272C14.3839 9.80519 14.3728 9.79402 14.3583 9.77944C14.3293 9.75029 14.2867 9.70751 14.2325 9.653C14.124 9.54397 13.9687 9.38799 13.7815 9.20009C13.4072 8.82432 12.905 8.3208 12.3942 7.81001C11.8835 7.29939 11.3633 6.78074 10.9531 6.37499C10.5629 5.98896 10.2305 5.66309 10.1289 5.5786L9.16986 6.73193C9.16587 6.72861 9.1806 6.74129 9.22705 6.78522C9.26766 6.82362 9.32152 6.87542 9.38762 6.93963C9.51954 7.06779 9.69447 7.2398 9.89826 7.4414C10.3055 7.84428 10.8235 8.36068 11.3336 8.87074C11.8435 9.38061 12.3449 9.88339 12.7189 10.2588C12.9058 10.4464 13.0609 10.6022 13.1692 10.7111C13.2234 10.7655 13.2659 10.8082 13.2948 10.8373C13.3093 10.8518 13.3203 10.8629 13.3278 10.8704C13.3315 10.8742 13.3343 10.877 13.3362 10.8789C13.3372 10.8799 13.3379 10.8806 13.3384 10.8811C13.3386 10.8813 13.3388 10.8815 13.3389 10.8816C13.339 10.8817 13.339 10.8817 13.339 10.8817C13.3391 10.8818 13.3391 10.8818 13.8709 10.353ZM10.1289 5.5786C9.94238 5.42346 9.49726 5.10412 8.90289 4.97924C8.26359 4.84491 7.48732 4.94783 6.78007 5.60637L7.80226 6.70416C8.11399 6.4139 8.37852 6.40181 8.59445 6.44718C8.85529 6.50199 9.07982 6.65705 9.16986 6.73193L10.1289 5.5786ZM6.78007 5.60637C6.1036 6.23626 5.8893 6.95505 5.93736 7.59179C5.98162 8.17806 6.24574 8.66387 6.48714 8.91626L7.57115 7.87948C7.57984 7.88856 7.54566 7.85146 7.50644 7.76422C7.47028 7.68377 7.44113 7.5852 7.43311 7.47888C7.41932 7.2962 7.45977 7.02307 7.80226 6.70416L6.78007 5.60637ZM6.48714 8.91626C6.61673 9.05176 8.75033 11.2092 10.8394 13.3207C11.8867 14.3792 12.9262 15.4295 13.7038 16.2153C14.0927 16.6082 14.4161 16.9349 14.6422 17.1634C14.7553 17.2776 14.8441 17.3673 14.9046 17.4285C14.9349 17.459 14.9581 17.4825 14.9737 17.4982C14.9815 17.5061 14.9875 17.5121 14.9914 17.5161C14.9934 17.5181 14.9949 17.5196 14.9959 17.5207C14.9964 17.5212 14.9968 17.5215 14.997 17.5218C14.9972 17.5219 14.9972 17.522 14.9973 17.5221C14.9974 17.5221 14.9974 17.5222 15.5304 16.9945C16.0634 16.4669 16.0634 16.4669 16.0633 16.4668C16.0633 16.4667 16.0632 16.4666 16.0631 16.4665C16.0628 16.4663 16.0624 16.4659 16.0619 16.4654C16.0609 16.4644 16.0594 16.4629 16.0574 16.4609C16.0535 16.4569 16.0476 16.4509 16.0397 16.443C16.0241 16.4272 16.0009 16.4038 15.9707 16.3732C15.9102 16.3121 15.8214 16.2224 15.7083 16.1081C15.4821 15.8797 15.1588 15.553 14.77 15.1601C13.9923 14.3744 12.9529 13.3241 11.9057 12.2657C9.80609 10.1436 7.68905 8.00275 7.57115 7.87948L6.48714 8.91626ZM15.5304 16.9945C15.8433 16.3129 15.8433 16.3129 15.8432 16.3129C15.8432 16.3129 15.8432 16.3129 15.8432 16.3129C15.8431 16.3128 15.8431 16.3128 15.843 16.3128C15.8428 16.3127 15.8425 16.3125 15.8421 16.3124C15.8414 16.3121 15.8404 16.3116 15.839 16.311C15.8363 16.3097 15.8323 16.3079 15.8271 16.3055C15.8167 16.3007 15.8015 16.2938 15.7821 16.2849C15.7433 16.2672 15.6876 16.2418 15.6201 16.2111C15.485 16.1498 15.3017 16.067 15.1093 15.9814C14.7546 15.8236 14.2839 15.6174 14.089 15.5582L13.6529 16.9934C13.6514 16.9929 13.6585 16.9951 13.6774 17.002C13.695 17.0084 13.7178 17.0171 13.746 17.0283C13.8026 17.0506 13.8733 17.0798 13.9546 17.1142C14.117 17.183 14.3111 17.2681 14.4995 17.3519C14.6874 17.4355 14.8671 17.5166 15 17.577C15.0664 17.6071 15.1209 17.632 15.1588 17.6493C15.1778 17.6579 15.1925 17.6647 15.2025 17.6693C15.2075 17.6716 15.2113 17.6733 15.2139 17.6745C15.2151 17.6751 15.2161 17.6755 15.2167 17.6758C15.217 17.6759 15.2172 17.676 15.2174 17.6761C15.2174 17.6761 15.2175 17.6761 15.2175 17.6762C15.2175 17.6762 15.2176 17.6762 15.2176 17.6762C15.2176 17.6762 15.2176 17.6762 15.5304 16.9945ZM14.089 15.5582C13.8018 15.4709 13.3097 15.4488 12.8248 15.5764C12.3094 15.7121 11.7006 16.0467 11.3696 16.768L12.7329 17.3936C12.8242 17.1948 12.9868 17.0849 13.2066 17.027C13.3184 16.9976 13.4319 16.9865 13.5276 16.9867C13.6344 16.9869 13.6774 17.0008 13.6529 16.9934L14.089 15.5582ZM11.3696 16.768C11.0577 17.4477 11.1271 18.1073 11.318 18.6065C11.4126 18.8539 11.5395 19.0705 11.6748 19.2456C11.8017 19.4097 11.9681 19.579 12.1631 19.6891L12.9003 18.3827C12.9424 18.4065 12.9196 18.4033 12.8617 18.3284C12.8123 18.2645 12.7591 18.1756 12.7191 18.0708C12.6406 17.8656 12.6227 17.6339 12.7329 17.3936L11.3696 16.768ZM12.1631 19.6891C12.4884 19.8726 17.6332 22.5216 19.0867 23.2006L19.7216 21.8416C18.2964 21.1758 13.1864 18.5442 12.9003 18.3827L12.1631 19.6891ZM19.0867 23.2006C20.6524 23.932 24.9978 25.1708 28.8071 21.4406L27.7576 20.3689C24.5999 23.461 21.0347 22.455 19.7216 21.8416L19.0867 23.2006ZM13.3369 10.8795L16.5685 14.1572L17.6366 13.1041L14.405 9.8264L13.3369 10.8795ZM16.5643 9.75397L19.2428 12.5141L20.3193 11.4695L17.6408 8.70936L16.5643 9.75397ZM19.5556 7.99231L21.9138 10.4937L23.0052 9.46471L20.647 6.96335L19.5556 7.99231ZM7.61836 0.75V3.13637H9.11836V0.75H7.61836ZM7.61836 12.4231V14.8094H9.11836V12.4231H7.61836ZM3.86191 13.2841L5.57061 11.5967L4.51661 10.5294L2.80792 12.2168L3.86191 13.2841ZM12.2201 5.03001L13.9288 3.3426L12.8748 2.27532L11.1661 3.96273L12.2201 5.03001ZM1.25 8.52971H3.66646V7.02971H1.25V8.52971ZM2.80792 3.3426L4.51661 5.03001L5.57061 3.96273L3.86191 2.27531L2.80792 3.3426Z" fill="white" fill-opacity="0.94902"/>
</svg>
