<svg width="24" height="24" viewBox="0 0 24 24" fill="none" xmlns="http://www.w3.org/2000/svg">
<path fill-rule="evenodd" clip-rule="evenodd" d="M20.4853 20.4853C15.799 25.1716 8.20101 25.1716 3.51472 20.4853C-1.17157 15.799 -1.17157 8.20101 3.51472 3.51472C8.20101 -1.17158 15.799 -1.17158 20.4853 3.51472C25.1716 8.20101 25.1716 15.799 20.4853 20.4853ZM16.714 7.28595C17.1854 7.75736 17.1854 8.70017 16.714 9.17157L13.8856 12L16.714 14.8284C17.1854 15.2998 17.1854 16.2426 16.714 16.714C16.2426 17.1854 15.2998 17.1854 14.8284 16.714L12 13.8856L9.17157 16.714C8.70017 17.1854 7.75736 17.1854 7.28595 16.714C6.81455 16.2426 6.81455 15.2998 7.28595 14.8284L10.1144 12L7.28595 9.17157C6.81455 8.70017 6.81455 7.75736 7.28595 7.28595C7.75736 6.81455 8.70017 6.81455 9.17157 7.28595L12 10.1144L14.8284 7.28595C15.2998 6.81455 16.2426 6.81455 16.714 7.28595Z" fill="white" fill-opacity="0.94902"/>
</svg>
