<svg width="24" height="24" viewBox="0 0 24 24" fill="none" xmlns="http://www.w3.org/2000/svg">
<path d="M1 4.5C1 4.5 1.90587 4.5 3.25 4.5M23 4.5C23 4.5 22.0941 4.5 20.75 4.5M6 4.5C8 2.75 7.62457 0.749996 9.5 0.749995C12 0.749992 12.5 0.749991 14.5 0.749995C16.3754 0.749998 16 2.75 18 4.5M6 4.5C10.6863 4.5 13.3137 4.5 18 4.5M6 4.5C5.24994 4.5 4.08835 4.5 3.25 4.5M18 4.5C18.7501 4.5 19.9116 4.5 20.75 4.5M3.25 4.5L4.3133 20.4496C4.41836 22.0254 5.72727 23.25 7.30666 23.25H16.6933C18.2727 23.25 19.5816 22.0254 19.6867 20.4496L20.75 4.5M9.5 11.5V16.5M14.5 11.5V16.5" stroke="white" stroke-opacity="0.94902" stroke-width="1.5" stroke-linecap="round"/>
</svg>
