<svg width="24" height="24" viewBox="0 0 24 24" fill="none" xmlns="http://www.w3.org/2000/svg">
<path fill-rule="evenodd" clip-rule="evenodd" d="M14.8142 2.29574C14.7844 2.28084 14.7452 2.26431 14.4148 2.26431H9.58465C9.38554 2.26431 9.01559 2.38666 8.7859 2.84606C8.65071 3.11643 8.51161 3.37608 8.368 3.62279H15.6619C15.4723 3.32232 15.3133 3.04562 15.2136 2.84606C14.9788 2.37653 14.8244 2.30077 14.8142 2.29574ZM18.4654 3.62279C18.4419 3.59729 18.4171 3.56964 18.3911 3.5398C18.2469 3.37443 18.0887 3.16836 17.931 2.94531C17.6099 2.49123 17.341 2.03816 17.2387 1.83351C16.8727 1.10159 16.4239 0.56922 15.8267 0.270634C15.281 -0.00223336 14.7437 -0.00071522 14.4572 9.44072e-05L14.4148 0.000176279H9.58465C8.57622 0.000176279 7.39514 0.564812 6.76079 1.83351C6.29983 2.75544 5.89228 3.31452 5.56773 3.62279H1.13188C0.506661 3.62279 -0.000183105 4.12964 -0.000183105 4.75486C-0.000183105 5.38008 0.506661 5.88693 1.13188 5.88693H2.48785L3.47464 20.6888C3.59886 22.5521 5.14649 24 7.01393 24H16.9855C18.853 24 20.4006 22.5521 20.5248 20.6888L21.5116 5.88693H22.8676C23.4928 5.88693 23.9996 5.38008 23.9996 4.75486C23.9996 4.12964 23.4928 3.62279 22.8676 3.62279H18.4654ZM15.5465 11.3964C15.5465 10.7712 15.0396 10.2643 14.4144 10.2643C13.7892 10.2643 13.2823 10.7712 13.2823 11.3964V16.8303C13.2823 17.4555 13.7892 17.9624 14.4144 17.9624C15.0396 17.9624 15.5465 17.4555 15.5465 16.8303V11.3964ZM9.58426 10.2643C10.2095 10.2643 10.7163 10.7712 10.7163 11.3964V16.8303C10.7163 17.4555 10.2095 17.9624 9.58426 17.9624C8.95904 17.9624 8.45219 17.4555 8.45219 16.8303V11.3964C8.45219 10.7712 8.95904 10.2643 9.58426 10.2643Z" fill="black" fill-opacity="0.85098"/>
</svg>
