<svg width="24" height="25" viewBox="0 0 24 25" fill="none" xmlns="http://www.w3.org/2000/svg">
<path d="M0.750001 12.1409C0.750002 5.92769 5.7868 0.890898 12 0.890899C18.2132 0.890899 23.25 5.9277 23.25 12.1409C23.25 18.3541 18.2132 23.3909 12 23.3909C5.7868 23.3909 0.750001 18.3541 0.750001 12.1409Z" stroke="black" stroke-opacity="0.85098" stroke-width="1.5"/>
<path d="M12.75 5.1409C12.75 4.72669 12.4142 4.3909 12 4.3909C11.5858 4.3909 11.25 4.72669 11.25 5.1409L12.75 5.1409ZM12 20.1409L16.3301 12.6409L7.66987 12.6409L12 20.1409ZM11.25 5.1409L11.25 13.3909L12.75 13.3909L12.75 5.1409L11.25 5.1409Z" fill="black" fill-opacity="0.85098"/>
</svg>
