<svg width="24" height="24" viewBox="0 0 24 24" fill="none" xmlns="http://www.w3.org/2000/svg">
<path d="M1 0H23C23.5523 0 24 0.447715 24 1V1.5C24 2.05228 23.5523 2.5 23 2.5H1C0.447715 2.5 0 2.05228 0 1.5V1C0 0.447715 0.447715 0 1 0Z" fill="white" fill-opacity="0.94902"/>
<path d="M22 4H2L9.33761 15.251C9.44358 15.4135 9.5 15.6033 9.5 15.7973V23C9.5 23.5523 9.94772 24 10.5 24H13.5C14.0523 24 14.5 23.5523 14.5 23V15.7973C14.5 15.6033 14.5564 15.4135 14.6624 15.251L22 4Z" fill="white" fill-opacity="0.94902"/>
</svg>
