<svg width="24" height="24" viewBox="0 0 24 24" fill="none" xmlns="http://www.w3.org/2000/svg">
<path d="M1.75467 0.12059L14.6197 6.39227C17.3138 7.69364 20.0079 8.99501 22.7176 10.2729C23.1203 10.4049 23.4662 10.6721 23.6978 11.0301C23.9294 11.388 24.0328 11.8151 23.9909 12.2406C23.9823 12.6348 23.8488 13.0159 23.6098 13.3278C23.3708 13.6396 23.039 13.8659 22.6632 13.9732C19.8138 15.298 16.9877 16.6778 14.1228 18.0341L2.11958 23.7335C1.79573 23.9041 1.43668 23.9954 1.07144 24C0.87096 23.978 0.679406 23.9045 0.515051 23.7865C0.350697 23.6686 0.219025 23.51 0.132598 23.3261C0.0461719 23.1421 0.00787456 22.9388 0.0213598 22.7357C0.0348449 22.5325 0.0996621 22.3362 0.209629 22.1655C1.24225 20.5192 2.32145 18.8964 3.26866 17.2031C4.13431 15.6744 4.5974 13.9471 4.61371 12.1862C4.63002 10.4254 4.19901 8.68966 3.36183 7.14487C2.38356 5.36528 1.26554 3.66409 0.201866 1.93938C0.0696846 1.72827 -0.000326103 1.48357 1.14198e-06 1.23381C0.000809558 1.02505 0.0538593 0.819884 0.154224 0.637368C0.254588 0.454852 0.39901 0.300911 0.574073 0.189845C0.749136 0.0787795 0.94916 0.014193 1.15556 0.00208525C1.36196 -0.0100225 1.56805 0.0307414 1.75467 0.12059Z" fill="white" fill-opacity="0.94902"/>
</svg>
