<svg width="24" height="24" viewBox="0 0 24 24" fill="none" xmlns="http://www.w3.org/2000/svg">
<path d="M0.879904 1.51481C0.828016 1.43194 0.800055 1.33521 0.799988 1.2359C0.800445 1.1609 0.819601 1.0876 0.855216 1.02284C0.890965 0.957823 0.941915 0.903873 1.00263 0.865352C1.0633 0.826863 1.13202 0.804829 1.2024 0.8007C1.2723 0.7966 1.34237 0.810242 1.40632 0.840763L1.40763 0.841389L14.2691 7.11136L14.2717 7.11262L14.2737 7.11358C16.9666 8.41436 19.6634 9.71704 22.3763 10.9964L22.4212 11.0176L22.4683 11.033C22.696 11.1077 22.8933 11.2594 23.0262 11.4647C23.1591 11.6701 23.219 11.9163 23.1947 12.1621L23.1917 12.1926L23.191 12.2233C23.1862 12.4482 23.1099 12.6648 22.9748 12.8412C22.8397 13.0175 22.6532 13.144 22.4436 13.2039L22.383 13.2212L22.3259 13.2477C20.5836 14.0579 18.8433 14.8916 17.1025 15.7257C15.9956 16.256 14.8885 16.7864 13.7805 17.311L1.77643 23.0108L1.76141 23.0179L1.7467 23.0257C1.55167 23.1284 1.33755 23.1871 1.11901 23.1982C1.07008 23.1874 1.02331 23.1666 0.981562 23.1367C0.928614 23.0986 0.885347 23.0469 0.856665 22.9859C0.827963 22.9248 0.815065 22.8568 0.819591 22.7886C0.824117 22.7205 0.845858 22.6551 0.882121 22.5988L0.887336 22.5906C1.14737 22.176 1.41291 21.7591 1.68019 21.3395C2.45834 20.1177 3.25123 18.8728 3.96582 17.5954C4.89781 15.9489 5.39611 14.0891 5.41367 12.1936C5.43123 10.2975 4.96713 8.42799 4.06517 6.76368L4.06287 6.75948C3.33454 5.43454 2.52493 4.14426 1.73112 2.87916C1.44477 2.42279 1.16046 1.96969 0.882773 1.51943L0.879904 1.51481Z" stroke="black" stroke-opacity="0.85098" stroke-width="1.6"/>
</svg>