<svg width="24" height="22" viewBox="0 0 24 22" fill="none" xmlns="http://www.w3.org/2000/svg">
<path d="M13.0216 20.0879C12.6179 20.4491 12.2642 20.7639 12 20.9983C11.7358 20.7639 11.3821 20.4491 10.9784 20.0879C10.1005 19.3022 8.98911 18.2989 8.04834 17.4228C7.89585 17.2807 7.71213 17.1146 7.50387 16.9263C6.54815 16.0621 5.07543 14.7305 3.73026 13.1057C2.0774 11.1092 0.75 8.82129 0.75 6.59401C0.75 3.36657 3.36797 0.75 6.6 0.75C8.14886 0.75 9.35376 1.30716 10.1793 1.87188C10.5922 2.15435 10.9062 2.43617 11.1144 2.64446C11.2182 2.74835 11.295 2.83319 11.344 2.88958C11.3684 2.91775 11.3858 2.93873 11.3961 2.95135L11.4061 2.96382C11.4065 2.96425 11.4064 2.96415 11.4066 2.96436C11.4067 2.96447 11.4071 2.96497 11.4071 2.96502C11.4071 2.9651 11.4072 2.9651 11.4071 2.96505L12 3.73641L12.5929 2.96505C12.5928 2.9651 12.5929 2.9651 12.5929 2.96502C12.5929 2.96497 12.5933 2.96447 12.5934 2.96436C12.5936 2.96415 12.5935 2.96425 12.5939 2.96382L12.6039 2.95135C12.6142 2.93873 12.6316 2.91775 12.656 2.88958C12.705 2.83319 12.7818 2.74835 12.8856 2.64446C13.0938 2.43617 13.4078 2.15435 13.8207 1.87188C14.6462 1.30716 15.8511 0.75 17.4 0.75C20.632 0.75 23.25 3.36657 23.25 6.59401C23.25 8.82129 21.9226 11.1092 20.2697 13.1057C18.9246 14.7305 17.4519 16.0621 16.4961 16.9263C16.2879 17.1146 16.1042 17.2807 15.9517 17.4228C15.0109 18.2989 13.8995 19.3022 13.0216 20.0879Z" stroke="white" stroke-opacity="0.94902" stroke-width="1.5"/>
</svg>
