<svg width="25" height="25" viewBox="0 0 25 25" fill="none" xmlns="http://www.w3.org/2000/svg">
<path d="M12.2898 1.17351C18.5026 1.10011 23.5985 6.07706 23.6719 12.2898C23.7453 18.5026 18.7684 23.5985 12.5556 23.6719C6.34284 23.7453 1.2469 18.7684 1.17351 12.5556C1.10012 6.34284 6.07707 1.2469 12.2898 1.17351Z" stroke="black" stroke-opacity="0.85098" stroke-width="1.5"/>
<path d="M19.4311 13.09C19.8453 13.0851 20.1771 12.7454 20.1722 12.3312C20.1673 11.917 19.8276 11.5852 19.4134 11.5901L19.4311 13.09ZM4.42328 12.5172L11.9739 16.7584L11.8716 8.0988L4.42328 12.5172ZM19.4134 11.5901L11.1639 11.6875L11.1817 13.1874L19.4311 13.09L19.4134 11.5901Z" fill="black" fill-opacity="0.85098"/>
</svg>
