<svg width="24" height="24" viewBox="0 0 24 24" fill="none" xmlns="http://www.w3.org/2000/svg">
<path fill-rule="evenodd" clip-rule="evenodd" d="M18.25 5.25H5.75H4.25H3C1.48122 5.25 0.25 6.48122 0.25 8V16C0.25 17.5188 1.48122 18.75 3 18.75H4.25V16.5C4.25 14.9812 5.48122 13.75 7 13.75H17C18.5188 13.75 19.75 14.9812 19.75 16.5V18.75H21C22.5188 18.75 23.75 17.5188 23.75 16V8C23.75 6.48122 22.5188 5.25 21 5.25H19.75H18.25ZM5.75 16.5C5.75 15.8096 6.30964 15.25 7 15.25H17C17.6904 15.25 18.25 15.8096 18.25 16.5V21C18.25 21.6904 17.6904 22.25 17 22.25H7C6.30964 22.25 5.75 21.6904 5.75 21V16.5ZM5 8.75C4.58579 8.75 4.25 9.08579 4.25 9.5C4.25 9.91421 4.58579 10.25 5 10.25H7C7.41421 10.25 7.75 9.91421 7.75 9.5C7.75 9.08579 7.41421 8.75 7 8.75H5Z" fill="white" fill-opacity="0.94902"/>
<path d="M7 0.25C6.30964 0.25 5.75 0.809644 5.75 1.5V3.75H18.25V1.5C18.25 0.809644 17.6904 0.25 17 0.25H7Z" fill="white" fill-opacity="0.94902"/>
</svg>
