<svg width="25" height="25" viewBox="0 0 25 25" fill="none" xmlns="http://www.w3.org/2000/svg">
<path d="M12.2818 23.3909C6.0686 23.3909 1.0318 18.3541 1.0318 12.1409C1.0318 5.9277 6.0686 0.8909 12.2818 0.8909C18.495 0.8909 23.5318 5.9277 23.5318 12.1409C23.5318 18.3541 18.495 23.3909 12.2818 23.3909Z" stroke="black" stroke-opacity="0.85098" stroke-width="1.5"/>
<path d="M5.2818 11.3909C4.86759 11.3909 4.5318 11.7267 4.5318 12.1409C4.5318 12.5551 4.86759 12.8909 5.2818 12.8909L5.2818 11.3909ZM20.2818 12.1409L12.7818 7.81077L12.7818 16.471L20.2818 12.1409ZM5.2818 12.8909L13.5318 12.8909L13.5318 11.3909L5.2818 11.3909L5.2818 12.8909Z" fill="black" fill-opacity="0.85098"/>
</svg>
