<svg width="24" height="24" viewBox="0 0 24 24" fill="none" xmlns="http://www.w3.org/2000/svg">
<path d="M12 3.64286L13.1389 4.61904L14.2737 3.29506L12.795 2.37086L12 3.64286ZM8.57143 1.5L9.36643 0.228003C8.86619 -0.0846446 8.22915 -0.0750649 7.73854 0.252483C7.24793 0.58003 6.99486 1.16472 7.09184 1.7466L8.57143 1.5ZM9.42857 6.64286L7.94898 6.88946C8.04477 7.46417 8.4647 7.93143 9.02596 8.08782C9.58723 8.2442 10.1883 8.06142 10.5675 7.61904L9.42857 6.64286ZM19.5 12.6429C19.5 16.785 16.1421 20.1429 12 20.1429V23.1429C17.799 23.1429 22.5 18.4418 22.5 12.6429H19.5ZM12 20.1429C7.85786 20.1429 4.5 16.785 4.5 12.6429H1.5C1.5 18.4418 6.20101 23.1429 12 23.1429V20.1429ZM4.5 12.6429C4.5 8.50072 7.85786 5.14286 12 5.14286V2.14286C6.20101 2.14286 1.5 6.84387 1.5 12.6429H4.5ZM12.795 2.37086L9.36643 0.228003L7.77643 2.772L11.205 4.91485L12.795 2.37086ZM12 3.64286C10.8611 2.66667 10.8611 2.66668 10.8611 2.66669C10.8611 2.6667 10.8611 2.66673 10.861 2.66675C10.861 2.66684 10.861 2.66686 10.8608 2.667C10.8606 2.66722 10.8604 2.66756 10.86 2.668C10.8592 2.66888 10.8581 2.6702 10.8566 2.67195C10.8536 2.67544 10.8491 2.68065 10.8433 2.68749C10.8315 2.70117 10.8142 2.72138 10.7918 2.74752C10.747 2.79981 10.6819 2.87581 10.6005 2.97067C10.4379 3.16039 10.2106 3.42555 9.95198 3.72733C9.43465 4.33088 8.79179 5.08088 8.28969 5.66667L10.5675 7.61904C11.0696 7.03326 11.7124 6.28326 12.2297 5.6797C12.4884 5.37793 12.7157 5.11276 12.8783 4.92304C12.9596 4.82818 13.0248 4.75218 13.0696 4.6999C13.092 4.67375 13.1093 4.65354 13.121 4.63986C13.1269 4.63302 13.1314 4.62782 13.1344 4.62433C13.1359 4.62258 13.137 4.62126 13.1377 4.62037C13.1381 4.61992 13.1384 4.61961 13.1386 4.61938C13.1388 4.61917 13.1387 4.61928 13.1388 4.61913C13.1388 4.6191 13.1389 4.61908 13.1389 4.61907C13.1389 4.61905 13.1389 4.61904 12 3.64286ZM16.1656 6.40492C18.1794 7.75288 19.5 10.0439 19.5 12.6429H22.5C22.5 9.00094 20.6446 5.79297 17.8344 3.91189L16.1656 6.40492ZM7.09184 1.7466L7.94898 6.88946L10.9082 6.39626L10.051 1.2534L7.09184 1.7466Z" fill="black" fill-opacity="0.85098"/>
</svg>
