<svg width="24" height="24" viewBox="0 0 24 24" fill="none" xmlns="http://www.w3.org/2000/svg">
<path fill-rule="evenodd" clip-rule="evenodd" d="M0 4.75C0 2.12665 2.12665 0 4.75 0H19.25C21.8734 0 24 2.12665 24 4.75V19.25C24 21.8734 21.8734 24 19.25 24H4.75C2.12665 24 0 21.8734 0 19.25V4.75ZM4.5 4.5H9V9H4.5V4.5ZM6 6V7.5H7.5V6H6ZM10.5 4.5H13.25V6H12V7.75H13.25V9.25H12V11H15V16H13.5V12.5H12V13.75H10.5V4.5ZM14.75 4.5H19.25V9H14.75V4.5ZM16.25 6V7.5H17.75V6H16.25ZM4.5 11H9V12.5H4.5V11ZM17.75 12.5H16.75V11H19.25V15.5H16.75V14H17.75V12.5ZM4.5 14.5H9V19H4.5V14.5ZM6 16V17.5H7.5V16H6ZM10.5 16H12V17.5H16.25V19H10.5V16ZM17.75 17.5H19.25V19H17.75V17.5Z" fill="white" fill-opacity="0.94902"/>
</svg>
