<svg width="24" height="24" viewBox="0 0 24 24" fill="none" xmlns="http://www.w3.org/2000/svg">
<path d="M21.1585 14.6684L20.7943 14.0128L21.1585 14.6684C21.4065 14.5306 21.634 14.359 21.8345 14.1585C23.0266 12.9664 23.0266 11.0336 21.8345 9.84154C21.634 9.64099 21.4065 9.46936 21.1585 9.33162L6.62691 1.2585C5.21436 0.473749 3.45273 0.720474 2.31012 1.86309C1.34078 2.83243 1.0023 4.26624 1.4358 5.56674L2.96322 10.149C3.2733 11.0792 4.14522 11.7055 5.12575 11.7023L9.14376 11.6893H9.14501H10.2044C10.376 11.6893 10.5151 11.8284 10.5151 12C10.5151 12.1716 10.376 12.3107 10.2044 12.3107H9.14501H9.14376L5.12575 12.2977C4.14522 12.2945 3.2733 12.9208 2.96322 13.851L1.4358 18.4333C1.0023 19.7338 1.34078 21.1676 2.31012 22.1369C3.45273 23.2795 5.21436 23.5263 6.62691 22.7415L21.1585 14.6684Z" stroke="#3571FF" stroke-width="1.5"/>
</svg>
