<svg width="24" height="24" viewBox="0 0 24 24" fill="none" xmlns="http://www.w3.org/2000/svg">
<path d="M21.9792 9.6997L5.37163 0.473277C4.09183 -0.237727 2.49575 -0.0141878 1.46051 1.02105C0.582266 1.89929 0.275599 3.19836 0.668362 4.37665L2.41398 9.61352C2.65136 10.3256 3.31886 10.8051 4.06951 10.8027L8.6643 10.7878H9.87649C10.546 10.7878 11.0887 11.3305 11.0887 12C11.0887 12.6695 10.546 13.2122 9.87649 13.2122H8.6643L4.06951 13.1973C3.31886 13.1949 2.65136 13.6744 2.41398 14.3865L0.668361 19.6234C0.275598 20.8016 0.582266 22.1007 1.46051 22.979C2.49575 24.0142 4.09183 24.2377 5.37163 23.5267L21.9792 14.3003C22.1929 14.1816 22.3891 14.0336 22.562 13.8607C23.5896 12.8331 23.5896 11.1669 22.562 10.1393C22.3891 9.96639 22.1929 9.81844 21.9792 9.6997Z" fill="black" fill-opacity="0.85098"/>
</svg>
