<svg width="24" height="24" viewBox="0 0 24 24" fill="none" xmlns="http://www.w3.org/2000/svg">
<path d="M20.6453 0.101248L2.37788 5.3205C0.970168 5.7227 -0.000366211 7.00937 -0.000366211 8.47342C-0.000366211 9.71544 0.701367 10.8509 1.81227 11.4063L6.74963 13.875C7.42104 14.2107 8.23207 14.0777 8.76114 13.5452L11.9996 10.2857L12.8568 9.42857C13.3302 8.95518 14.0977 8.95518 14.5711 9.42857C15.0444 9.90196 15.0444 10.6695 14.5711 11.1429L13.7139 12L10.4544 15.2385C9.92189 15.7676 9.78893 16.5786 10.1246 17.25L12.5933 22.1874C13.1488 23.2983 14.2842 24 15.5262 24C16.9903 24 18.2769 23.0295 18.6791 21.6218L23.8984 3.35437C23.9656 3.11927 23.9996 2.87596 23.9996 2.63145C23.9996 1.17814 22.8215 0 21.3682 0C21.1237 0 20.8804 0.0340772 20.6453 0.101248Z" fill="white" fill-opacity="0.94902"/>
</svg>
