<svg width="24" height="24" viewBox="0 0 24 24" fill="none" xmlns="http://www.w3.org/2000/svg">
<path d="M23.1322 4.64111L22.4276 4.4398L23.1322 4.64111C23.2101 4.3684 23.2496 4.08615 23.2496 3.80252C23.2496 2.11666 21.883 0.75 20.1971 0.75C19.9135 0.75 19.6312 0.78953 19.3585 0.867449L3.37456 5.43429C1.82083 5.87822 0.749634 7.29834 0.749634 8.91424C0.749634 10.2851 1.52415 11.5383 2.75028 12.1513L7.07047 14.3114C7.94749 14.75 9.0069 14.5763 9.698 13.8807L12.53 11.0303L12.5317 11.0286L13.28 10.2803C13.4013 10.159 13.598 10.159 13.7193 10.2803C13.8406 10.4016 13.8406 10.5983 13.7193 10.7197L12.971 11.468L12.9693 11.4697L10.1189 14.3016C9.42336 14.9927 9.24968 16.0521 9.68819 16.9292L11.8483 21.2494C12.4613 22.4755 13.7145 23.25 15.0854 23.25C16.7013 23.25 18.1214 22.1788 18.5653 20.6251L23.1322 4.64111Z" stroke="white" stroke-opacity="0.94902" stroke-width="1.5"/>
</svg>
