<svg width="540" height="156" viewBox="0 0 540 156" fill="none" xmlns="http://www.w3.org/2000/svg">
<path d="M521.623 153.807C530.525 153.807 537.75 146.752 537.75 138.009L537.746 18.0105C537.746 9.27331 530.526 2.19342 521.619 2.19342H18.3973C9.49947 2.19342 2.25 9.2718 2.25 18.0105V138.009C2.25 146.753 9.50088 153.807 18.3973 153.807H521.623Z" stroke="black" stroke-opacity="0.85098" stroke-width="1.5"/>
<path d="M120.512 77.1576C120.396 64.5879 131.068 58.4727 131.556 58.188C125.512 49.5963 116.144 48.4224 112.852 48.3288C104.984 47.5215 97.3521 52.9191 93.3441 52.9191C89.2561 52.9191 83.0841 48.4068 76.4321 48.5394C67.8721 48.6681 59.8641 53.5002 55.4721 61.0038C46.4081 76.3035 53.1681 98.787 61.8521 111.154C66.1961 117.211 71.2721 123.973 77.9161 123.735C84.4161 123.474 86.8441 119.695 94.6881 119.695C102.46 119.695 104.74 123.735 111.516 123.583C118.492 123.474 122.884 117.499 127.076 111.388C132.096 104.446 134.112 97.6092 134.192 97.2582C134.028 97.2036 120.644 92.2233 120.512 77.1576Z" fill="black" fill-opacity="0.85098"/>
<path d="M107.712 40.1934C111.208 35.9307 113.6 30.1314 112.936 24.2463C107.876 24.4647 101.548 27.6588 97.9041 31.8279C94.6801 35.5017 91.8001 41.5233 92.5441 47.1861C98.2281 47.5995 104.064 44.3898 107.712 40.1934Z" fill="black" fill-opacity="0.85098"/>
<path d="M196.2 39.0352C196.2 43.6255 194.788 47.0809 191.968 49.4014C189.356 51.5425 185.644 52.615 180.836 52.615C178.452 52.615 176.412 52.5136 174.704 52.3108V27.2299C176.932 26.8789 179.332 26.6995 181.924 26.6995C186.504 26.6995 189.956 27.6706 192.284 29.6128C194.892 31.8085 196.2 34.948 196.2 39.0352ZM191.78 39.1483C191.78 36.1726 190.972 33.8911 189.356 32.2999C187.74 30.7126 185.38 29.917 182.272 29.917C180.952 29.917 179.828 30.0028 178.896 30.1822V49.2493C179.412 49.3273 180.356 49.3624 181.728 49.3624C184.936 49.3624 187.412 48.4927 189.156 46.7533C190.9 45.0139 191.78 42.4789 191.78 39.1483Z" fill="black" fill-opacity="0.85098"/>
<path d="M219.636 43.0444C219.636 45.8719 218.808 48.1885 217.152 50.0059C215.416 51.874 213.116 52.8061 210.244 52.8061C207.476 52.8061 205.272 51.913 203.628 50.119C201.988 48.3289 201.168 46.0708 201.168 43.3486C201.168 40.5016 202.012 38.1655 203.708 36.352C205.404 34.5385 207.684 33.6298 210.556 33.6298C213.324 33.6298 215.548 34.5229 217.232 36.313C218.832 38.0524 219.636 40.2988 219.636 43.0444ZM215.288 43.177C215.288 41.4805 214.912 40.0258 214.164 38.8129C213.284 37.3465 212.032 36.6133 210.404 36.6133C208.72 36.6133 207.44 37.3465 206.56 38.8129C205.808 40.0258 205.436 41.5039 205.436 43.2511C205.436 44.9476 205.812 46.4023 206.56 47.6152C207.468 49.0816 208.732 49.8148 210.364 49.8148C211.964 49.8148 213.22 49.0699 214.124 47.5762C214.9 46.3399 215.288 44.8735 215.288 43.177Z" fill="black" fill-opacity="0.85098"/>
<path d="M251.06 34.0042L245.16 52.3887H241.32L238.876 44.4054C238.256 42.4125 237.752 40.4314 237.36 38.4658H237.284C236.92 40.4859 236.416 42.4632 235.768 44.4054L233.172 52.3887H229.288L223.74 34.0042H228.048L230.18 42.7441C230.696 44.811 231.12 46.7805 231.46 48.6447H231.536C231.848 47.1081 232.364 45.1504 233.092 42.7831L235.768 34.0081H239.184L241.748 42.5958C242.368 44.6901 242.872 46.7064 243.26 48.6486H243.376C243.66 46.7571 244.088 44.7408 244.656 42.5958L246.944 34.0081H251.06V34.0042Z" fill="black" fill-opacity="0.85098"/>
<path d="M272.792 52.3887H268.6V41.8587C268.6 38.6139 267.336 36.9915 264.8 36.9915C263.556 36.9915 262.552 37.4361 261.772 38.3292C261 39.2223 260.608 40.2753 260.608 41.4804V52.3849H256.416V39.2574C256.416 37.6428 256.364 35.8917 256.264 33.9963H259.948L260.144 36.8706H260.26C260.748 35.9775 261.476 35.2404 262.432 34.6515C263.568 33.9651 264.84 33.618 266.232 33.618C267.992 33.618 269.456 34.1718 270.62 35.2833C272.068 36.6444 272.792 38.6763 272.792 41.3751V52.3887V52.3887Z" fill="black" fill-opacity="0.85098"/>
<path d="M284.352 52.3887H280.164V25.5684H284.352V52.3887Z" fill="black" fill-opacity="0.85098"/>
<path d="M309.032 43.0444C309.032 45.8719 308.204 48.1885 306.548 50.0059C304.812 51.874 302.508 52.8061 299.64 52.8061C296.868 52.8061 294.664 51.913 293.024 50.119C291.384 48.3289 290.564 46.0708 290.564 43.3486C290.564 40.5016 291.408 38.1655 293.104 36.352C294.8 34.5385 297.08 33.6298 299.948 33.6298C302.72 33.6298 304.94 34.5229 306.628 36.313C308.228 38.0524 309.032 40.2988 309.032 43.0444ZM304.68 43.177C304.68 41.4805 304.304 40.0258 303.556 38.8129C302.68 37.3465 301.424 36.6133 299.8 36.6133C298.112 36.6133 296.832 37.3465 295.956 38.8129C295.204 40.0258 294.832 41.5039 294.832 43.2511C294.832 44.9476 295.208 46.4023 295.956 47.6152C296.864 49.0816 298.128 49.8148 299.76 49.8148C301.36 49.8148 302.612 49.0699 303.516 47.5762C304.296 46.3399 304.68 44.8735 304.68 43.177Z" fill="black" fill-opacity="0.85098"/>
<path d="M329.32 52.3888H325.556L325.244 50.2711H325.128C323.84 51.9598 322.004 52.8061 319.62 52.8061C317.84 52.8061 316.4 52.2484 315.316 51.1408C314.332 50.1346 313.84 48.8827 313.84 47.3968C313.84 45.1504 314.8 43.4383 316.732 42.2527C318.66 41.0671 321.372 40.486 324.864 40.5133V40.1701C324.864 37.7482 323.56 36.5392 320.948 36.5392C319.088 36.5392 317.448 36.9955 316.032 37.9003L315.18 35.2171C316.932 34.1602 319.096 33.6298 321.648 33.6298C326.576 33.6298 329.048 36.1648 329.048 41.2348V48.0052C329.048 49.8421 329.14 51.3046 329.32 52.3888ZM324.968 46.0708V43.2355C320.344 43.1575 318.032 44.3938 318.032 46.9405C318.032 47.8999 318.296 48.6175 318.836 49.0972C319.376 49.5769 320.064 49.8148 320.884 49.8148C321.804 49.8148 322.664 49.5301 323.448 48.9646C324.236 48.3952 324.72 47.6737 324.9 46.7884C324.944 46.5895 324.968 46.3477 324.968 46.0708Z" fill="black" fill-opacity="0.85098"/>
<path d="M353.14 52.3887H349.42L349.224 49.4364H349.108C347.92 51.6828 345.896 52.806 343.052 52.806C340.78 52.806 338.888 51.9363 337.388 50.1969C335.888 48.4575 335.14 46.1994 335.14 43.4265C335.14 40.4508 335.952 38.0406 337.584 36.1998C339.164 34.4838 341.1 33.6258 343.404 33.6258C345.936 33.6258 347.708 34.4565 348.716 36.1218H348.796V25.5684H352.992V47.4357C352.992 49.2258 353.04 50.8755 353.14 52.3887ZM348.796 44.6355V41.5701C348.796 41.0397 348.756 40.6107 348.68 40.2831C348.444 39.3003 347.936 38.4735 347.164 37.8066C346.384 37.1397 345.444 36.8043 344.36 36.8043C342.796 36.8043 341.572 37.4088 340.672 38.6217C339.78 39.8346 339.328 41.3829 339.328 43.2744C339.328 45.0918 339.756 46.566 340.616 47.7009C341.524 48.9099 342.748 49.5144 344.28 49.5144C345.656 49.5144 346.756 49.0113 347.592 48.0012C348.4 47.0691 348.796 45.9459 348.796 44.6355Z" fill="black" fill-opacity="0.85098"/>
<path d="M388.992 43.0444C388.992 45.8719 388.164 48.1885 386.508 50.0059C384.772 51.874 382.476 52.8061 379.6 52.8061C376.836 52.8061 374.632 51.913 372.984 50.119C371.344 48.3289 370.524 46.0708 370.524 43.3486C370.524 40.5016 371.368 38.1655 373.064 36.352C374.76 34.5385 377.04 33.6298 379.916 33.6298C382.68 33.6298 384.908 34.5229 386.588 36.313C388.188 38.0524 388.992 40.2988 388.992 43.0444ZM384.648 43.177C384.648 41.4805 384.272 40.0258 383.524 38.8129C382.64 37.3465 381.392 36.6133 379.76 36.6133C378.08 36.6133 376.8 37.3465 375.916 38.8129C375.164 40.0258 374.792 41.5039 374.792 43.2511C374.792 44.9476 375.168 46.4023 375.916 47.6152C376.824 49.0816 378.088 49.8148 379.72 49.8148C381.32 49.8148 382.58 49.0699 383.484 47.5762C384.256 46.3399 384.648 44.8735 384.648 43.177Z" fill="black" fill-opacity="0.85098"/>
<path d="M411.532 52.3887H407.344V41.8587C407.344 38.6139 406.08 36.9915 403.54 36.9915C402.296 36.9915 401.292 37.4361 400.516 38.3292C399.74 39.2223 399.352 40.2753 399.352 41.4804V52.3849H395.156V39.2574C395.156 37.6428 395.108 35.8917 395.008 33.9963H398.688L398.884 36.8706H399C399.492 35.9775 400.22 35.2404 401.172 34.6515C402.312 33.9651 403.58 33.618 404.976 33.618C406.732 33.618 408.196 34.1718 409.36 35.2833C410.812 36.6444 411.532 38.6763 411.532 41.3751V52.3887V52.3887Z" fill="black" fill-opacity="0.85098"/>
<path d="M439.744 37.0656H435.128V45.9966C435.128 48.2664 435.948 49.4013 437.572 49.4013C438.324 49.4013 438.948 49.3389 439.44 49.2102L439.548 52.3107C438.72 52.6149 437.632 52.767 436.292 52.767C434.636 52.767 433.348 52.2756 432.416 51.2928C431.48 50.31 431.016 48.6564 431.016 46.3359V37.0656H428.26V34.0041H431.016V30.6345L435.124 29.4255V34.0002H439.74V37.0656H439.744Z" fill="black" fill-opacity="0.85098"/>
<path d="M461.936 52.3887H457.74V41.9367C457.74 38.6412 456.476 36.9915 453.944 36.9915C452 36.9915 450.672 37.947 449.944 39.858C449.82 40.2597 449.748 40.7511 449.748 41.3283V52.3848H445.56V25.5684H449.748V36.6483H449.828C451.148 34.632 453.04 33.6258 455.492 33.6258C457.228 33.6258 458.664 34.1796 459.804 35.2911C461.224 36.6756 461.936 38.7348 461.936 41.457V52.3887V52.3887Z" fill="black" fill-opacity="0.85098"/>
<path d="M484.828 42.3267C484.828 43.0599 484.772 43.6761 484.672 44.1792H472.1C472.156 45.9966 472.756 47.3811 473.92 48.3405C474.984 49.1985 476.356 49.6275 478.036 49.6275C479.896 49.6275 481.592 49.3389 483.12 48.7578L483.776 51.597C481.988 52.3536 479.884 52.7319 477.448 52.7319C474.528 52.7319 472.228 51.8934 470.564 50.2164C468.892 48.5394 468.064 46.2891 468.064 43.4655C468.064 40.6926 468.836 38.3838 470.392 36.543C472.016 34.5774 474.212 33.5946 476.984 33.5946C479.696 33.5946 481.756 34.5774 483.148 36.543C484.272 38.103 484.828 40.0335 484.828 42.3267ZM480.828 41.2698C480.86 40.0569 480.584 39.0117 480.016 38.1303C479.288 36.9954 478.18 36.426 476.68 36.426C475.312 36.426 474.196 36.9798 473.344 38.0913C472.648 38.9766 472.236 40.0335 472.1 41.2698H480.828Z" fill="black" fill-opacity="0.85098"/>
<path d="M214.58 122.866H205.496L200.52 107.62H183.224L178.484 122.866H169.64L186.776 70.9644H197.36L214.58 122.866ZM199.02 101.224L194.52 87.672C194.044 86.2875 193.152 83.0271 191.836 77.8947H191.676C191.152 80.1021 190.308 83.3625 189.148 87.672L184.728 101.224H199.02V101.224Z" fill="black" fill-opacity="0.85098"/>
<path d="M258.648 103.693C258.648 110.058 256.884 115.089 253.356 118.782C250.196 122.07 246.272 123.712 241.588 123.712C236.532 123.712 232.9 121.941 230.688 118.4H230.528V138.115H222V97.7614C222 93.76 221.892 89.6533 221.684 85.4413H229.184L229.66 91.3732H229.82C232.664 86.9038 236.98 84.673 242.772 84.673C247.3 84.673 251.08 86.4163 254.104 89.9068C257.136 93.4012 258.648 97.9954 258.648 103.693ZM249.96 103.997C249.96 100.355 249.12 97.3519 247.432 94.9885C245.588 92.5237 243.112 91.2913 240.008 91.2913C237.904 91.2913 235.992 91.9777 234.284 93.331C232.572 94.696 231.452 96.4783 230.928 98.6857C230.664 99.7153 230.532 100.558 230.532 101.221V107.461C230.532 110.183 231.388 112.48 233.1 114.356C234.812 116.232 237.036 117.168 239.772 117.168C242.984 117.168 245.484 115.959 247.272 113.549C249.064 111.134 249.96 107.952 249.96 103.997Z" fill="black" fill-opacity="0.85098"/>
<path d="M302.796 103.693C302.796 110.058 301.032 115.089 297.5 118.782C294.344 122.07 290.42 123.712 285.736 123.712C280.68 123.712 277.048 121.941 274.84 118.4H274.68V138.115H266.152V97.7614C266.152 93.76 266.044 89.6533 265.836 85.4413H273.336L273.812 91.3732H273.972C276.812 86.9038 281.128 84.673 286.924 84.673C291.448 84.673 295.228 86.4163 298.26 89.9068C301.28 93.4012 302.796 97.9954 302.796 103.693ZM294.108 103.997C294.108 100.355 293.264 97.3519 291.576 94.9885C289.732 92.5237 287.264 91.2913 284.156 91.2913C282.048 91.2913 280.14 91.9777 278.428 93.331C276.716 94.696 275.6 96.4783 275.076 98.6857C274.816 99.7153 274.68 100.558 274.68 101.221V107.461C274.68 110.183 275.536 112.48 277.24 114.356C278.952 116.228 281.176 117.168 283.92 117.168C287.132 117.168 289.632 115.959 291.42 113.549C293.212 111.134 294.108 107.952 294.108 103.997Z" fill="black" fill-opacity="0.85098"/>
<path d="M352.156 108.311C352.156 112.726 350.584 116.318 347.428 119.09C343.96 122.121 339.132 123.634 332.928 123.634C327.2 123.634 322.608 122.558 319.132 120.401L321.108 113.471C324.852 115.678 328.96 116.786 333.436 116.786C336.648 116.786 339.148 116.076 340.944 114.664C342.732 113.252 343.624 111.357 343.624 108.993C343.624 106.887 342.888 105.113 341.412 103.674C339.944 102.235 337.492 100.897 334.068 99.6606C324.748 96.2715 320.092 91.3068 320.092 84.7782C320.092 80.5116 321.724 77.0133 324.992 74.2911C328.248 71.565 332.592 70.2039 338.024 70.2039C342.868 70.2039 346.892 71.0268 350.104 72.6687L347.972 79.4469C344.972 77.8557 341.58 77.0601 337.784 77.0601C334.784 77.0601 332.44 77.7816 330.76 79.2168C329.34 80.4999 328.628 82.0638 328.628 83.9163C328.628 85.9677 329.44 87.6642 331.072 88.998C332.492 90.2304 335.072 91.5642 338.816 93.0033C343.396 94.8012 346.76 96.9033 348.924 99.3135C351.08 101.716 352.156 104.723 352.156 108.311Z" fill="black" fill-opacity="0.85098"/>
<path d="M380.352 91.6812H370.952V109.851C370.952 114.473 372.608 116.782 375.928 116.782C377.452 116.782 378.716 116.653 379.716 116.395L379.952 122.71C378.272 123.322 376.06 123.63 373.32 123.63C369.952 123.63 367.32 122.628 365.42 120.627C363.528 118.622 362.576 115.261 362.576 110.538V91.6734H356.976V85.4334H362.576V78.5811L370.952 76.1163V85.4334H380.352V91.6812Z" fill="black" fill-opacity="0.85098"/>
<path d="M422.764 103.845C422.764 109.598 421.076 114.321 417.708 118.014C414.176 121.817 409.488 123.712 403.644 123.712C398.012 123.712 393.528 121.891 390.184 118.248C386.84 114.605 385.168 110.007 385.168 104.465C385.168 98.6661 386.888 93.9159 390.34 90.2226C393.784 86.5254 398.432 84.6768 404.276 84.6768C409.908 84.6768 414.44 86.4981 417.86 90.1446C421.132 93.6819 422.764 98.2488 422.764 103.845ZM413.916 104.114C413.916 100.663 413.16 97.7028 411.628 95.2341C409.84 92.2467 407.284 90.7569 403.972 90.7569C400.544 90.7569 397.94 92.2506 396.152 95.2341C394.62 97.7067 393.864 100.714 393.864 104.27C393.864 107.722 394.62 110.682 396.152 113.147C397.996 116.134 400.572 117.624 403.896 117.624C407.152 117.624 409.708 116.103 411.552 113.069C413.124 110.553 413.916 107.562 413.916 104.114Z" fill="black" fill-opacity="0.85098"/>
<path d="M450.484 92.7538C449.64 92.6017 448.74 92.5237 447.796 92.5237C444.796 92.5237 442.476 93.6274 440.844 95.8387C439.424 97.7887 438.712 100.253 438.712 103.229V122.866H430.188L430.268 97.2271C430.268 92.9137 430.16 88.9864 429.948 85.4452H437.376L437.688 92.6056H437.924C438.824 90.1447 440.244 88.1635 442.188 86.6776C444.088 85.3399 446.14 84.673 448.352 84.673C449.14 84.673 449.852 84.7276 450.484 84.8251V92.7538Z" fill="black" fill-opacity="0.85098"/>
<path d="M488.624 102.383C488.624 103.873 488.524 105.128 488.312 106.154H462.728C462.828 109.851 464.064 112.679 466.44 114.629C468.596 116.372 471.384 117.246 474.808 117.246C478.596 117.246 482.052 116.657 485.16 115.475L486.496 121.247C482.864 122.792 478.576 123.56 473.628 123.56C467.676 123.56 463.004 121.852 459.604 118.439C456.212 115.027 454.512 110.444 454.512 104.696C454.512 99.0522 456.092 94.3527 459.256 90.6048C462.568 86.6034 467.044 84.6027 472.676 84.6027C478.208 84.6027 482.396 86.6034 485.24 90.6048C487.492 93.7833 488.624 97.7145 488.624 102.383ZM480.492 100.226C480.548 97.7613 479.992 95.6319 478.836 93.834C477.36 91.5213 475.092 90.3669 472.04 90.3669C469.252 90.3669 466.984 91.494 465.252 93.756C463.832 95.5539 462.988 97.7106 462.728 100.222H480.492V100.226Z" fill="black" fill-opacity="0.85098"/>
</svg>
