<svg width="544" height="160" viewBox="0 0 544 160" fill="none" xmlns="http://www.w3.org/2000/svg">
<path d="M522 158.938H22C10.5098 158.938 1.0625 149.76 1.0625 138.5V21.5C1.0625 10.2399 10.5098 1.06252 22 1.06252H522C533.49 1.06252 542.937 10.2399 542.937 21.5V138.5C542.937 149.76 533.49 158.938 522 158.938Z" stroke="white" stroke-opacity="0.94902" stroke-width="1.5"/>
<path d="M40.74 31.4011C39.565 32.6004 38.885 34.4675 38.885 36.8855V123.134C38.885 125.552 39.565 127.419 40.74 128.618L41.03 128.882L90.6 80.5704V79.4296L41.03 31.1184L40.74 31.4011Z" fill="white" fill-opacity="0.94902"/>
<path d="M113.105 96.6822L96.5999 80.5703V79.4296L113.125 63.3177L113.495 63.5273L133.065 74.3839C138.65 77.4649 138.65 82.5349 133.065 85.6354L113.495 96.4726L113.105 96.6822V96.6822Z" fill="white" fill-opacity="0.94902"/>
<path d="M110.495 99.4726L93.6 83L43.74 131.618C45.595 133.52 48.62 133.749 52.06 131.848L110.495 99.4726" fill="white" fill-opacity="0.94902"/>
<path d="M110.495 60.5274L52.06 28.1525C48.62 26.2708 45.595 26.4999 43.74 28.4011L93.6 77L110.495 60.5274Z" fill="white" fill-opacity="0.94902"/>
<path d="M191.67 41.9506C191.67 45.2071 190.67 47.8152 188.7 49.7604C186.435 52.0662 183.485 53.2265 179.87 53.2265C176.415 53.2265 173.465 52.0467 171.045 49.7214C168.62 47.3619 167.41 44.4661 167.41 41C167.41 37.5339 168.62 34.6381 171.045 32.2981C173.465 29.9533 176.415 28.7735 179.87 28.7735C181.59 28.7735 183.23 29.1196 184.795 29.7631C186.355 30.4115 187.625 31.289 188.545 32.3712L186.455 34.4285C184.85 32.5809 182.665 31.6693 179.87 31.6693C177.35 31.6693 175.165 32.5272 173.31 34.2579C171.475 35.9934 170.555 38.2407 170.555 41C170.555 43.7592 171.475 46.0261 173.31 47.7616C175.165 49.4727 177.35 50.3502 179.87 50.3502C182.545 50.3502 184.795 49.4727 186.57 47.7421C187.74 46.5965 188.405 45.017 188.58 42.9987H179.87V40.181H191.49C191.63 40.7904 191.67 41.3802 191.67 41.9506V41.9506Z" fill="white" fill-opacity="0.94902" stroke="white" stroke-opacity="0.94902" stroke-width="0.16" stroke-miterlimit="10"/>
<path d="M210.105 32.1811H199.19V39.5911H209.03V42.4089H199.19V49.8189H210.105V52.6902H196.1V29.3098H210.105V32.1811Z" fill="white" fill-opacity="0.94902" stroke="white" stroke-opacity="0.94902" stroke-width="0.16" stroke-miterlimit="10"/>
<path d="M223.115 52.6902H220.025V32.1811H213.33V29.3098H229.815V32.1811H223.115V52.6902V52.6902Z" fill="white" fill-opacity="0.94902" stroke="white" stroke-opacity="0.94902" stroke-width="0.16" stroke-miterlimit="10"/>
<path d="M241.745 52.6902V29.3098H244.83V52.6902H241.745Z" fill="white" fill-opacity="0.94902" stroke="white" stroke-opacity="0.94902" stroke-width="0.16" stroke-miterlimit="10"/>
<path d="M258.505 52.6902H255.44V32.1811H248.72V29.3098H265.225V32.1811H258.505V52.6902Z" fill="white" fill-opacity="0.94902" stroke="white" stroke-opacity="0.94902" stroke-width="0.16" stroke-miterlimit="10"/>
<path d="M296.435 49.6824C294.07 52.0467 291.14 53.2265 287.645 53.2265C284.13 53.2265 281.2 52.0467 278.835 49.6824C276.475 47.3229 275.3 44.4271 275.3 41C275.3 37.5729 276.475 34.6771 278.835 32.3176C281.2 29.9532 284.13 28.7735 287.645 28.7735C291.12 28.7735 294.05 29.9532 296.415 32.3371C298.795 34.7161 299.97 37.5924 299.97 41C299.97 44.4271 298.795 47.3229 296.435 49.6824ZM281.12 47.7226C282.9 49.4727 285.065 50.3502 287.645 50.3502C290.205 50.3502 292.39 49.4727 294.15 47.7226C295.925 45.9725 296.825 43.7251 296.825 41C296.825 38.2749 295.925 36.0275 294.15 34.2774C292.39 32.5273 290.205 31.6497 287.645 31.6497C285.065 31.6497 282.9 32.5273 281.12 34.2774C279.345 36.0275 278.445 38.2749 278.445 41C278.445 43.7251 279.345 45.9725 281.12 47.7226V47.7226Z" fill="white" fill-opacity="0.94902" stroke="white" stroke-opacity="0.94902" stroke-width="0.16" stroke-miterlimit="10"/>
<path d="M304.305 52.6902V29.3098H308.055L319.715 47.4935H319.85L319.715 42.9987V29.3098H322.8V52.6902H319.58L307.37 33.6095H307.235L307.37 38.1237V52.6902H304.305V52.6902Z" fill="white" fill-opacity="0.94902" stroke="white" stroke-opacity="0.94902" stroke-width="0.16" stroke-miterlimit="10"/>
<path d="M274.54 86.8348C265.145 86.8348 257.47 93.806 257.47 103.424C257.47 112.965 265.145 120.009 274.54 120.009C283.955 120.009 291.63 112.965 291.63 103.424C291.63 93.806 283.955 86.8348 274.54 86.8348ZM274.54 113.477C269.385 113.477 264.95 109.328 264.95 103.424C264.95 97.4428 269.385 93.3673 274.54 93.3673C279.695 93.3673 284.15 97.4428 284.15 103.424C284.15 109.328 279.695 113.477 274.54 113.477V113.477ZM237.295 86.8348C227.88 86.8348 220.225 93.806 220.225 103.424C220.225 112.965 227.88 120.009 237.295 120.009C246.705 120.009 254.365 112.965 254.365 103.424C254.365 93.806 246.705 86.8348 237.295 86.8348ZM237.295 113.477C232.135 113.477 227.685 109.328 227.685 103.424C227.685 97.4428 232.135 93.3673 237.295 93.3673C242.45 93.3673 246.885 97.4428 246.885 103.424C246.885 109.328 242.45 113.477 237.295 113.477ZM192.975 91.9194V98.9687H210.24C209.735 102.908 208.385 105.803 206.315 107.822C203.795 110.259 199.87 112.965 192.975 112.965C182.35 112.965 174.03 104.604 174.03 94.2448C174.03 83.8854 182.35 75.5248 192.975 75.5248C198.72 75.5248 202.9 77.7137 205.985 80.5509L211.08 75.5833C206.765 71.5663 201.025 68.4804 192.975 68.4804C178.405 68.4804 166.16 80.0391 166.16 94.2448C166.16 108.451 178.405 120.009 192.975 120.009C200.85 120.009 206.765 117.494 211.415 112.775C216.18 108.129 217.665 101.596 217.665 96.3215C217.665 94.6835 217.525 93.1772 217.275 91.9194H192.975ZM374.205 97.3843C372.8 93.6744 368.465 86.8348 359.635 86.8348C350.885 86.8348 343.6 93.5574 343.6 103.424C343.6 112.716 350.81 120.009 360.475 120.009C368.29 120.009 372.8 115.363 374.655 112.658L368.855 108.889C366.92 111.649 364.285 113.477 360.475 113.477C356.69 113.477 353.975 111.785 352.235 108.451L374.99 99.2709L374.205 97.3843V97.3843ZM351.005 102.908C350.81 96.5117 356.1 93.2357 359.89 93.2357C362.86 93.2357 365.38 94.6835 366.22 96.7554L351.005 102.908V102.908ZM332.51 119H339.99V70.2501H332.51V119ZM320.26 90.53H320.01C318.33 88.5898 315.125 86.8348 311.065 86.8348C302.545 86.8348 294.755 94.1278 294.755 103.478C294.755 112.775 302.545 120.009 311.065 120.009C315.125 120.009 318.33 118.24 320.01 116.241H320.26V118.62C320.26 124.962 316.785 128.37 311.18 128.37C306.61 128.37 303.775 125.152 302.605 122.447L296.1 125.094C297.975 129.491 302.94 134.902 311.18 134.902C319.95 134.902 327.35 129.871 327.35 117.63V87.8439H320.26V90.53V90.53ZM311.705 113.477C306.55 113.477 302.235 109.27 302.235 103.478C302.235 97.6329 306.55 93.3673 311.705 93.3673C316.785 93.3673 320.79 97.6329 320.79 103.478C320.79 109.27 316.785 113.477 311.705 113.477V113.477ZM409.225 70.2501H391.335V119H398.795V100.529H409.225C417.51 100.529 425.635 94.6835 425.635 85.3869C425.635 76.0952 417.49 70.2501 409.225 70.2501V70.2501ZM409.42 93.7475H398.795V77.0312H409.42C414.99 77.0312 418.17 81.5405 418.17 85.3869C418.17 89.1602 414.99 93.7475 409.42 93.7475ZM455.535 86.7422C450.145 86.7422 444.54 89.0627 442.235 94.2058L448.855 96.9114C450.28 94.2058 452.9 93.3283 455.67 93.3283C459.54 93.3283 463.465 95.5952 463.525 99.5975V100.109C462.175 99.3489 459.285 98.2228 455.73 98.2228C448.6 98.2228 441.335 102.05 441.335 109.192C441.335 115.724 447.175 119.931 453.74 119.931C458.76 119.931 461.53 117.723 463.27 115.154H463.525V118.922H470.73V100.222C470.73 91.5782 464.11 86.7422 455.535 86.7422ZM454.635 113.457C452.195 113.457 448.795 112.277 448.795 109.328C448.795 105.555 453.035 104.107 456.705 104.107C459.99 104.107 461.53 104.814 463.525 105.745C462.94 110.259 458.955 113.457 454.635 113.457V113.457ZM496.98 87.8098L488.405 108.943H488.15L479.285 87.8098H471.24L484.56 117.343L476.96 133.776H484.755L505.28 87.8098H496.98V87.8098ZM429.735 119H437.215V70.2501H429.735V119Z" fill="white" fill-opacity="0.94902"/>
</svg>
