<svg width="24" height="24" viewBox="0 0 24 24" fill="none" xmlns="http://www.w3.org/2000/svg">
<path fill-rule="evenodd" clip-rule="evenodd" d="M5 0H19C21.7614 0 24 2.23858 24 5V19C24 21.7614 21.7614 24 19 24H5C2.23858 24 0 21.7614 0 19V5C0 2.23858 2.23858 0 5 0ZM17.6834 8.26991C18.0866 8.64731 18.1075 9.28012 17.7301 9.68335L10.4321 17.4807L6.25511 12.8172C5.88664 12.4058 5.92144 11.7736 6.33283 11.4051C6.74423 11.0366 7.37644 11.0714 7.74491 11.4828L10.4645 14.5193L16.2699 8.31666C16.6473 7.91344 17.2801 7.89251 17.6834 8.26991Z" fill="white" fill-opacity="0.94902"/>
</svg>
