<svg width="24" height="24" viewBox="0 0 24 24" fill="none" xmlns="http://www.w3.org/2000/svg">
<path fill-rule="evenodd" clip-rule="evenodd" d="M14.7097 5.41936C14.7097 6.27451 14.0164 6.96775 13.1613 6.96775C12.3061 6.96775 11.6129 6.27451 11.6129 5.41936C11.6129 4.56421 12.3061 3.87097 13.1613 3.87097C14.0164 3.87097 14.7097 4.56421 14.7097 5.41936ZM13.9355 9.29033C13.9355 9.29033 8.51608 9.29033 8.51613 10.0645C8.51616 10.5426 9.0968 10.4971 9.67744 10.4516C10.2581 10.4061 10.8387 10.3607 10.8387 10.8387C10.8387 11.0239 10.6618 11.5629 10.4242 12.2866C9.66786 14.5904 8.29713 18.7657 10.0645 19.3548C12.3871 20.129 14.7097 16.6075 14.7097 16.2581C14.7097 15.4839 14.3226 15.871 13.7419 16.4516C13.1613 17.0323 12.3871 17.8065 11.6129 17.8065C10.8387 17.8065 13.9355 9.29033 13.9355 9.29033Z" fill="white" fill-opacity="0.94902"/>
<path d="M23.25 12C23.25 18.2132 18.2132 23.25 12 23.25C5.7868 23.25 0.75 18.2132 0.75 12C0.75 5.7868 5.7868 0.75 12 0.75C18.2132 0.75 23.25 5.7868 23.25 12Z" stroke="white" stroke-opacity="0.94902" stroke-width="1.5"/>
</svg>
