<svg width="24" height="24" viewBox="0 0 24 24" fill="none" xmlns="http://www.w3.org/2000/svg">
<path fill-rule="evenodd" clip-rule="evenodd" d="M24 12C24 18.6274 18.6274 24 12 24C5.37258 24 0 18.6274 0 12C0 5.37258 5.37258 0 12 0C18.6274 0 24 5.37258 24 12ZM14.7097 5.41935C14.7097 6.27451 14.0164 6.96774 13.1613 6.96774C12.3061 6.96774 11.6129 6.27451 11.6129 5.41935C11.6129 4.5642 12.3061 3.87097 13.1613 3.87097C14.0164 3.87097 14.7097 4.5642 14.7097 5.41935ZM13.9355 9.29032C13.9355 9.29032 8.51608 9.29032 8.51613 10.0645C8.51616 10.5426 9.0968 10.4971 9.67744 10.4516C10.2581 10.4061 10.8387 10.3607 10.8387 10.8387C10.8387 11.0239 10.6618 11.5629 10.4242 12.2866C9.66786 14.5904 8.29713 18.7657 10.0645 19.3548C12.3871 20.129 14.7097 16.6075 14.7097 16.2581C14.7097 15.4839 14.3226 15.871 13.7419 16.4516C13.1613 17.0323 12.3871 17.8065 11.6129 17.8065C10.8387 17.8065 13.9355 9.29032 13.9355 9.29032Z" fill="white" fill-opacity="0.94902"/>
</svg>
