<svg width="24" height="24" viewBox="0 0 24 24" fill="none" xmlns="http://www.w3.org/2000/svg">
<path d="M2.16563 1.03436L1.03438 2.16561L21.8344 22.9656L22.9656 21.8344L20.8391 19.7078C22.682 19.0375 24 17.2748 24 15.2C24 13.1056 22.6563 11.3294 20.7859 10.6734C20.7899 10.5822 20.8 10.4928 20.8 10.4C20.8 6.86559 17.9344 3.99999 14.4 3.99999C11.912 3.99999 9.75996 5.42326 8.70156 7.49686C8.66803 7.4833 8.63081 7.47834 8.59688 7.46561L2.16563 1.03436ZM4.81563 8.01561C3.98763 8.64361 3.40269 9.57696 3.25469 10.6594C1.36269 11.3034 0 13.0904 0 15.2C0 17.8512 2.1488 20 4.8 20H16.8L4.81563 8.01561Z" fill="white" fill-opacity="0.94902"/>
</svg>
