<svg width="24" height="24" viewBox="0 0 24 24" fill="none" xmlns="http://www.w3.org/2000/svg">
<g clip-path="url(#clip0_43_2914)">
<path d="M20.3087 20.2381L21.905 21.8344L21.8344 21.905L2.09504 2.16561L2.16563 2.09502L8.06655 7.99594L8.18143 8.11083L8.33356 8.16787C8.36856 8.18099 8.39902 8.19012 8.42011 8.19604C8.43074 8.19902 8.44132 8.20182 8.44955 8.20396L9.05724 8.44975L9.36958 7.83783C10.3055 6.00428 12.206 4.74999 14.4 4.74999C17.5202 4.74999 20.05 7.2798 20.05 10.4C20.05 10.4414 20.0485 10.4591 20.0461 10.4879C20.0437 10.5165 20.0404 10.556 20.0367 10.6406L20.0123 11.1969L20.5377 11.3812C22.1184 11.9356 23.25 13.4355 23.25 15.2C23.25 16.9482 22.14 18.4366 20.5827 19.003L19.4761 19.4055L20.3087 20.2381Z" stroke="black" stroke-opacity="0.85098" stroke-width="1.5"/>
<path d="M3.60156 11.0863L3.84323 11.7963L4.28188 11.647L4.34465 11.1879L3.60156 11.0863ZM15 20.02C15.4142 20.02 15.75 19.6842 15.75 19.27C15.75 18.8558 15.4142 18.52 15 18.52V20.02ZM4.51594 8.17245C3.64189 8.83538 3.01677 9.82704 2.85848 10.9847L4.34465 11.1879C4.4457 10.4489 4.84556 9.80509 5.42239 9.36759L4.51594 8.17245ZM3.3599 10.3763C1.40887 11.0404 0 12.8841 0 15.0645H1.5C1.5 13.5484 2.47894 12.2607 3.84323 11.7963L3.3599 10.3763ZM0 15.0645C0 17.8016 2.21844 20.02 4.95548 20.02V18.52C3.04686 18.52 1.5 16.9732 1.5 15.0645H0ZM4.95548 20.02H15V18.52H4.95548V20.02Z" fill="black" fill-opacity="0.85098"/>
</g>
<defs>
<clipPath id="clip0_43_2914">
<rect width="24" height="24" fill="white"/>
</clipPath>
</defs>
</svg>
