<svg width="24" height="24" viewBox="0 0 24 24" fill="none" xmlns="http://www.w3.org/2000/svg">
<path fill-rule="evenodd" clip-rule="evenodd" d="M24 12C24 18.6274 18.6274 24 12 24C5.37258 24 0 18.6274 0 12C0 5.37258 5.37258 0 12 0C18.6274 0 24 5.37258 24 12ZM17.6833 8.2699C18.0866 8.6473 18.1075 9.28012 17.7301 9.68334L10.432 17.4807L6.2551 12.8172C5.88663 12.4058 5.92143 11.7736 6.33282 11.4051C6.74422 11.0366 7.37643 11.0714 7.7449 11.4828L10.4645 14.5193L16.2699 8.31666C16.6473 7.91344 17.2801 7.8925 17.6833 8.2699Z" fill="white" fill-opacity="0.94902"/>
</svg>
