<svg width="24" height="24" viewBox="0 0 24 24" fill="none" xmlns="http://www.w3.org/2000/svg">
<rect x="3.75" y="9.75" width="16.5" height="13.5" rx="1.25" stroke="white" stroke-opacity="0.94902" stroke-width="1.5"/>
<path d="M15.5793 5.10646C15.6381 5.51648 16.0181 5.8012 16.4281 5.74241C16.8382 5.68361 17.1229 5.30356 17.0641 4.89354L15.5793 5.10646ZM8.25 9C8.25 6.95662 8.25944 5.04215 8.76816 3.62904C9.01398 2.94622 9.36062 2.43197 9.84001 2.08279C10.3169 1.73544 10.9956 1.5 12 1.5V0C10.7544 0 9.74562 0.295808 8.95686 0.870334C8.17062 1.44303 7.67352 2.24128 7.35683 3.12096C6.74055 4.83285 6.75 7.04338 6.75 9L8.25 9ZM12 1.5C13.3117 1.5 14.0823 1.89923 14.5793 2.46735C15.1052 3.06859 15.4149 3.96053 15.5793 5.10646L17.0641 4.89354C16.8837 3.63556 16.5155 2.4025 15.7082 1.47972C14.872 0.523819 13.6542 0 12 0V1.5Z" fill="white" fill-opacity="0.94902"/>
</svg>
